<svg width="16" height="16" viewBox="0 0 16 16" fill="none" xmlns="http://www.w3.org/2000/svg">
<path d="M8 7.01297C7.72667 7.01297 7.5 6.7863 7.5 6.51297V4.29297C7.5 4.01964 7.72667 3.79297 8 3.79297C8.27333 3.79297 8.5 4.01964 8.5 4.29297V6.51297C8.5 6.79297 8.27333 7.01297 8 7.01297Z" fill="#0A0A68"/>
<path d="M8.01333 13.5662C6.29333 13.5662 4.58 13.2928 2.94667 12.7462C2.34 12.5462 1.88 12.1128 1.68 11.5662C1.48 11.0195 1.54667 10.3928 1.87333 9.84617L2.72 8.43284C2.90667 8.11951 3.07333 7.53284 3.07333 7.16617V5.76617C3.07333 3.03951 5.28667 0.826172 8.01333 0.826172C10.74 0.826172 12.9533 3.03951 12.9533 5.76617V7.16617C12.9533 7.52617 13.12 8.11951 13.3067 8.43284L14.1533 9.84617C14.4667 10.3662 14.52 10.9862 14.3133 11.5528C14.1067 12.1195 13.6533 12.5528 13.08 12.7462C11.4467 13.2995 9.73333 13.5662 8.01333 13.5662ZM8.01333 1.83284C5.84 1.83284 4.07333 3.59951 4.07333 5.77284V7.17284C4.07333 7.71284 3.86 8.49284 3.58 8.95284L2.73333 10.3728C2.56 10.6595 2.52 10.9662 2.62 11.2328C2.72 11.4995 2.94667 11.6995 3.26667 11.8062C6.33333 12.8262 9.70667 12.8262 12.7733 11.8062C13.06 11.7128 13.28 11.4995 13.38 11.2195C13.4867 10.9395 13.4533 10.6328 13.3 10.3728L12.4533 8.95951C12.1733 8.49951 11.96 7.71951 11.96 7.17951V5.77951C11.9533 3.59951 10.1867 1.83284 8.01333 1.83284Z" fill="#0A0A68"/>
<path d="M8 15.2669C7.28667 15.2669 6.58667 14.9735 6.08 14.4669C5.57333 13.9602 5.28 13.2602 5.28 12.5469H6.28C6.28 13.0002 6.46667 13.4402 6.78667 13.7602C7.10667 14.0802 7.54667 14.2669 8 14.2669C8.94667 14.2669 9.72 13.4935 9.72 12.5469H10.72C10.72 14.0469 9.5 15.2669 8 15.2669Z" fill="#0A0A68"/>
</svg>
