<svg width="40" height="40" viewBox="0 0 40 40" fill="none" xmlns="http://www.w3.org/2000/svg">
<path opacity="0.4" d="M36.967 22.7667C36.717 20.0167 35.9836 17.0833 30.6336 17.0833H9.36697C4.01697 17.0833 3.30031 20.0167 3.03364 22.7667L2.10031 32.9167C1.98364 34.1833 2.40031 35.45 3.26697 36.4C4.15031 37.3667 5.40031 37.9167 6.73364 37.9167H9.86697C12.567 37.9167 13.0836 36.3667 13.417 35.35L13.7503 34.35C14.1336 33.2 14.2336 32.9167 15.7336 32.9167H24.267C25.767 32.9167 25.817 33.0833 26.2503 34.35L26.5836 35.35C26.917 36.3667 27.4336 37.9167 30.1336 37.9167H33.267C34.5836 37.9167 35.8503 37.3667 36.7336 36.4C37.6003 35.45 38.017 34.1833 37.9003 32.9167L36.967 22.7667Z" fill="#F4A71D"/>
<path d="M35 12.0833H33.3333C33.3167 12.0833 33.3167 12.0833 33.3 12.0833L32.6667 9.06666C32.0667 6.14999 30.8167 3.46666 25.85 3.46666H21.25H18.75H14.15C9.18333 3.46666 7.93333 6.14999 7.33333 9.06666L6.7 12.0833C6.68333 12.0833 6.68333 12.0833 6.66667 12.0833H5C4.31667 12.0833 3.75 12.65 3.75 13.3333C3.75 14.0167 4.31667 14.5833 5 14.5833H6.18333L5.48333 17.9167C6.38333 17.4 7.63333 17.0833 9.36667 17.0833H30.6333C32.3667 17.0833 33.6167 17.4 34.5167 17.9167L33.8167 14.5833H35C35.6833 14.5833 36.25 14.0167 36.25 13.3333C36.25 12.65 35.6833 12.0833 35 12.0833Z" fill="#F4A71D"/>
<path d="M15 26.25H10C9.31667 26.25 8.75 25.6833 8.75 25C8.75 24.3167 9.31667 23.75 10 23.75H15C15.6833 23.75 16.25 24.3167 16.25 25C16.25 25.6833 15.6833 26.25 15 26.25Z" fill="#F4A71D"/>
<path d="M30 26.25H25C24.3167 26.25 23.75 25.6833 23.75 25C23.75 24.3167 24.3167 23.75 25 23.75H30C30.6833 23.75 31.25 24.3167 31.25 25C31.25 25.6833 30.6833 26.25 30 26.25Z" fill="#F4A71D"/>
</svg>
