<svg width="40" height="40" viewBox="0 0 40 40" fill="none" xmlns="http://www.w3.org/2000/svg">
<path opacity="0.4" d="M36.9667 22.7667C36.7167 20.0167 35.9833 17.0833 30.6333 17.0833H9.36667C4.01667 17.0833 3.3 20.0167 3.03333 22.7667L2.1 32.9167C1.98333 34.1833 2.4 35.45 3.26667 36.4C4.15 37.3667 5.4 37.9167 6.73333 37.9167H9.86667C12.5667 37.9167 13.0833 36.3667 13.4167 35.35L13.75 34.35C14.1333 33.2 14.2333 32.9167 15.7333 32.9167H24.2667C25.7667 32.9167 25.8167 33.0833 26.25 34.35L26.5833 35.35C26.9167 36.3667 27.4333 37.9167 30.1333 37.9167H33.2667C34.5833 37.9167 35.85 37.3667 36.7333 36.4C37.6 35.45 38.0167 34.1833 37.9 32.9167L36.9667 22.7667Z" fill="#0A0A68"/>
<path d="M35 12.0833H33.3333C33.3167 12.0833 33.3167 12.0833 33.3 12.0833L32.6667 9.06666C32.0667 6.14999 30.8167 3.46666 25.85 3.46666H21.25H18.75H14.15C9.18333 3.46666 7.93333 6.14999 7.33333 9.06666L6.7 12.0833C6.68333 12.0833 6.68333 12.0833 6.66667 12.0833H5C4.31667 12.0833 3.75 12.65 3.75 13.3333C3.75 14.0167 4.31667 14.5833 5 14.5833H6.18333L5.48333 17.9167C6.38333 17.4 7.63333 17.0833 9.36667 17.0833H30.6333C32.3667 17.0833 33.6167 17.4 34.5167 17.9167L33.8167 14.5833H35C35.6833 14.5833 36.25 14.0167 36.25 13.3333C36.25 12.65 35.6833 12.0833 35 12.0833Z" fill="#0A0A68"/>
<path d="M15 26.25H10C9.31667 26.25 8.75 25.6833 8.75 25C8.75 24.3167 9.31667 23.75 10 23.75H15C15.6833 23.75 16.25 24.3167 16.25 25C16.25 25.6833 15.6833 26.25 15 26.25Z" fill="#0A0A68"/>
<path d="M30 26.25H25C24.3167 26.25 23.75 25.6833 23.75 25C23.75 24.3167 24.3167 23.75 25 23.75H30C30.6833 23.75 31.25 24.3167 31.25 25C31.25 25.6833 30.6833 26.25 30 26.25Z" fill="#0A0A68"/>
</svg>
