<svg width="40" height="40" viewBox="0 0 40 40" fill="none" xmlns="http://www.w3.org/2000/svg">
<path d="M33.333 23.75C35.4041 23.75 37.083 22.0711 37.083 20C37.083 17.9289 35.4041 16.25 33.333 16.25C31.2619 16.25 29.583 17.9289 29.583 20C29.583 22.0711 31.2619 23.75 33.333 23.75Z" fill="#F4A71D"/>
<path d="M33.333 10.4167C35.4041 10.4167 37.083 8.73772 37.083 6.66666C37.083 4.59559 35.4041 2.91666 33.333 2.91666C31.2619 2.91666 29.583 4.59559 29.583 6.66666C29.583 8.73772 31.2619 10.4167 33.333 10.4167Z" fill="#F4A71D"/>
<path d="M33.333 37.0833C35.4041 37.0833 37.083 35.4044 37.083 33.3333C37.083 31.2623 35.4041 29.5833 33.333 29.5833C31.2619 29.5833 29.583 31.2623 29.583 33.3333C29.583 35.4044 31.2619 37.0833 33.333 37.0833Z" fill="#F4A71D"/>
<path d="M6.66699 23.75C8.73806 23.75 10.417 22.0711 10.417 20C10.417 17.9289 8.73806 16.25 6.66699 16.25C4.59592 16.25 2.91699 17.9289 2.91699 20C2.91699 22.0711 4.59592 23.75 6.66699 23.75Z" fill="#F4A71D"/>
<path opacity="0.4" d="M31.6663 21.25C32.3497 21.25 32.9163 20.6833 32.9163 20C32.9163 19.3167 32.3497 18.75 31.6663 18.75H19.583V11.6667C19.583 9.03332 20.6997 7.91666 23.333 7.91666H31.6663C32.3497 7.91666 32.9163 7.34999 32.9163 6.66666C32.9163 5.98332 32.3497 5.41666 31.6663 5.41666H23.333C19.2997 5.41666 17.083 7.63332 17.083 11.6667V18.75H8.33301C7.64967 18.75 7.08301 19.3167 7.08301 20C7.08301 20.6833 7.64967 21.25 8.33301 21.25H17.083V28.3333C17.083 32.3667 19.2997 34.5833 23.333 34.5833H31.6663C32.3497 34.5833 32.9163 34.0167 32.9163 33.3333C32.9163 32.65 32.3497 32.0833 31.6663 32.0833H23.333C20.6997 32.0833 19.583 30.9667 19.583 28.3333V21.25H31.6663Z" fill="#F4A71D"/>
</svg>
