<svg width="26" height="26" viewBox="0 0 26 26" fill="none" xmlns="http://www.w3.org/2000/svg">
<path opacity="0.4" d="M22.2085 11.0391H19.0777C16.5102 11.0391 14.4193 8.94829 14.4193 6.38079V3.24996C14.4193 2.65413 13.9318 2.16663 13.336 2.16663H8.74266C5.406 2.16663 2.7085 4.33329 2.7085 8.20079V17.7991C2.7085 21.6666 5.406 23.8333 8.74266 23.8333H17.2577C20.5943 23.8333 23.2918 21.6666 23.2918 17.7991V12.1225C23.2918 11.5266 22.8043 11.0391 22.2085 11.0391Z" fill="white"/>
<path d="M17.1167 2.3942C16.6725 1.95003 15.9033 2.25337 15.9033 2.87087V6.6517C15.9033 8.23337 17.2467 9.5442 18.8825 9.5442C19.9117 9.55503 21.3417 9.55503 22.5658 9.55503C23.1833 9.55503 23.5083 8.8292 23.075 8.39587C21.515 6.82503 18.72 3.99753 17.1167 2.3942Z" fill="white"/>
<path d="M12.4907 13.5091L10.3241 11.3425C10.3132 11.3316 10.3024 11.3316 10.3024 11.3208C10.2374 11.2558 10.1507 11.2016 10.0641 11.1583C10.0532 11.1583 10.0532 11.1583 10.0424 11.1583C9.95573 11.1258 9.86906 11.115 9.7824 11.1041C9.7499 11.1041 9.72823 11.1041 9.69573 11.1041C9.63073 11.1041 9.5549 11.1258 9.4899 11.1475C9.4574 11.1583 9.43573 11.1691 9.41406 11.18C9.3274 11.2233 9.24073 11.2666 9.17573 11.3425L7.00906 13.5091C6.6949 13.8233 6.6949 14.3433 7.00906 14.6575C7.32323 14.9716 7.84323 14.9716 8.1574 14.6575L8.9374 13.8775V18.4166C8.9374 18.8608 9.30573 19.2291 9.7499 19.2291C10.1941 19.2291 10.5624 18.8608 10.5624 18.4166V13.8775L11.3424 14.6575C11.5049 14.82 11.7107 14.8958 11.9166 14.8958C12.1224 14.8958 12.3282 14.82 12.4907 14.6575C12.8049 14.3433 12.8049 13.8233 12.4907 13.5091Z" fill="white"/>
</svg>
