<svg width="40" height="40" viewBox="0 0 40 40" fill="none" xmlns="http://www.w3.org/2000/svg">
<path opacity="0.4" d="M32.468 21.5834H35.8346V19.1834C35.8346 15.7334 33.018 12.9167 29.568 12.9167H10.4346C6.98463 12.9167 4.16797 15.7334 4.16797 19.1834V25.2666C5.48464 24.0666 7.2513 23.3334 9.16797 23.3334C13.318 23.3334 16.668 26.7 16.668 30.8334C16.668 31.7167 16.518 32.55 16.2346 33.3334C15.7846 34.65 14.9513 35.7834 13.9013 36.6667H29.568C33.018 36.6667 35.8346 33.85 35.8346 30.4V28.4167H32.668C30.868 28.4167 29.218 27.1 29.068 25.3C28.968 24.25 29.368 23.2667 30.068 22.5833C30.6846 21.95 31.5346 21.5834 32.468 21.5834Z" fill="#0A0A68"/>
<path d="M9.16797 23.3333C7.2513 23.3333 5.48464 24.0666 4.16797 25.2666C3.86797 25.5333 3.58464 25.8166 3.33464 26.1333C2.28464 27.4166 1.66797 29.05 1.66797 30.8333C1.66797 34.9833 5.03464 38.3333 9.16797 38.3333C10.968 38.3333 12.6013 37.7 13.9013 36.6666C14.9513 35.7833 15.7846 34.65 16.2346 33.3333C16.518 32.55 16.668 31.7166 16.668 30.8333C16.668 26.7 13.318 23.3333 9.16797 23.3333ZM13.668 29.3833C13.668 29.9 13.2513 30.3 12.7513 30.3C12.2513 30.3 11.8346 29.9 11.8346 29.3833V29.2C11.8346 29 11.6846 28.8333 11.4846 28.8333H7.71798C7.90131 29.1833 7.86796 29.6167 7.56796 29.9167C7.40129 30.0833 7.16796 30.1833 6.91796 30.1833C6.68462 30.1833 6.45131 30.0833 6.28464 29.9167L4.93465 28.5667C4.85131 28.4833 4.78463 28.3833 4.73463 28.2667C4.6513 28.05 4.6513 27.7999 4.73463 27.5666C4.78463 27.4666 4.85131 27.35 4.93465 27.2666L6.28464 25.9333C6.63464 25.5666 7.21796 25.5666 7.56796 25.9333C7.86796 26.2166 7.90131 26.6667 7.71798 27H11.4846C12.6846 27 13.668 27.9833 13.668 29.2V29.3833ZM11.418 35.9999C11.168 35.9999 10.9346 35.9166 10.768 35.7333C10.468 35.45 10.4346 35 10.618 34.6666H6.8513C5.6513 34.6666 4.66797 33.6833 4.66797 32.4666V32.2833C4.66797 31.7666 5.08465 31.3667 5.58465 31.3667C6.08465 31.3667 6.50129 31.7666 6.50129 32.2833V32.4666C6.50129 32.6666 6.6513 32.8333 6.8513 32.8333H10.618C10.4346 32.4833 10.468 32.05 10.768 31.75C11.118 31.4 11.7013 31.4 12.0513 31.75L13.4013 33.1C13.4846 33.1833 13.5513 33.2833 13.6013 33.3999C13.6846 33.6166 13.6846 33.8667 13.6013 34.1C13.5513 34.2 13.4846 34.3167 13.4013 34.4L12.0513 35.7333C11.8846 35.9166 11.6513 35.9999 11.418 35.9999Z" fill="#0A0A68"/>
<path d="M24.7513 6.58336V12.9167H10.4346C6.98463 12.9167 4.16797 15.7334 4.16797 19.1834V13.0667C4.16797 11.0834 5.38463 9.31664 7.23463 8.61664L20.468 3.61664C22.5346 2.84997 24.7513 4.36669 24.7513 6.58336Z" fill="#0A0A68"/>
<path d="M37.5993 23.2833V26.7167C37.5993 27.6334 36.866 28.3833 35.9326 28.4167H32.666C30.866 28.4167 29.216 27.1 29.066 25.3C28.966 24.25 29.366 23.2667 30.066 22.5833C30.6826 21.95 31.5326 21.5834 32.466 21.5834H35.9326C36.866 21.6167 37.5993 22.3666 37.5993 23.2833Z" fill="#0A0A68"/>
<path d="M23.3346 21.25H11.668C10.9846 21.25 10.418 20.6833 10.418 20C10.418 19.3167 10.9846 18.75 11.668 18.75H23.3346C24.018 18.75 24.5846 19.3167 24.5846 20C24.5846 20.6833 24.018 21.25 23.3346 21.25Z" fill="#0A0A68"/>
</svg>
