<svg width="40" height="40" viewBox="0 0 40 40" fill="none" xmlns="http://www.w3.org/2000/svg">
<path opacity="0.4" d="M32.9824 7.03333C28.0491 2.11666 20.0491 2.11666 15.1491 7.03333C11.6991 10.45 10.6658 15.3667 11.9991 19.7L4.16577 27.5333C3.61577 28.1 3.23244 29.2167 3.3491 30.0167L3.8491 33.65C4.03244 34.85 5.1491 35.9833 6.3491 36.15L9.98244 36.65C10.7824 36.7667 11.8991 36.4 12.4658 35.8167L13.8324 34.45C14.1658 34.1333 14.1658 33.6 13.8324 33.2667L10.5991 30.0333C10.1158 29.55 10.1158 28.75 10.5991 28.2667C11.0824 27.7833 11.8824 27.7833 12.3658 28.2667L15.6158 31.5167C15.9324 31.8333 16.4658 31.8333 16.7824 31.5167L20.3158 28C24.6324 29.35 29.5491 28.3 32.9824 24.8833C37.8991 19.9667 37.8991 11.95 32.9824 7.03333ZM24.1658 20C21.8658 20 19.9991 18.1333 19.9991 15.8333C19.9991 13.5333 21.8658 11.6667 24.1658 11.6667C26.4658 11.6667 28.3324 13.5333 28.3324 15.8333C28.3324 18.1333 26.4658 20 24.1658 20Z" fill="#F4A71D"/>
<path d="M24.1667 20C26.4679 20 28.3333 18.1345 28.3333 15.8333C28.3333 13.5322 26.4679 11.6667 24.1667 11.6667C21.8655 11.6667 20 13.5322 20 15.8333C20 18.1345 21.8655 20 24.1667 20Z" fill="#F4A71D"/>
</svg>
