<svg width="40" height="40" viewBox="0 0 40 40" fill="none" xmlns="http://www.w3.org/2000/svg">
<path opacity="0.4" d="M17.9168 4.08336C19.0668 3.10002 20.9501 3.10002 22.1168 4.08336L24.7501 6.35C25.2501 6.78333 26.1834 7.13338 26.8501 7.13338H29.6835C31.4501 7.13338 32.9001 8.58337 32.9001 10.35V13.1833C32.9001 13.8333 33.2501 14.7833 33.6834 15.2833L35.9501 17.9167C36.9335 19.0667 36.9335 20.95 35.9501 22.1167L33.6834 24.75C33.2501 25.25 32.9001 26.1833 32.9001 26.85V29.6833C32.9001 31.45 31.4501 32.9 29.6835 32.9H26.8501C26.2001 32.9 25.2501 33.25 24.7501 33.6834L22.1168 35.95C20.9668 36.9333 19.0835 36.9333 17.9168 35.95L15.2835 33.6834C14.7835 33.25 13.8501 32.9 13.1835 32.9H10.3001C8.53345 32.9 7.08346 31.45 7.08346 29.6833V26.8333C7.08346 26.1833 6.73347 25.25 6.31681 24.75L4.0668 22.1C3.10013 20.95 3.10013 19.0834 4.0668 17.9334L6.31681 15.2833C6.73347 14.7833 7.08346 13.85 7.08346 13.2V10.35C7.08346 8.58337 8.53345 7.13338 10.3001 7.13338H13.1835C13.8335 7.13338 14.7835 6.78333 15.2835 6.35L17.9168 4.08336Z" fill="#0A0A68"/>
<path d="M27.6341 18.45C27.3174 18 26.7841 17.75 26.1508 17.75H22.9007C22.6841 17.75 22.4841 17.6666 22.3508 17.5C22.2174 17.3333 22.1508 17.1166 22.1841 16.8833L22.5841 14.2833C22.7507 13.5166 22.2341 12.6333 21.4674 12.3833C20.7508 12.1166 19.9007 12.4833 19.5674 12.9833L16.3341 17.7833V17.1833C16.3341 16.0166 15.8341 15.5333 14.6008 15.5333H13.7841C12.5507 15.5333 12.0508 16.0166 12.0508 17.1833V25.15C12.0508 26.3167 12.5507 26.8 13.7841 26.8H14.6008C15.7674 26.8 16.2674 26.3499 16.3174 25.2833L18.7674 27.1666C19.1008 27.4999 19.8508 27.6833 20.3841 27.6833H23.4674C24.5341 27.6833 25.6008 26.8833 25.8341 25.8999L27.7841 19.9666C28.0008 19.4333 27.9507 18.8833 27.6341 18.45Z" fill="#0A0A68"/>
</svg>
