<svg width="40" height="40" viewBox="0 0 40 40" fill="none" xmlns="http://www.w3.org/2000/svg">
<path opacity="0.4" d="M21.9169 25.6166C21.5503 25.0833 20.9002 24.7833 20.1502 24.7833H16.2669C16.0169 24.7833 15.7669 24.6833 15.6169 24.4833C15.4503 24.2833 15.3836 24.0333 15.4169 23.75L15.9003 20.65C16.1003 19.7333 15.4836 18.6833 14.5669 18.3667C13.7003 18.05 12.7003 18.4833 12.2836 19.1L8.30026 25.0166L8.18359 25.2166V33.5833L8.33359 33.7333L11.3336 36.05C11.7336 36.45 12.6336 36.6666 13.2669 36.6666H16.9503C18.2169 36.6666 19.4836 35.7166 19.7836 34.5499L22.1169 27.4666C22.3502 26.7833 22.2836 26.1333 21.9169 25.6166Z" fill="#0A0A68"/>
<path d="M6.36536 22.1666H5.39869C3.93203 22.1666 3.33203 22.7333 3.33203 24.1333V33.65C3.33203 35.05 3.93203 35.6166 5.39869 35.6166H6.36536C7.83203 35.6166 8.43203 35.05 8.43203 33.65V24.1333C8.43203 22.7333 7.83203 22.1666 6.36536 22.1666Z" fill="#0A0A68"/>
<path opacity="0.4" d="M18.6681 14.3333C19.0348 14.8666 19.6848 15.1666 20.4348 15.1666H24.3181C24.5681 15.1666 24.8181 15.2667 24.9681 15.4667C25.1348 15.6667 25.2015 15.9166 25.1681 16.2L24.6848 19.3C24.4848 20.2167 25.1015 21.2667 26.0181 21.5834C26.8848 21.9 27.8848 21.4667 28.3015 20.85L32.2848 14.9334L32.4015 14.7334V6.36669L32.2515 6.21664L29.2515 3.90005C28.8515 3.50005 27.9515 3.28329 27.3181 3.28329H23.6348C22.3681 3.28329 21.1015 4.23333 20.8015 5.39999L18.4681 12.4833C18.2348 13.15 18.3015 13.8166 18.6681 14.3333Z" fill="#0A0A68"/>
<path d="M34.219 17.7833H35.1857C36.6523 17.7833 37.2523 17.2167 37.2523 15.8167V6.30007C37.2523 4.90007 36.6523 4.33331 35.1857 4.33331H34.219C32.7523 4.33331 32.1523 4.90007 32.1523 6.30007V15.8167C32.1523 17.2167 32.7523 17.7833 34.219 17.7833Z" fill="#0A0A68"/>
</svg>
