<svg width="40" height="40" viewBox="0 0 40 40" fill="none" xmlns="http://www.w3.org/2000/svg">
<path opacity="0.4" d="M21.9169 25.6166C21.5503 25.0833 20.9002 24.7833 20.1502 24.7833H16.2669C16.0169 24.7833 15.7669 24.6833 15.6169 24.4833C15.4503 24.2833 15.3836 24.0333 15.4169 23.75L15.9003 20.65C16.1003 19.7333 15.4836 18.6833 14.5669 18.3667C13.7003 18.05 12.7003 18.4833 12.2836 19.1L8.30026 25.0166L8.18359 25.2166V33.5833L8.33359 33.7333L11.3336 36.05C11.7336 36.45 12.6336 36.6666 13.2669 36.6666H16.9503C18.2169 36.6666 19.4836 35.7166 19.7836 34.5499L22.1169 27.4666C22.3502 26.7833 22.2836 26.1333 21.9169 25.6166Z" fill="#F4A71D"/>
<path d="M6.36732 22.1666H5.40065C3.93398 22.1666 3.33398 22.7333 3.33398 24.1333V33.65C3.33398 35.05 3.93398 35.6166 5.40065 35.6166H6.36732C7.83398 35.6166 8.43398 35.05 8.43398 33.65V24.1333C8.43398 22.7333 7.83398 22.1666 6.36732 22.1666Z" fill="#F4A71D"/>
<path opacity="0.4" d="M18.6662 14.3333C19.0329 14.8666 19.6829 15.1666 20.4329 15.1666H24.3162C24.5662 15.1666 24.8162 15.2667 24.9662 15.4667C25.1329 15.6667 25.1995 15.9166 25.1662 16.2L24.6829 19.3C24.4829 20.2167 25.0995 21.2667 26.0162 21.5834C26.8829 21.9 27.8829 21.4667 28.2995 20.85L32.2829 14.9334L32.3995 14.7334V6.36669L32.2495 6.21664L29.2495 3.90005C28.8495 3.50005 27.9495 3.28329 27.3162 3.28329H23.6329C22.3662 3.28329 21.0995 4.23333 20.7995 5.39999L18.4662 12.4833C18.2329 13.15 18.2995 13.8166 18.6662 14.3333Z" fill="#F4A71D"/>
<path d="M34.2171 17.7833H35.1837C36.6504 17.7833 37.2504 17.2167 37.2504 15.8167V6.30007C37.2504 4.90007 36.6504 4.33331 35.1837 4.33331H34.2171C32.7504 4.33331 32.1504 4.90007 32.1504 6.30007V15.8167C32.1504 17.2167 32.7504 17.7833 34.2171 17.7833Z" fill="#F4A71D"/>
</svg>
