<svg width="40" height="40" viewBox="0 0 40 40" fill="none" xmlns="http://www.w3.org/2000/svg">
<path opacity="0.4" d="M28.3334 34.1667H11.6667C6.66671 34.1667 3.33337 31.6667 3.33337 25.8333V14.1667C3.33337 8.33333 6.66671 5.83333 11.6667 5.83333H28.3334C33.3334 5.83333 36.6667 8.33333 36.6667 14.1667V25.8333C36.6667 31.6667 33.3334 34.1667 28.3334 34.1667Z" fill="#0A0A68"/>
<path d="M20 25C22.7614 25 25 22.7614 25 20C25 17.2386 22.7614 15 20 15C17.2386 15 15 17.2386 15 20C15 22.7614 17.2386 25 20 25Z" fill="#0A0A68"/>
<path d="M31.6666 12.9167H26.6666C25.9833 12.9167 25.4166 12.35 25.4166 11.6667C25.4166 10.9833 25.9833 10.4167 26.6666 10.4167H31.6666C32.35 10.4167 32.9166 10.9833 32.9166 11.6667C32.9166 12.35 32.35 12.9167 31.6666 12.9167Z" fill="#0A0A68"/>
<path d="M13.3334 29.5833H8.33337C7.65004 29.5833 7.08337 29.0167 7.08337 28.3333C7.08337 27.65 7.65004 27.0833 8.33337 27.0833H13.3334C14.0167 27.0833 14.5834 27.65 14.5834 28.3333C14.5834 29.0167 14.0167 29.5833 13.3334 29.5833Z" fill="#0A0A68"/>
</svg>
