<svg width="40" height="40" viewBox="0 0 40 40" fill="none" xmlns="http://www.w3.org/2000/svg">
<path d="M2.82399 33.733C2.84066 33.7163 2.84068 33.6996 2.84068 33.6996L12.0073 24.533C12.024 24.5163 12.0406 24.5164 12.0573 24.4997C10.9906 23.7664 9.69062 23.333 8.30729 23.333C4.62396 23.333 1.64062 26.3163 1.64062 29.9997C1.64062 31.2497 1.99065 32.433 2.60732 33.433C2.69065 33.533 2.75733 33.633 2.82399 33.733Z" fill="#F4A71D"/>
<path d="M13.8398 26.25C13.8232 26.2667 13.8232 26.2834 13.8066 26.3L4.63989 35.4667C4.62323 35.4834 4.60651 35.4833 4.58984 35.5C5.65651 36.2333 6.93984 36.6667 8.33984 36.6667C10.7732 36.6667 12.8898 35.3667 14.0398 33.4333C14.6565 32.4333 15.0065 31.25 15.0065 30C15.0065 28.6 14.5732 27.3167 13.8398 26.25Z" fill="#F4A71D"/>
<path opacity="0.4" d="M36.6732 15.0003V25.0003C36.6732 30.8337 33.3398 33.3337 28.3398 33.3337H14.0899C14.6732 32.3503 15.0065 31.217 15.0065 30.0003C15.0065 26.317 12.0232 23.3337 8.33984 23.3337C6.33984 23.3337 4.55651 24.217 3.33984 25.6003V15.0003C3.33984 9.16699 6.67318 6.66699 11.6732 6.66699H28.3398C33.3398 6.66699 36.6732 9.16699 36.6732 15.0003Z" fill="#F4A71D"/>
<path d="M20.0065 24.1663C22.3077 24.1663 24.1732 22.3009 24.1732 19.9997C24.1732 17.6985 22.3077 15.833 20.0065 15.833C17.7053 15.833 15.8398 17.6985 15.8398 19.9997C15.8398 22.3009 17.7053 24.1663 20.0065 24.1663Z" fill="#F4A71D"/>
<path d="M30.8203 24.5827C30.137 24.5827 29.5703 24.016 29.5703 23.3327V16.666C29.5703 15.9827 30.137 15.416 30.8203 15.416C31.5036 15.416 32.0703 15.9827 32.0703 16.666V23.3327C32.0703 24.016 31.5036 24.5827 30.8203 24.5827Z" fill="#F4A71D"/>
</svg>
