<svg width="40" height="40" viewBox="0 0 40 40" fill="none" xmlns="http://www.w3.org/2000/svg">
<path opacity="0.4" d="M28.332 34.1667H11.6654C6.66536 34.1667 3.33203 31.6667 3.33203 25.8333V14.1667C3.33203 8.33333 6.66536 5.83333 11.6654 5.83333H28.332C33.332 5.83333 36.6654 8.33333 36.6654 14.1667V25.8333C36.6654 31.6667 33.332 34.1667 28.332 34.1667Z" fill="#F4A71D"/>
<path d="M20 25C22.7614 25 25 22.7614 25 20C25 17.2386 22.7614 15 20 15C17.2386 15 15 17.2386 15 20C15 22.7614 17.2386 25 20 25Z" fill="#F4A71D"/>
<path d="M31.668 12.9167H26.668C25.9846 12.9167 25.418 12.35 25.418 11.6667C25.418 10.9833 25.9846 10.4167 26.668 10.4167H31.668C32.3513 10.4167 32.918 10.9833 32.918 11.6667C32.918 12.35 32.3513 12.9167 31.668 12.9167Z" fill="#F4A71D"/>
<path d="M13.332 29.5833H8.33203C7.6487 29.5833 7.08203 29.0167 7.08203 28.3333C7.08203 27.65 7.6487 27.0833 8.33203 27.0833H13.332C14.0154 27.0833 14.582 27.65 14.582 28.3333C14.582 29.0167 14.0154 29.5833 13.332 29.5833Z" fill="#F4A71D"/>
</svg>
