<svg width="40" height="40" viewBox="0 0 40 40" fill="none" xmlns="http://www.w3.org/2000/svg">
<path opacity="0.4" d="M26.9849 3.33334H13.0349C6.96822 3.33334 3.35156 6.95001 3.35156 13.0167V26.9667C3.35156 33.0333 6.96822 36.65 13.0349 36.65H26.9849C33.0515 36.65 36.6682 33.0333 36.6682 26.9667V13.0167C36.6682 6.95001 33.0515 3.33334 26.9849 3.33334Z" fill="#0A0A68"/>
<path d="M14.699 26.7C14.3823 26.7 14.0656 26.5833 13.8156 26.3333C13.3323 25.85 13.3323 25.05 13.8156 24.5667L24.7323 13.65C25.2156 13.1667 26.0156 13.1667 26.4989 13.65C26.9823 14.1333 26.9823 14.9333 26.4989 15.4167L15.5823 26.3333C15.3323 26.5833 15.0156 26.7 14.699 26.7Z" fill="#0A0A68"/>
<path d="M15.3847 12.7667C14.0347 12.7667 12.918 13.8667 12.918 15.2333C12.918 16.5833 14.018 17.7 15.3847 17.7C16.7347 17.7 17.8513 16.6 17.8513 15.2333C17.8346 13.8667 16.7347 12.7667 15.3847 12.7667Z" fill="#0A0A68"/>
<path d="M26.283 22.3167C24.933 22.3167 23.8164 23.4166 23.8164 24.7833C23.8164 26.1333 24.9164 27.25 26.283 27.25C27.633 27.25 28.7497 26.15 28.7497 24.7833C28.7497 23.4166 27.6497 22.3167 26.283 22.3167Z" fill="#0A0A68"/>
</svg>
