<svg width="34" height="34" viewBox="0 0 34 34" fill="none" xmlns="http://www.w3.org/2000/svg">
<path fill-rule="evenodd" clip-rule="evenodd" d="M17 7.20001C17.9246 7.1998 18.8326 7.44573 19.6308 7.91255C20.4289 8.37937 21.0884 9.05025 21.5414 9.85626C21.9945 10.6623 22.2248 11.5744 22.2088 12.4989C22.1927 13.4234 21.9308 14.3269 21.45 15.1167H22.1467C23.9067 15.1167 25.3333 16.5433 25.3333 18.3033V18.4667C25.3333 20.6768 24.4553 22.7964 22.8925 24.3592C21.3297 25.922 19.2101 26.8 17 26.8C14.7899 26.8 12.6702 25.922 11.1074 24.3592C9.54463 22.7964 8.66666 20.6768 8.66666 18.4667V18.3033C8.66666 16.5433 10.0933 15.1167 11.8533 15.1167H12.55C12.0692 14.3269 11.8073 13.4234 11.7912 12.4989C11.7752 11.5744 12.0055 10.6623 12.4586 9.85626C12.9116 9.05025 13.5711 8.37937 14.3692 7.91255C15.1673 7.44573 16.0754 7.1998 17 7.20001Z" fill="#F4A71D" fill-opacity="0.4"/>
<path fill-rule="evenodd" clip-rule="evenodd" d="M22 1.58334C22 1.25182 22.1317 0.93388 22.3661 0.69946C22.6005 0.465039 22.9185 0.333344 23.25 0.333344H25.75C26.7896 0.333344 27.8191 0.538114 28.7796 0.935964C29.7401 1.33381 30.6128 1.91695 31.3479 2.65208C32.0831 3.38721 32.6662 4.25994 33.064 5.22043C33.4619 6.18093 33.6667 7.21038 33.6667 8.25001V10.75C33.6667 11.0815 33.535 11.3995 33.3005 11.6339C33.0661 11.8683 32.7482 12 32.4167 12C32.0851 12 31.7672 11.8683 31.5328 11.6339C31.2984 11.3995 31.1667 11.0815 31.1667 10.75V8.25001C31.1667 6.81342 30.596 5.43567 29.5802 4.41985C28.5643 3.40403 27.1866 2.83334 25.75 2.83334H23.25C22.9185 2.83334 22.6005 2.70165 22.3661 2.46723C22.1317 2.23281 22 1.91486 22 1.58334ZM12 1.58334C12 1.25182 11.8683 0.93388 11.6339 0.69946C11.3995 0.465039 11.0815 0.333344 10.75 0.333344H8.25C6.15036 0.333344 4.13673 1.16742 2.65207 2.65208C1.1674 4.13674 0.333328 6.15038 0.333328 8.25001V10.75C0.333328 11.0815 0.465024 11.3995 0.699445 11.6339C0.933865 11.8683 1.25181 12 1.58333 12C1.91485 12 2.23279 11.8683 2.46721 11.6339C2.70163 11.3995 2.83333 11.0815 2.83333 10.75V8.25001C2.83333 6.81342 3.40401 5.43567 4.41983 4.41985C5.43566 3.40403 6.81341 2.83334 8.25 2.83334H10.75C11.0815 2.83334 11.3995 2.70165 11.6339 2.46723C11.8683 2.23281 12 1.91486 12 1.58334ZM22 32.4167C22 33.1067 22.56 33.6667 23.25 33.6667H25.75C26.7896 33.6667 27.8191 33.4619 28.7796 33.0641C29.7401 32.6662 30.6128 32.0831 31.3479 31.3479C32.0831 30.6128 32.6662 29.7401 33.064 28.7796C33.4619 27.8191 33.6667 26.7896 33.6667 25.75V23.25C33.6667 22.9185 33.535 22.6005 33.3005 22.3661C33.0661 22.1317 32.7482 22 32.4167 22C32.0851 22 31.7672 22.1317 31.5328 22.3661C31.2984 22.6005 31.1667 22.9185 31.1667 23.25V25.75C31.1667 27.1866 30.596 28.5644 29.5802 29.5802C28.5643 30.596 27.1866 31.1667 25.75 31.1667H23.25C22.9185 31.1667 22.6005 31.2984 22.3661 31.5328C22.1317 31.7672 22 32.0852 22 32.4167ZM12 32.4167C12 32.7482 11.8683 33.0661 11.6339 33.3006C11.3995 33.535 11.0815 33.6667 10.75 33.6667H8.25C6.15036 33.6667 4.13673 32.8326 2.65207 31.3479C1.1674 29.8633 0.333328 27.8496 0.333328 25.75V23.25C0.333328 22.9185 0.465024 22.6005 0.699445 22.3661C0.933865 22.1317 1.25181 22 1.58333 22C1.91485 22 2.23279 22.1317 2.46721 22.3661C2.70163 22.6005 2.83333 22.9185 2.83333 23.25V25.75C2.83333 27.1866 3.40401 28.5644 4.41983 29.5802C5.43566 30.596 6.81341 31.1667 8.25 31.1667H10.75C11.0815 31.1667 11.3995 31.2984 11.6339 31.5328C11.8683 31.7672 12 32.0852 12 32.4167ZM17 7.20001C17.9246 7.19979 18.8326 7.44573 19.6308 7.91255C20.4289 8.37937 21.0884 9.05024 21.5414 9.85626C21.9945 10.6623 22.2248 11.5744 22.2088 12.4989C22.1927 13.4233 21.9308 14.3269 21.45 15.1167H22.1467C23.9067 15.1167 25.3333 16.5433 25.3333 18.3033V18.4667C25.3333 20.6768 24.4554 22.7964 22.8926 24.3592C21.3298 25.922 19.2101 26.8 17 26.8C14.7899 26.8 12.6702 25.922 11.1074 24.3592C9.54464 22.7964 8.66666 20.6768 8.66666 18.4667V18.3033C8.66666 16.5433 10.0933 15.1167 11.8533 15.1167H12.55C12.0692 14.3269 11.8073 13.4233 11.7912 12.4989C11.7752 11.5744 12.0055 10.6623 12.4586 9.85626C12.9116 9.05024 13.5711 8.37937 14.3692 7.91255C15.1674 7.44573 16.0754 7.19979 17 7.20001ZM17 15.1167C17.7183 15.1167 18.4072 14.8313 18.9151 14.3234C19.423 13.8155 19.7083 13.1266 19.7083 12.4083C19.7083 11.69 19.423 11.0012 18.9151 10.4933C18.4072 9.98535 17.7183 9.70001 17 9.70001C16.2817 9.70001 15.5928 9.98535 15.0849 10.4933C14.577 11.0012 14.2917 11.69 14.2917 12.4083C14.2917 13.1266 14.577 13.8155 15.0849 14.3234C15.5928 14.8313 16.2817 15.1167 17 15.1167ZM22.1467 17.6167H11.8533C11.7632 17.6167 11.6739 17.6344 11.5906 17.6689C11.5072 17.7035 11.4315 17.754 11.3678 17.8178C11.304 17.8816 11.2534 17.9573 11.2189 18.0406C11.1844 18.1239 11.1667 18.2132 11.1667 18.3033V18.4667C11.1667 19.2327 11.3175 19.9913 11.6107 20.699C11.9039 21.4067 12.3335 22.0498 12.8752 22.5915C13.4169 23.1331 14.0599 23.5628 14.7677 23.856C15.4754 24.1491 16.234 24.3 17 24.3C17.766 24.3 18.5246 24.1491 19.2323 23.856C19.94 23.5628 20.5831 23.1331 21.1248 22.5915C21.6665 22.0498 22.0961 21.4067 22.3893 20.699C22.6824 19.9913 22.8333 19.2327 22.8333 18.4667V18.3033C22.8333 18.2132 22.8156 18.1239 22.7811 18.0406C22.7466 17.9573 22.696 17.8816 22.6322 17.8178C22.5684 17.754 22.4927 17.7035 22.4094 17.6689C22.3261 17.6344 22.2368 17.6167 22.1467 17.6167Z" fill="#F4A71D"/>
</svg>
