<svg width="40" height="40" viewBox="0 0 40 40" fill="none" xmlns="http://www.w3.org/2000/svg">
<path fill-rule="evenodd" clip-rule="evenodd" d="M19.9993 10.2C20.924 10.1998 21.832 10.4457 22.6301 10.9126C23.4283 11.3794 24.0877 12.0502 24.5408 12.8563C24.9939 13.6623 25.2242 14.5744 25.2081 15.4989C25.192 16.4234 24.9302 17.3269 24.4493 18.1167H25.146C26.906 18.1167 28.3327 19.5433 28.3327 21.3033V21.4667C28.3327 23.6768 27.4547 25.7964 25.8919 27.3592C24.3291 28.922 22.2095 29.8 19.9993 29.8C17.7892 29.8 15.6696 28.922 14.1068 27.3592C12.544 25.7964 11.666 23.6768 11.666 21.4667V21.3033C11.666 19.5433 13.0927 18.1167 14.8527 18.1167H15.5493C15.0685 17.3269 14.8067 16.4234 14.7906 15.4989C14.7745 14.5744 15.0048 13.6623 15.4579 12.8563C15.911 12.0502 16.5704 11.3794 17.3686 10.9126C18.1667 10.4457 19.0747 10.1998 19.9993 10.2Z" fill="#0A0A68" fill-opacity="0.4"/>
<path fill-rule="evenodd" clip-rule="evenodd" d="M24.9997 4.58334C24.9997 4.25182 25.1314 3.93388 25.3658 3.69946C25.6002 3.46504 25.9182 3.33334 26.2497 3.33334H28.7497C29.7893 3.33334 30.8188 3.53811 31.7793 3.93596C32.7397 4.33381 33.6125 4.91695 34.3476 5.65208C35.0827 6.38721 35.6659 7.25994 36.0637 8.22043C36.4616 9.18093 36.6663 10.2104 36.6663 11.25V13.75C36.6663 14.0815 36.5346 14.3995 36.3002 14.6339C36.0658 14.8683 35.7479 15 35.4163 15C35.0848 15 34.7669 14.8683 34.5325 14.6339C34.298 14.3995 34.1663 14.0815 34.1663 13.75V11.25C34.1663 9.81342 33.5957 8.43567 32.5798 7.41985C31.564 6.40403 30.1863 5.83334 28.7497 5.83334H26.2497C25.9182 5.83334 25.6002 5.70165 25.3658 5.46723C25.1314 5.23281 24.9997 4.91486 24.9997 4.58334ZM14.9997 4.58334C14.9997 4.25182 14.868 3.93388 14.6336 3.69946C14.3991 3.46504 14.0812 3.33334 13.7497 3.33334H11.2497C9.15004 3.33334 7.13641 4.16742 5.65175 5.65208C4.16708 7.13674 3.33301 9.15038 3.33301 11.25V13.75C3.33301 14.0815 3.4647 14.3995 3.69912 14.6339C3.93354 14.8683 4.25149 15 4.58301 15C4.91453 15 5.23247 14.8683 5.46689 14.6339C5.70131 14.3995 5.83301 14.0815 5.83301 13.75V11.25C5.83301 9.81342 6.40369 8.43567 7.41951 7.41985C8.43534 6.40403 9.81309 5.83334 11.2497 5.83334H13.7497C14.0812 5.83334 14.3991 5.70165 14.6336 5.46723C14.868 5.23281 14.9997 4.91486 14.9997 4.58334ZM24.9997 35.4167C24.9997 36.1067 25.5597 36.6667 26.2497 36.6667H28.7497C29.7893 36.6667 30.8188 36.4619 31.7793 36.0641C32.7397 35.6662 33.6125 35.0831 34.3476 34.3479C35.0827 33.6128 35.6659 32.7401 36.0637 31.7796C36.4616 30.8191 36.6663 29.7896 36.6663 28.75V26.25C36.6663 25.9185 36.5346 25.6005 36.3002 25.3661C36.0658 25.1317 35.7479 25 35.4163 25C35.0848 25 34.7669 25.1317 34.5325 25.3661C34.298 25.6005 34.1663 25.9185 34.1663 26.25V28.75C34.1663 30.1866 33.5957 31.5644 32.5798 32.5802C31.564 33.596 30.1863 34.1667 28.7497 34.1667H26.2497C25.9182 34.1667 25.6002 34.2984 25.3658 34.5328C25.1314 34.7672 24.9997 35.0852 24.9997 35.4167ZM14.9997 35.4167C14.9997 35.7482 14.868 36.0661 14.6336 36.3006C14.3991 36.535 14.0812 36.6667 13.7497 36.6667H11.2497C9.15004 36.6667 7.13641 35.8326 5.65175 34.3479C4.16708 32.8633 3.33301 30.8496 3.33301 28.75V26.25C3.33301 25.9185 3.4647 25.6005 3.69912 25.3661C3.93354 25.1317 4.25149 25 4.58301 25C4.91453 25 5.23247 25.1317 5.46689 25.3661C5.70131 25.6005 5.83301 25.9185 5.83301 26.25V28.75C5.83301 30.1866 6.40369 31.5644 7.41951 32.5802C8.43534 33.596 9.81309 34.1667 11.2497 34.1667H13.7497C14.0812 34.1667 14.3991 34.2984 14.6336 34.5328C14.868 34.7672 14.9997 35.0852 14.9997 35.4167ZM19.9997 10.2C20.9243 10.1998 21.8323 10.4457 22.6304 10.9125C23.4286 11.3794 24.088 12.0502 24.5411 12.8563C24.9942 13.6623 25.2245 14.5744 25.2084 15.4989C25.1924 16.4233 24.9305 17.3269 24.4497 18.1167H25.1463C26.9063 18.1167 28.333 19.5433 28.333 21.3033V21.4667C28.333 23.6768 27.455 25.7964 25.8922 27.3592C24.3294 28.922 22.2098 29.8 19.9997 29.8C17.7895 29.8 15.6699 28.922 14.1071 27.3592C12.5443 25.7964 11.6663 23.6768 11.6663 21.4667V21.3033C11.6663 19.5433 13.093 18.1167 14.853 18.1167H15.5497C15.0689 17.3269 14.807 16.4233 14.7909 15.4989C14.7748 14.5744 15.0052 13.6623 15.4582 12.8563C15.9113 12.0502 16.5708 11.3794 17.3689 10.9125C18.167 10.4457 19.075 10.1998 19.9997 10.2ZM19.9997 18.1167C20.718 18.1167 21.4068 17.8313 21.9148 17.3234C22.4227 16.8155 22.708 16.1266 22.708 15.4083C22.708 14.69 22.4227 14.0012 21.9148 13.4933C21.4068 12.9854 20.718 12.7 19.9997 12.7C19.2814 12.7 18.5925 12.9854 18.0846 13.4933C17.5767 14.0012 17.2913 14.69 17.2913 15.4083C17.2913 16.1266 17.5767 16.8155 18.0846 17.3234C18.5925 17.8313 19.2814 18.1167 19.9997 18.1167ZM25.1463 20.6167H14.853C14.7628 20.6167 14.6735 20.6344 14.5902 20.6689C14.5069 20.7035 14.4312 20.754 14.3675 20.8178C14.3037 20.8816 14.2531 20.9573 14.2186 21.0406C14.1841 21.1239 14.1663 21.2132 14.1663 21.3033V21.4667C14.1663 22.2327 14.3172 22.9913 14.6104 23.699C14.9035 24.4067 15.3332 25.0498 15.8749 25.5915C16.4166 26.1331 17.0596 26.5628 17.7674 26.856C18.4751 27.1491 19.2336 27.3 19.9997 27.3C20.7657 27.3 21.5243 27.1491 22.232 26.856C22.9397 26.5628 23.5828 26.1331 24.1245 25.5915C24.6661 25.0498 25.0958 24.4067 25.389 23.699C25.6821 22.9913 25.833 22.2327 25.833 21.4667V21.3033C25.833 21.2132 25.8152 21.1239 25.7807 21.0406C25.7462 20.9573 25.6957 20.8816 25.6319 20.8178C25.5681 20.754 25.4924 20.7035 25.4091 20.6689C25.3258 20.6344 25.2365 20.6167 25.1463 20.6167Z" fill="#0A0A68"/>
</svg>
