<svg width="40" height="40" viewBox="0 0 40 40" fill="none" xmlns="http://www.w3.org/2000/svg">
<path opacity="0.4" d="M19.9997 3.33333C15.633 3.33333 12.083 6.88333 12.083 11.25C12.083 15.5333 15.433 19 19.7997 19.15C19.933 19.1333 20.0663 19.1333 20.1663 19.15C20.1997 19.15 20.2163 19.15 20.2497 19.15C20.2663 19.15 20.2663 19.15 20.283 19.15C24.5497 19 27.8997 15.5333 27.9163 11.25C27.9163 6.88333 24.3663 3.33333 19.9997 3.33333Z" fill="#0A0A68"/>
<path d="M28.4666 23.5831C23.8166 20.4831 16.2333 20.4831 11.5499 23.5831C9.43327 24.9998 8.2666 26.9165 8.2666 28.9665C8.2666 31.0165 9.43327 32.9165 11.5333 34.3165C13.8666 35.8831 16.9333 36.6665 19.9999 36.6665C23.0666 36.6665 26.1333 35.8831 28.4666 34.3165C30.5666 32.8998 31.7333 30.9998 31.7333 28.9331C31.7166 26.8831 30.5666 24.9831 28.4666 23.5831Z" fill="#0A0A68"/>
</svg>
