<svg width="40" height="40" viewBox="0 0 40 40" fill="none" xmlns="http://www.w3.org/2000/svg">
<path opacity="0.4" d="M20.0007 36.6667C29.2054 36.6667 36.6673 29.2048 36.6673 20C36.6673 10.7953 29.2054 3.33334 20.0007 3.33334C10.7959 3.33334 3.33398 10.7953 3.33398 20C3.33398 29.2048 10.7959 36.6667 20.0007 36.6667Z" fill="#F4A71D"/>
<path d="M20.0007 32.9167C12.884 32.9167 7.08398 27.1167 7.08398 20C7.08398 17.7333 7.68398 15.5167 8.80065 13.5667C9.15065 12.9667 9.9173 12.7667 10.5006 13.1L20.6173 18.9167C21.2173 19.2667 21.4173 20.0167 21.084 20.6167C20.734 21.2167 19.984 21.4167 19.384 21.0833L10.4173 15.9333C9.88398 17.2167 9.60067 18.6 9.60067 20C9.60067 25.75 14.2673 30.4167 20.0173 30.4167C25.7673 30.4167 30.434 25.75 30.434 20C30.434 14.25 25.7673 9.58334 20.0173 9.58334C17.7507 9.58334 15.584 10.3 13.7673 11.6667C13.2173 12.0833 12.434 11.9667 12.0173 11.4167C11.6006 10.8667 11.7173 10.0833 12.2673 9.66668C14.5173 7.98335 17.2007 7.08334 20.0173 7.08334C27.134 7.08334 32.934 12.8833 32.934 20C32.934 27.1167 27.1173 32.9167 20.0007 32.9167Z" fill="#F4A71D"/>
</svg>
