<svg width="58" height="58" viewBox="0 0 58 58" fill="none" xmlns="http://www.w3.org/2000/svg">
<path opacity="0.4" d="M20.9531 33.8333H9.66732C7.00898 33.8333 4.83398 36.0083 4.83398 38.6666V53.1666H20.9531V33.8333Z" fill="#F4A71D"/>
<path d="M32.2136 24.1667H25.7611C23.1027 24.1667 20.9277 26.3417 20.9277 29V53.1667H37.0469V29C37.0469 26.3417 34.8961 24.1667 32.2136 24.1667Z" fill="#F4A71D"/>
<path opacity="0.4" d="M48.3327 41.0833H37.0469V53.1666H53.166V45.9166C53.166 43.2583 50.991 41.0833 48.3327 41.0833Z" fill="#F4A71D"/>
<path d="M36.2736 11.7208C37.0227 10.9716 37.3127 10.0775 37.0711 9.30413C36.8294 8.5308 36.0802 7.97497 35.0169 7.80581L32.6969 7.41913C32.6002 7.39496 32.3827 7.24993 32.3344 7.15326L31.0536 4.5916C30.0869 2.6341 27.8877 2.6341 26.9211 4.5916L25.6402 7.15326C25.5919 7.24993 25.3744 7.39496 25.2777 7.41913L22.9577 7.80581C21.8944 7.97497 21.1694 8.5308 20.9036 9.30413C20.6619 10.0775 20.9519 10.9716 21.7011 11.7208L23.4894 13.5333C23.5619 13.6058 23.6586 13.8958 23.6344 13.9925L23.1269 16.2158C22.7402 17.8591 23.3686 18.6082 23.7794 18.9224C24.1902 19.2124 25.0844 19.5991 26.5586 18.7291L28.7336 17.4483C28.8302 17.3758 29.1444 17.3758 29.2411 17.4483L31.4161 18.7291C32.0927 19.1399 32.6486 19.2608 33.0836 19.2608C33.5911 19.2608 33.9536 19.0674 34.1711 18.9224C34.5819 18.6324 35.2102 17.8833 34.8236 16.2158L34.3161 13.9925C34.2919 13.8716 34.3644 13.6058 34.4611 13.5333L36.2736 11.7208Z" fill="#F4A71D"/>
</svg>
