<svg width="40" height="40" viewBox="0 0 40 40" fill="none" xmlns="http://www.w3.org/2000/svg">
<path opacity="0.4" d="M17.9167 4.08333C19.0667 3.09999 20.95 3.09999 22.1167 4.08333L24.75 6.34999C25.25 6.78333 26.1833 7.13333 26.85 7.13333H29.6833C31.45 7.13333 32.9 8.58333 32.9 10.35V13.1833C32.9 13.8333 33.25 14.7833 33.6833 15.2833L35.95 17.9167C36.9333 19.0667 36.9333 20.95 35.95 22.1167L33.6833 24.75C33.25 25.25 32.9 26.1833 32.9 26.85V29.6833C32.9 31.45 31.45 32.9 29.6833 32.9H26.85C26.2 32.9 25.25 33.25 24.75 33.6833L22.1167 35.95C20.9667 36.9333 19.0833 36.9333 17.9167 35.95L15.2833 33.6833C14.7833 33.25 13.85 32.9 13.1833 32.9H10.3C8.53334 32.9 7.08334 31.45 7.08334 29.6833V26.8333C7.08334 26.1833 6.73334 25.25 6.31667 24.75L4.06667 22.1C3.10001 20.95 3.10001 19.0833 4.06667 17.9333L6.31667 15.2833C6.73334 14.7833 7.08334 13.85 7.08334 13.2V10.3333C7.08334 8.56666 8.53334 7.11666 10.3 7.11666H13.1833C13.8333 7.11666 14.7833 6.76666 15.2833 6.33333L17.9167 4.08333Z" fill="#0A0A68"/>
<path d="M17.9833 25.2833C17.65 25.2833 17.3333 25.15 17.1 24.9167L13.0667 20.8833C12.5833 20.4 12.5833 19.6 13.0667 19.1167C13.55 18.6333 14.35 18.6333 14.8333 19.1167L17.9833 22.2667L25.15 15.1C25.6333 14.6167 26.4333 14.6167 26.9167 15.1C27.4 15.5833 27.4 16.3833 26.9167 16.8667L18.8667 24.9167C18.6333 25.15 18.3167 25.2833 17.9833 25.2833Z" fill="#0A0A68"/>
</svg>
