<svg width="40" height="40" viewBox="0 0 40 40" fill="none" xmlns="http://www.w3.org/2000/svg">
<path opacity="0.4" d="M17.9166 4.08333C19.0666 3.09999 20.9499 3.09999 22.1166 4.08333L24.7499 6.34999C25.2499 6.78333 26.1832 7.13333 26.8499 7.13333H29.6832C31.4499 7.13333 32.8999 8.58333 32.8999 10.35V13.1833C32.8999 13.8333 33.2499 14.7833 33.6832 15.2833L35.9499 17.9167C36.9332 19.0667 36.9332 20.95 35.9499 22.1167L33.6832 24.75C33.2499 25.25 32.8999 26.1833 32.8999 26.85V29.6833C32.8999 31.45 31.4499 32.9 29.6832 32.9H26.8499C26.1999 32.9 25.2499 33.25 24.7499 33.6833L22.1166 35.95C20.9666 36.9333 19.0832 36.9333 17.9166 35.95L15.2832 33.6833C14.7832 33.25 13.8499 32.9 13.1832 32.9H10.2999C8.53322 32.9 7.08322 31.45 7.08322 29.6833V26.8333C7.08322 26.1833 6.73322 25.25 6.31655 24.75L4.06655 22.1C3.09989 20.95 3.09989 19.0833 4.06655 17.9333L6.31655 15.2833C6.73322 14.7833 7.08322 13.85 7.08322 13.2V10.3333C7.08322 8.56666 8.53322 7.11666 10.2999 7.11666H13.1832C13.8332 7.11666 14.7832 6.76666 15.2832 6.33333L17.9166 4.08333Z" fill="#FF0000"/>
<path d="M17.9833 25.2833C17.6499 25.2833 17.3333 25.15 17.0999 24.9167L13.0666 20.8833C12.5833 20.4 12.5833 19.6 13.0666 19.1167C13.5499 18.6333 14.3499 18.6333 14.8333 19.1167L17.9833 22.2667L25.1499 15.1C25.6333 14.6167 26.4333 14.6167 26.9166 15.1C27.3999 15.5833 27.3999 16.3833 26.9166 16.8667L18.8666 24.9167C18.6333 25.15 18.3166 25.2833 17.9833 25.2833Z" fill="#FF0000"/>
</svg>
