<svg width="40" height="40" viewBox="0 0 40 40" fill="none" xmlns="http://www.w3.org/2000/svg">
<path opacity="0.4" d="M26.9829 3.33333H13.0329C6.96627 3.33333 3.34961 6.94999 3.34961 13.0167V26.9666C3.34961 33.0333 6.96627 36.65 13.0329 36.65H26.9829C33.0496 36.65 36.6663 33.0333 36.6663 26.9666V13.0167C36.6663 6.94999 33.0496 3.33333 26.9829 3.33333Z" fill="#F4A71D"/>
<path d="M10 24.8157C9.31667 24.8157 8.75 24.249 8.75 23.5657V16.4157C8.75 15.7324 9.31667 15.1657 10 15.1657C10.6833 15.1657 11.25 15.7324 11.25 16.4157V23.5657C11.25 24.2657 10.6833 24.8157 10 24.8157Z" fill="#F4A71D"/>
<path d="M15 27.1989C14.3167 27.1989 13.75 26.6322 13.75 25.9489V14.0488C13.75 13.3655 14.3167 12.7988 15 12.7988C15.6833 12.7988 16.25 13.3655 16.25 14.0488V25.9489C16.25 26.6489 15.6833 27.1989 15 27.1989Z" fill="#F4A71D"/>
<path d="M20 29.5827C19.3167 29.5827 18.75 29.016 18.75 28.3327V11.666C18.75 10.9827 19.3167 10.416 20 10.416C20.6833 10.416 21.25 10.9827 21.25 11.666V28.3327C21.25 29.016 20.6833 29.5827 20 29.5827Z" fill="#F4A71D"/>
<path d="M25 27.1989C24.3167 27.1989 23.75 26.6322 23.75 25.9489V14.0488C23.75 13.3655 24.3167 12.7988 25 12.7988C25.6833 12.7988 26.25 13.3655 26.25 14.0488V25.9489C26.25 26.6489 25.6833 27.1989 25 27.1989Z" fill="#F4A71D"/>
<path d="M30 24.8157C29.3167 24.8157 28.75 24.249 28.75 23.5657V16.4157C28.75 15.7324 29.3167 15.1657 30 15.1657C30.6833 15.1657 31.25 15.7324 31.25 16.4157V23.5657C31.25 24.2657 30.6833 24.8157 30 24.8157Z" fill="#F4A71D"/>
</svg>
