<svg width="40" height="40" viewBox="0 0 40 40" fill="none" xmlns="http://www.w3.org/2000/svg">
<path d="M36.6677 18.2839V21.7173C36.6677 22.634 35.9343 23.3839 35.001 23.4173H31.7343C29.9343 23.4173 28.2843 22.1006 28.1343 20.3006C28.0343 19.2506 28.4343 18.2673 29.1343 17.5839C29.751 16.9506 30.601 16.584 31.5343 16.584H35.001C35.9343 16.6173 36.6677 17.3672 36.6677 18.2839Z" fill="#F4A71D"/>
<path opacity="0.4" d="M29.134 17.583C28.434 18.2663 28.034 19.2497 28.134 20.2997C28.284 22.0997 29.9339 23.4163 31.7339 23.4163H35.0007V25.833C35.0007 30.833 31.6673 34.1663 26.6673 34.1663H11.6673C6.66732 34.1663 3.33398 30.833 3.33398 25.833V14.1663C3.33398 9.63301 6.06732 6.46634 10.3173 5.933C10.7507 5.86634 11.2007 5.83301 11.6673 5.83301H26.6673C27.1007 5.83301 27.5173 5.84965 27.9173 5.91632C32.2173 6.41632 35.0007 9.59967 35.0007 14.1663V16.583H31.534C30.6006 16.583 29.7506 16.9497 29.134 17.583Z" fill="#F4A71D"/>
<path d="M21.668 16.25H11.668C10.9846 16.25 10.418 15.6833 10.418 15C10.418 14.3167 10.9846 13.75 11.668 13.75H21.668C22.3513 13.75 22.918 14.3167 22.918 15C22.918 15.6833 22.3513 16.25 21.668 16.25Z" fill="#F4A71D"/>
</svg>
