<svg width="14" height="16" viewBox="0 0 14 16" fill="none" xmlns="http://www.w3.org/2000/svg">
<path d="M0 14.5V6H14V14.5C14 15.3438 13.3125 16 12.5 16H1.5C0.65625 16 0 15.3438 0 14.5ZM10 8.375V9.625C10 9.84375 10.1562 10 10.375 10H11.625C11.8125 10 12 9.84375 12 9.625V8.375C12 8.1875 11.8125 8 11.625 8H10.375C10.1562 8 10 8.1875 10 8.375ZM10 12.375V13.625C10 13.8438 10.1562 14 10.375 14H11.625C11.8125 14 12 13.8438 12 13.625V12.375C12 12.1875 11.8125 12 11.625 12H10.375C10.1562 12 10 12.1875 10 12.375ZM6 8.375V9.625C6 9.84375 6.15625 10 6.375 10H7.625C7.8125 10 8 9.84375 8 9.625V8.375C8 8.1875 7.8125 8 7.625 8H6.375C6.15625 8 6 8.1875 6 8.375ZM6 12.375V13.625C6 13.8438 6.15625 14 6.375 14H7.625C7.8125 14 8 13.8438 8 13.625V12.375C8 12.1875 7.8125 12 7.625 12H6.375C6.15625 12 6 12.1875 6 12.375ZM2 8.375V9.625C2 9.84375 2.15625 10 2.375 10H3.625C3.8125 10 4 9.84375 4 9.625V8.375C4 8.1875 3.8125 8 3.625 8H2.375C2.15625 8 2 8.1875 2 8.375ZM2 12.375V13.625C2 13.8438 2.15625 14 2.375 14H3.625C3.8125 14 4 13.8438 4 13.625V12.375C4 12.1875 3.8125 12 3.625 12H2.375C2.15625 12 2 12.1875 2 12.375ZM12.5 2C13.3125 2 14 2.6875 14 3.5V5H0V3.5C0 2.6875 0.65625 2 1.5 2H3V0.5C3 0.25 3.21875 0 3.5 0H4.5C4.75 0 5 0.25 5 0.5V2H9V0.5C9 0.25 9.21875 0 9.5 0H10.5C10.75 0 11 0.25 11 0.5V2H12.5Z" fill="#F4A71D"/>
</svg>
