<svg width="24" height="24" viewBox="0 0 24 24" fill="none" xmlns="http://www.w3.org/2000/svg">
<path d="M9.46998 15.2799C9.27998 15.2799 9.08998 15.2099 8.93998 15.0599C8.11998 14.2399 7.66998 13.1499 7.66998 11.9999C7.66998 9.60992 9.60998 7.66992 12 7.66992C13.15 7.66992 14.24 8.11992 15.06 8.93992C15.2 9.07992 15.28 9.26992 15.28 9.46992C15.28 9.66992 15.2 9.85992 15.06 9.99992L9.99998 15.0599C9.84998 15.2099 9.65998 15.2799 9.46998 15.2799ZM12 9.16992C10.44 9.16992 9.16998 10.4399 9.16998 11.9999C9.16998 12.4999 9.29998 12.9799 9.53998 13.3999L13.4 9.53992C12.98 9.29992 12.5 9.16992 12 9.16992Z" fill="#717171"/>
<path d="M5.60003 18.5105C5.43003 18.5105 5.25003 18.4505 5.11003 18.3305C4.04003 17.4205 3.08003 16.3005 2.26003 15.0005C1.20003 13.3505 1.20003 10.6605 2.26003 9.00047C4.70003 5.18047 8.25003 2.98047 12 2.98047C14.2 2.98047 16.37 3.74047 18.27 5.17047C18.6 5.42047 18.67 5.89047 18.42 6.22047C18.17 6.55047 17.7 6.62047 17.37 6.37047C15.73 5.13047 13.87 4.48047 12 4.48047C8.77003 4.48047 5.68003 6.42047 3.52003 9.81047C2.77003 10.9805 2.77003 13.0205 3.52003 14.1905C4.27003 15.3605 5.13003 16.3705 6.08003 17.1905C6.39003 17.4605 6.43003 17.9305 6.16003 18.2505C6.02003 18.4205 5.81003 18.5105 5.60003 18.5105Z" fill="#717171"/>
<path d="M12 21.0205C10.67 21.0205 9.37 20.7505 8.12 20.2205C7.74 20.0605 7.56 19.6205 7.72 19.2405C7.88 18.8605 8.32 18.6805 8.7 18.8405C9.76 19.2905 10.87 19.5205 11.99 19.5205C15.22 19.5205 18.31 17.5805 20.47 14.1905C21.22 13.0205 21.22 10.9805 20.47 9.81049C20.16 9.32049 19.82 8.85049 19.46 8.41049C19.2 8.09049 19.25 7.62049 19.57 7.35049C19.89 7.09049 20.36 7.13049 20.63 7.46049C21.02 7.94049 21.4 8.46049 21.74 9.00049C22.8 10.6505 22.8 13.3405 21.74 15.0005C19.3 18.8205 15.75 21.0205 12 21.0205Z" fill="#717171"/>
<path d="M12.69 16.2703C12.34 16.2703 12.02 16.0203 11.95 15.6603C11.87 15.2503 12.14 14.8603 12.55 14.7903C13.65 14.5903 14.57 13.6703 14.77 12.5703C14.85 12.1603 15.24 11.9003 15.65 11.9703C16.06 12.0503 16.33 12.4403 16.25 12.8503C15.93 14.5803 14.55 15.9503 12.83 16.2703C12.78 16.2603 12.74 16.2703 12.69 16.2703Z" fill="#717171"/>
<path d="M2 22.7497C1.81 22.7497 1.62 22.6797 1.47 22.5297C1.18 22.2397 1.18 21.7597 1.47 21.4697L8.94 13.9997C9.23 13.7097 9.71 13.7097 10 13.9997C10.29 14.2897 10.29 14.7697 10 15.0597L2.53 22.5297C2.38 22.6797 2.19 22.7497 2 22.7497Z" fill="#717171"/>
<path d="M14.53 10.2204C14.34 10.2204 14.15 10.1504 14 10.0004C13.71 9.71043 13.71 9.23043 14 8.94043L21.47 1.47043C21.76 1.18043 22.24 1.18043 22.53 1.47043C22.82 1.76043 22.82 2.24043 22.53 2.53043L15.06 10.0004C14.91 10.1504 14.72 10.2204 14.53 10.2204Z" fill="#717171"/>
</svg>
