<svg width="20" height="20" viewBox="0 0 20 20" fill="none" xmlns="http://www.w3.org/2000/svg">
<path fill-rule="evenodd" clip-rule="evenodd" d="M13.2588 11.9387C13.1566 12.1108 13.0407 12.2744 12.9123 12.4281C12.8984 12.4437 12.8878 12.462 12.8812 12.4818C12.8745 12.5016 12.8718 12.5225 12.8734 12.5433C12.875 12.5642 12.8807 12.5845 12.8903 12.6031C12.8998 12.6217 12.913 12.6382 12.929 12.6516C12.9451 12.665 12.9636 12.675 12.9836 12.6811C13.0036 12.6872 13.0246 12.6892 13.0454 12.6871C13.0662 12.6849 13.0863 12.6786 13.1046 12.6685C13.1229 12.6584 13.139 12.6448 13.152 12.6284C13.2929 12.4596 13.4179 12.2827 13.5276 12.0987C13.5488 12.063 13.555 12.0204 13.5448 11.9802C13.5346 11.94 13.5088 11.9055 13.4732 11.8843C13.4376 11.8631 13.395 11.8569 13.3548 11.8671C13.3145 11.8773 13.28 11.903 13.2588 11.9387ZM13.6998 10.8277C13.6561 11.0231 13.5972 11.2147 13.5235 11.4009C13.5159 11.4199 13.5122 11.4403 13.5125 11.4609C13.5128 11.4814 13.5172 11.5017 13.5253 11.5205C13.5334 11.5394 13.5452 11.5564 13.56 11.5707C13.5747 11.585 13.5921 11.5963 13.6112 11.6038C13.6303 11.6114 13.6506 11.6151 13.6712 11.6148C13.6917 11.6145 13.712 11.6102 13.7308 11.602C13.7497 11.5939 13.7667 11.5821 13.781 11.5674C13.7953 11.5527 13.8066 11.5353 13.8141 11.5162C13.8945 11.3137 13.9579 11.1062 14.0048 10.8956C14.0129 10.8554 14.005 10.8137 13.9827 10.7794C13.9604 10.745 13.9255 10.7208 13.8856 10.7119C13.8456 10.703 13.8037 10.7102 13.769 10.7318C13.7342 10.7535 13.7094 10.7879 13.6998 10.8277ZM13.7729 9.63431C13.792 9.83368 13.7954 10.034 13.7832 10.234C13.7816 10.2547 13.7841 10.2755 13.7906 10.2951C13.7971 10.3148 13.8075 10.333 13.8211 10.3487C13.8347 10.3643 13.8513 10.3771 13.8699 10.3863C13.8885 10.3954 13.9088 10.4008 13.9294 10.4021C13.9501 10.4033 13.9709 10.4005 13.9905 10.3936C14.01 10.3868 14.0281 10.3761 14.0435 10.3623C14.0589 10.3484 14.0714 10.3316 14.0803 10.3128C14.0891 10.2941 14.0942 10.2738 14.0951 10.2531C14.1085 10.0368 14.1048 9.81993 14.0838 9.6043C14.0824 9.58347 14.0768 9.56314 14.0674 9.5445C14.058 9.52587 14.0449 9.50931 14.029 9.49581C14.013 9.48231 13.9946 9.47215 13.9746 9.46591C13.9547 9.45967 13.9337 9.45749 13.9129 9.45949C13.8922 9.4615 13.872 9.46765 13.8536 9.47758C13.8352 9.48752 13.8191 9.50103 13.806 9.51733C13.7929 9.53362 13.7833 9.55237 13.7776 9.57246C13.7719 9.59256 13.7703 9.61358 13.7729 9.63431ZM13.4726 8.47712C13.5532 8.66149 13.6185 8.85087 13.6685 9.04368C13.6789 9.08379 13.7048 9.11813 13.7405 9.13914C13.7763 9.16015 13.8189 9.16611 13.859 9.15571C13.8991 9.14531 13.9334 9.1194 13.9544 9.08368C13.9755 9.04796 13.9814 9.00536 13.971 8.96524C13.917 8.75649 13.846 8.55118 13.7588 8.3518C13.7508 8.33277 13.739 8.31552 13.7242 8.30106C13.7094 8.2866 13.6919 8.27522 13.6727 8.26757C13.6535 8.25993 13.633 8.25617 13.6123 8.25652C13.5916 8.25687 13.5712 8.26132 13.5523 8.26961C13.5334 8.27791 13.5162 8.28987 13.502 8.30483C13.4877 8.31978 13.4765 8.33742 13.4691 8.35672C13.4617 8.37602 13.4582 8.3966 13.4588 8.41727C13.4594 8.43793 13.4641 8.45828 13.4726 8.47712ZM12.8254 7.47212C12.9607 7.62337 13.082 7.78274 13.1891 7.94899C13.2 7.96679 13.2143 7.98224 13.2312 7.99442C13.2482 8.0066 13.2673 8.01528 13.2877 8.01993C13.308 8.02458 13.329 8.02512 13.3496 8.02151C13.3701 8.0179 13.3897 8.01021 13.4072 7.99891C13.4248 7.9876 13.4398 7.97291 13.4516 7.95568C13.4633 7.93846 13.4715 7.91906 13.4757 7.89862C13.4798 7.87819 13.4798 7.85713 13.4757 7.83669C13.4716 7.81625 13.4634 7.79685 13.4516 7.77962C13.336 7.59993 13.2048 7.42712 13.0579 7.26368C13.0445 7.24747 13.0279 7.23413 13.0092 7.22447C12.9905 7.21481 12.9701 7.20903 12.9491 7.20746C12.9281 7.2059 12.907 7.20859 12.8871 7.21537C12.8672 7.22216 12.8489 7.23289 12.8332 7.24694C12.8175 7.26099 12.8049 7.27805 12.796 7.29711C12.787 7.31617 12.7821 7.33684 12.7813 7.35787C12.7806 7.37889 12.7841 7.39985 12.7917 7.41949C12.7993 7.43912 12.8107 7.45702 12.8254 7.47212Z" fill="black"/>
<path fill-rule="evenodd" clip-rule="evenodd" d="M10.0002 4.6877C7.06801 4.6877 4.6877 7.06801 4.6877 10.0002C4.6877 12.9324 7.06801 15.3127 10.0002 15.3127C12.9324 15.3127 15.3127 12.9324 15.3127 10.0002C15.3127 7.06801 12.9324 4.6877 10.0002 4.6877ZM10.3127 5.32301C12.7543 5.48395 14.6877 7.51801 14.6877 10.0002C14.6877 12.4824 12.7543 14.5164 10.3127 14.6774V5.32301ZM9.11301 1.82489V3.26176C9.11915 3.49298 9.21531 3.71267 9.38102 3.87404C9.54673 4.03541 9.7689 4.12571 10.0002 4.12571C10.2315 4.12571 10.4537 4.03541 10.6194 3.87404C10.7851 3.71267 10.8813 3.49298 10.8874 3.26176V1.82489C10.8813 1.59367 10.7851 1.37398 10.6194 1.21261C10.4537 1.05124 10.2315 0.960937 10.0002 0.960938C9.7689 0.960937 9.54673 1.05124 9.38102 1.21261C9.21531 1.37398 9.11915 1.59367 9.11301 1.82489ZM15.1536 3.59208L14.1377 4.60801C13.7915 4.95426 13.7915 5.51645 14.1377 5.8627C14.484 6.20895 15.0461 6.20895 15.3924 5.8627L16.4083 4.84676C16.7546 4.50051 16.7546 3.93833 16.4083 3.59208C16.0621 3.24583 15.4999 3.24583 15.1536 3.59208ZM18.1755 9.11301H16.7386C16.5074 9.11915 16.2877 9.21531 16.1264 9.38102C15.965 9.54673 15.8747 9.7689 15.8747 10.0002C15.8747 10.2315 15.965 10.4537 16.1264 10.6194C16.2877 10.7851 16.5074 10.8813 16.7386 10.8874H18.1755C18.4067 10.8813 18.6264 10.7851 18.7878 10.6194C18.9492 10.4537 19.0395 10.2315 19.0395 10.0002C19.0395 9.7689 18.9492 9.54673 18.7878 9.38102C18.6264 9.21531 18.4067 9.11915 18.1755 9.11301ZM16.4083 15.1536L15.3924 14.1377C15.0461 13.7915 14.484 13.7915 14.1377 14.1377C13.7915 14.484 13.7915 15.0461 14.1377 15.3924L15.1536 16.4083C15.4999 16.7546 16.0621 16.7546 16.4083 16.4083C16.7546 16.0621 16.7546 15.4999 16.4083 15.1536ZM10.8874 18.1755V16.7386C10.8813 16.5074 10.7851 16.2877 10.6194 16.1264C10.4537 15.965 10.2315 15.8747 10.0002 15.8747C9.7689 15.8747 9.54673 15.965 9.38102 16.1264C9.21531 16.2877 9.11915 16.5074 9.11301 16.7386V18.1755C9.11915 18.4067 9.21531 18.6264 9.38102 18.7878C9.54673 18.9492 9.7689 19.0395 10.0002 19.0395C10.2315 19.0395 10.4537 18.9492 10.6194 18.7878C10.7851 18.6264 10.8813 18.4067 10.8874 18.1755ZM4.84676 16.4083L5.8627 15.3924C6.20895 15.0461 6.20895 14.484 5.8627 14.1377C5.51645 13.7915 4.95426 13.7915 4.60801 14.1377L3.59208 15.1536C3.24583 15.4999 3.24583 16.0621 3.59208 16.4083C3.93833 16.7546 4.50051 16.7546 4.84676 16.4083ZM1.82489 10.8874H3.26176C3.49298 10.8813 3.71267 10.7851 3.87404 10.6194C4.03541 10.4537 4.12571 10.2315 4.12571 10.0002C4.12571 9.7689 4.03541 9.54673 3.87404 9.38102C3.71267 9.21531 3.49298 9.11915 3.26176 9.11301H1.82489C1.59367 9.11915 1.37398 9.21531 1.21261 9.38102C1.05124 9.54673 0.960938 9.7689 0.960938 10.0002C0.960938 10.2315 1.05124 10.4537 1.21261 10.6194C1.37398 10.7851 1.59367 10.8813 1.82489 10.8874ZM3.59208 4.84676L4.60801 5.8627C4.95426 6.20895 5.51645 6.20895 5.8627 5.8627C6.20895 5.51645 6.20895 4.95426 5.8627 4.60801L4.84676 3.59208C4.50051 3.24583 3.93833 3.24583 3.59208 3.59208C3.24583 3.93833 3.24583 4.50051 3.59208 4.84676Z" fill="black"/>
</svg>
