<svg width="134" height="134" viewBox="0 0 134 134" fill="none" xmlns="http://www.w3.org/2000/svg">
<path d="M67 133.844C103.917 133.844 133.844 103.917 133.844 67C133.844 30.0832 103.917 0.15625 67 0.15625C30.0832 0.15625 0.15625 30.0832 0.15625 67C0.15625 103.917 30.0832 133.844 67 133.844Z" fill="#F0F4FF"/>
<path d="M120.641 106.837C114.407 98.4905 106.312 91.7134 96.9996 87.0439C87.6873 82.3745 77.4142 79.9414 66.9967 79.9381C56.5793 79.9347 46.3046 82.3612 36.9893 87.0246C27.6739 91.6881 19.5747 98.46 13.3352 106.802C19.5428 115.187 27.6287 122 36.9445 126.696C46.2603 131.392 56.5469 133.84 66.9794 133.844C77.4119 133.847 87.7001 131.406 97.0189 126.716C106.338 122.026 114.428 115.217 120.641 106.837Z" fill="#8FC0FF"/>
<path d="M67 71.3125C81.2904 71.3125 92.875 59.7279 92.875 45.4375C92.875 31.1471 81.2904 19.5625 67 19.5625C52.7096 19.5625 41.125 31.1471 41.125 45.4375C41.125 59.7279 52.7096 71.3125 67 71.3125Z" fill="#8FC0FF"/>
</svg>
