<svg width="632" height="335" viewBox="0 0 632 335" fill="none" xmlns="http://www.w3.org/2000/svg">
<path d="M171.589 209V253.4H150.589V287H101.989V253.4H6.58887V209L73.4889 77H125.089L58.1889 209H101.989V164H150.589V209H171.589Z" fill="#2A2A2A"/>
<path d="M575.589 209V253.4H554.589V287H505.989V253.4H410.589V209L477.489 77H529.089L462.189 209H505.989V164H554.589V209H575.589Z" fill="#2A2A2A"/>
<mask id="mask0_822_1396" style="mask-type:luminance" maskUnits="userSpaceOnUse" x="155" y="41" width="325" height="273">
<path d="M479.664 41.0264H155.638V313.16H479.664V41.0264Z" fill="white"/>
</mask>
<g mask="url(#mask0_822_1396)">
<path d="M426.476 307.561C486.577 247.46 486.577 150.017 426.476 89.9161C366.375 29.8152 268.932 29.8152 208.831 89.9161C148.73 150.017 148.73 247.46 208.831 307.561C268.932 367.662 366.375 367.662 426.476 307.561Z" fill="#5D5D5D"/>
<path d="M189.666 198.742C189.666 173.428 197.173 148.682 211.237 127.634C225.301 106.585 245.29 90.1804 268.678 80.493C292.065 70.8055 317.8 68.2709 342.628 73.2095C367.456 78.1481 390.262 90.3382 408.163 108.238C426.063 126.138 438.253 148.944 443.191 173.772C448.13 198.6 445.595 224.335 435.908 247.723C426.22 271.11 409.815 291.1 388.767 305.164C367.719 319.228 342.973 326.735 317.658 326.735C300.85 326.737 284.205 323.428 268.675 316.996C253.146 310.565 239.035 301.137 227.149 289.251C215.264 277.366 205.836 263.255 199.405 247.725C192.973 232.196 189.664 215.551 189.666 198.742Z" fill="#4A4A4A"/>
<path d="M317.659 308.046C296.043 308.049 274.912 301.642 256.938 289.635C238.963 277.629 224.953 260.562 216.679 240.592C208.405 220.623 206.238 198.649 210.453 177.448C214.668 156.247 225.076 136.773 240.359 121.487C255.643 106.201 275.116 95.7911 296.316 91.5729C317.516 87.3547 339.491 89.518 359.461 97.7892C379.432 106.06 396.501 120.068 408.51 138.04C420.519 156.013 426.929 177.143 426.929 198.759C426.895 227.73 415.372 255.505 394.888 275.993C374.404 296.48 346.63 308.007 317.659 308.046ZM317.659 91.3973C296.42 91.3941 275.657 97.6894 257.997 109.487C240.336 121.285 226.571 138.054 218.442 157.676C210.312 177.297 208.185 198.889 212.327 219.719C216.47 240.55 226.697 259.684 241.715 274.702C256.733 289.72 275.867 299.947 296.698 304.09C317.529 308.233 339.12 306.105 358.742 297.976C378.363 289.847 395.133 276.081 406.93 258.421C418.728 240.76 425.023 219.997 425.02 198.759C424.99 170.292 413.67 143 393.542 122.87C373.415 102.74 346.125 91.4154 317.659 91.3812V91.3973Z" fill="#767676"/>
<path d="M317.658 306.783C296.29 306.783 275.401 300.447 257.634 288.575C239.867 276.703 226.019 259.83 217.841 240.088C209.664 220.346 207.524 198.622 211.693 177.664C215.862 156.707 226.152 137.455 241.262 122.346C256.372 107.236 275.623 96.9459 296.58 92.7771C317.538 88.6084 339.262 90.7479 359.004 98.9253C378.746 107.103 395.619 120.951 407.491 138.718C419.363 156.485 425.699 177.374 425.699 198.742C425.669 227.387 414.277 254.85 394.022 275.106C373.767 295.361 346.303 306.753 317.658 306.783ZM317.658 91.672C296.478 91.672 275.773 97.9529 258.163 109.72C240.552 121.488 226.826 138.214 218.722 157.782C210.617 177.35 208.497 198.883 212.631 219.656C216.764 240.429 226.965 259.51 241.943 274.486C256.92 289.461 276.003 299.659 296.777 303.789C317.55 307.919 339.082 305.796 358.65 297.689C378.217 289.581 394.94 275.853 406.705 258.241C418.47 240.628 424.748 219.923 424.745 198.742C424.71 170.353 413.417 143.137 393.341 123.064C373.265 102.992 346.047 91.702 317.658 91.672Z" fill="#3F3F3F"/>
<path d="M317.659 336.46C290.421 336.46 263.795 328.383 241.147 313.251C218.5 298.118 200.848 276.61 190.425 251.445C180.001 226.281 177.274 198.59 182.588 171.876C187.902 145.161 201.018 120.623 220.278 101.363C239.538 82.1025 264.077 68.9862 290.791 63.6724C317.506 58.3585 345.196 61.0858 370.361 71.5092C395.525 81.9327 417.034 99.5843 432.166 122.232C447.299 144.879 455.376 171.505 455.376 198.743C455.333 235.255 440.81 270.259 414.992 296.077C389.174 321.894 354.17 336.418 317.659 336.46ZM317.659 63.0002C290.798 63.0002 264.54 70.9656 242.206 85.8891C219.872 100.813 202.466 122.024 192.187 146.84C181.909 171.657 179.22 198.964 184.462 225.309C189.703 251.653 202.639 275.852 221.634 294.844C240.628 313.837 264.829 326.77 291.174 332.008C317.519 337.247 344.826 334.555 369.641 324.273C394.456 313.992 415.666 296.583 430.586 274.247C445.507 251.911 453.469 225.653 453.466 198.792C453.445 162.777 439.131 128.243 413.667 102.773C388.204 77.304 353.673 62.9817 317.659 62.9517V63.0002Z" fill="#767676"/>
<path d="M317.659 335.021C290.706 335.021 264.358 327.029 241.947 312.054C219.537 297.08 202.07 275.797 191.755 250.895C181.441 225.994 178.742 198.593 184 172.158C189.259 145.723 202.238 121.441 221.296 102.382C240.355 83.3232 264.637 70.3441 291.073 65.0858C317.508 59.8275 344.908 62.5263 369.81 72.8408C394.711 83.1552 415.995 100.622 430.969 123.033C445.943 145.443 453.936 171.791 453.936 198.744C453.897 234.875 439.527 269.516 413.979 295.064C388.43 320.613 353.79 334.983 317.659 335.021ZM317.659 63.4381C290.894 63.4381 264.73 71.3751 242.476 86.2452C220.222 101.115 202.878 122.251 192.636 146.979C182.394 171.706 179.715 198.916 184.938 225.166C190.161 251.417 203.05 275.529 221.977 294.453C240.904 313.378 265.018 326.265 291.269 331.485C317.52 336.704 344.729 334.022 369.456 323.777C394.182 313.533 415.316 296.186 430.183 273.93C445.051 251.674 452.984 225.509 452.981 198.744C452.938 162.869 438.667 128.476 413.298 103.11C387.929 77.744 353.534 63.4767 317.659 63.4381Z" fill="#3F3F3F"/>
<path d="M398.679 312.561L396.656 330.7L399.375 329.082L399.941 311.817L398.679 312.561Z" fill="#4A4A4A"/>
<path d="M415.91 297.108L417.14 316.039C419.454 314.082 421.719 312.026 423.936 309.907L420.004 293.014L415.91 297.108Z" fill="#4A4A4A"/>
<path d="M425.376 287.706L428.127 305.813C428.871 305.052 429.599 304.292 430.327 303.515L426.395 286.687L425.376 287.706Z" fill="#4A4A4A"/>
<path d="M438.078 268.305L444.178 286.282C445.894 283.774 447.56 281.218 449.146 278.58L440.975 263.289L438.078 268.305Z" fill="#4A4A4A"/>
<path d="M444.729 256.786L452.075 273.582C452.593 272.66 453.094 271.721 453.596 270.783L445.505 255.54L444.729 256.786Z" fill="#4A4A4A"/>
<path d="M451.978 234.761L462.511 250.553C463.525 247.684 464.469 244.777 465.343 241.832L453.482 229.178L451.978 234.761Z" fill="#4A4A4A"/>
<path d="M455.424 221.93L466.864 236.234C467.123 235.198 467.365 234.179 467.608 233.143L455.796 220.522L455.424 221.93Z" fill="#4A4A4A"/>
<path d="M456.719 198.775L470.99 211.299C471.233 208.257 471.395 205.215 471.46 202.141L456.719 192.982V198.775Z" fill="#4A4A4A"/>
<path d="M456.719 185.474L471.476 196.331C471.476 195.28 471.476 194.212 471.476 193.095L456.8 183.969L456.719 185.474Z" fill="#4A4A4A"/>
<path d="M451.994 162.771L469.017 171.185C468.466 168.187 467.825 165.193 467.091 162.205L450.489 157.173L451.994 162.771Z" fill="#4A4A4A"/>
<path d="M448.547 149.94L465.618 156.607C465.327 155.587 465.019 154.568 464.712 153.548L448.175 148.532L448.547 149.94Z" fill="#4A4A4A"/>
<path d="M438.094 129.231L456.718 132.937C455.402 130.208 454.01 127.511 452.543 124.846L435.197 124.28L438.094 129.231Z" fill="#4A4A4A"/>
<path d="M431.444 117.726L449.664 119.749C449.113 118.843 448.563 117.936 448.045 117.03L430.78 116.48L431.444 117.726Z" fill="#4A4A4A"/>
<path d="M416.008 100.428L434.94 99.1981C432.982 96.8842 430.927 94.6188 428.807 92.3858L411.914 96.334L416.008 100.428Z" fill="#4A4A4A"/>
<path d="M406.606 91.026L424.713 88.2752C423.952 87.5309 423.192 86.8027 422.399 86.0746L405.587 90.0066L406.606 91.026Z" fill="#4A4A4A"/>
<path d="M387.206 78.2772L405.183 72.1769C402.675 70.4617 400.118 68.7951 397.481 67.2094L382.189 75.3808L387.206 78.2772Z" fill="#4A4A4A"/>
<path d="M375.684 71.6742L392.48 64.328L389.681 62.807L374.438 70.8975L375.684 71.6742Z" fill="#4A4A4A"/>
<path d="M353.661 64.4257L369.454 53.8918C366.584 52.8778 363.677 51.9393 360.732 51.0763L348.062 62.9208L353.661 64.4257Z" fill="#4A4A4A"/>
<path d="M340.813 60.9789L355.134 49.5389L352.043 48.7945L339.422 60.6067L340.813 60.9789Z" fill="#4A4A4A"/>
<path d="M317.675 59.6819L330.199 45.4102C327.157 45.1675 324.115 45.0057 321.04 44.9409L311.882 59.6819H317.675Z" fill="#4A4A4A"/>
<path d="M304.374 59.6823L315.231 44.9251L311.995 45.0061L302.869 59.6823H304.374Z" fill="#4A4A4A"/>
<path d="M281.607 64.4081L290.021 47.3857C287.022 47.9358 284.034 48.5777 281.057 49.3112L276.024 65.913L281.607 64.4081Z" fill="#4A4A4A"/>
<path d="M268.84 67.8545L275.507 50.7672L272.449 51.6734L267.433 68.2104L268.84 67.8545Z" fill="#4A4A4A"/>
<path d="M248.128 78.2752L251.85 59.6508C249.099 60.9614 246.381 62.3368 243.679 63.8255L243.112 81.1716L248.128 78.2752Z" fill="#4A4A4A"/>
<path d="M236.623 84.9432L238.646 66.7395L235.928 68.3576L235.361 85.6228L236.623 84.9432Z" fill="#4A4A4A"/>
<path d="M219.327 100.394L218.097 81.462C215.783 83.4199 213.518 85.4749 211.301 87.5946L215.265 104.488L219.327 100.394Z" fill="#4A4A4A"/>
<path d="M209.925 109.796L207.174 91.6889C206.43 92.4494 205.702 93.21 204.974 94.0028L208.906 110.815L209.925 109.796Z" fill="#4A4A4A"/>
<path d="M197.223 129.197L191.139 111.22C189.408 113.728 187.741 116.285 186.155 118.922L194.327 134.214L197.223 129.197Z" fill="#4A4A4A"/>
<path d="M190.572 140.718L183.226 123.922L181.705 126.721L189.796 141.964L190.572 140.718Z" fill="#4A4A4A"/>
<path d="M183.324 162.742L172.79 146.949C171.771 149.814 170.832 152.71 169.975 155.671L181.819 168.341L183.324 162.742Z" fill="#4A4A4A"/>
<path d="M179.877 175.573L168.437 161.269C168.178 162.305 167.935 163.324 167.692 164.376L179.505 176.981L179.877 175.573Z" fill="#4A4A4A"/>
<path d="M178.582 198.728L164.31 186.22C164.067 189.245 163.906 192.287 163.841 195.362L178.582 204.52V198.728Z" fill="#4A4A4A"/>
<path d="M178.582 212.029L163.825 201.155C163.825 202.223 163.825 203.291 163.825 204.391L178.501 213.518L178.582 212.029Z" fill="#4A4A4A"/>
<path d="M183.307 234.729L166.301 226.315C166.835 229.308 167.482 232.302 168.21 235.279L184.812 240.328L183.307 234.729Z" fill="#4A4A4A"/>
<path d="M186.754 247.56L169.699 240.894C169.974 241.913 170.282 242.932 170.589 243.952L187.126 248.968L186.754 247.56Z" fill="#4A4A4A"/>
<path d="M197.207 268.275L178.583 264.553C179.877 267.304 181.285 270.022 182.758 272.725L200.088 273.291L197.207 268.275Z" fill="#4A4A4A"/>
<path d="M203.939 279.78L185.719 277.757C186.269 278.663 186.819 279.569 187.337 280.475L204.602 281.042L203.939 279.78Z" fill="#4A4A4A"/>
<path d="M219.294 297.076L200.362 298.306C202.32 300.62 204.375 302.885 206.495 305.102L223.356 301.17L219.294 297.076Z" fill="#4A4A4A"/>
<path d="M228.695 306.428L210.589 309.179C211.349 309.923 212.126 310.651 212.903 311.379L229.715 307.447L228.695 306.428Z" fill="#4A4A4A"/>
<path d="M212.481 198.742C212.481 177.94 218.65 157.605 230.207 140.309C241.764 123.012 258.19 109.532 277.409 101.571C296.628 93.6103 317.775 91.5275 338.177 95.5858C358.58 99.644 377.321 109.661 392.03 124.37C406.739 139.08 416.756 157.82 420.814 178.223C424.873 198.625 422.79 219.773 414.829 238.991C406.869 258.21 393.388 274.636 376.092 286.193C358.795 297.75 338.46 303.919 317.658 303.919C289.764 303.919 263.012 292.838 243.287 273.113C223.563 253.389 212.481 226.636 212.481 198.742Z" fill="#2A2A2A"/>
<path d="M317.448 79.8939C315.83 83.1301 314.519 85.978 314.018 87.3049C314.778 86.1075 316.251 83.3567 317.869 80.1043C319.487 76.8519 320.781 74.0202 321.283 72.7095C320.539 73.9555 319.066 76.6577 317.448 79.8939Z" fill="#5D5D5D"/>
<path d="M309.988 80.1836C308.581 83.5331 307.448 86.4457 307.027 87.8049C307.707 86.559 309.018 83.7273 310.425 80.3778C311.833 77.0284 312.95 74.1319 313.37 72.7727C312.691 74.0187 311.396 76.8503 309.988 80.1836Z" fill="#5D5D5D"/>
<path d="M302.643 80.9123C301.445 84.3427 300.507 87.3847 300.167 88.6792C300.766 87.4009 301.898 84.4883 303.08 81.0741C304.261 77.6599 305.215 74.6017 305.555 73.291C304.876 74.5693 303.759 77.4819 302.643 80.9123Z" fill="#5D5D5D"/>
<path d="M295.183 82.0949C294.212 85.59 293.468 88.5673 293.209 90.0075C293.727 88.6806 294.665 85.7195 295.636 82.2244C296.607 78.7293 297.368 75.7519 297.61 74.3118C297.109 75.6225 296.17 78.5998 295.183 82.0949Z" fill="#5D5D5D"/>
<path d="M287.902 83.7291C287.142 87.2889 286.591 90.3471 286.43 91.8196C286.867 90.4766 287.611 87.4507 288.371 83.8909C289.132 80.3311 289.682 77.289 289.844 75.8004C289.407 77.1596 288.663 80.1854 287.902 83.7291Z" fill="#5D5D5D"/>
<path d="M280.749 85.8314C280.215 89.4235 279.843 92.5141 279.778 93.9219C280.134 92.5465 280.684 89.4721 281.218 85.8314C281.752 82.1906 282.108 79.1486 282.173 77.7408C281.833 79.1647 281.283 82.2392 280.749 85.8314Z" fill="#5D5D5D"/>
<path d="M273.727 88.3723C273.419 91.9969 273.257 95.0875 273.274 96.4628C273.532 95.0713 273.888 91.9807 274.196 88.3723C274.503 84.7639 274.681 81.6572 274.649 80.2818C274.39 81.6572 274.034 84.7477 273.727 88.3723Z" fill="#5D5D5D"/>
<path d="M266.882 91.3481C266.801 94.9726 266.882 98.0956 266.882 99.4386C267.06 98.0309 267.238 94.9241 267.302 91.3481C267.367 87.7721 267.302 84.6006 267.302 83.1766C267.124 84.6006 267.043 87.7235 266.882 91.3481Z" fill="#5D5D5D"/>
<path d="M260.232 94.7468C260.394 98.3713 260.62 101.478 260.798 102.837C260.895 101.43 260.798 98.3066 260.798 94.7468C260.798 91.1869 260.426 88.0154 260.232 86.6562C260.054 87.9831 260.086 91.1222 260.232 94.7468Z" fill="#5D5D5D"/>
<path d="M253.824 98.5676C254.196 102.176 254.617 105.25 254.908 106.658C254.908 105.25 254.665 102.144 254.293 98.5676C253.921 94.9916 253.5 91.8687 253.209 90.4771C253.225 91.8363 253.452 94.9431 253.824 98.5676Z" fill="#5D5D5D"/>
<path d="M247.627 102.773C248.226 106.349 248.841 109.407 249.245 110.767C249.148 109.359 248.728 106.268 248.129 102.676C247.53 99.0839 246.915 96.0419 246.511 94.5856C246.64 96.0742 247.061 99.181 247.627 102.773Z" fill="#5D5D5D"/>
<path d="M241.769 107.402C242.595 110.929 243.388 113.874 243.857 115.282C243.679 113.874 243.064 110.832 242.239 107.288C241.413 103.745 240.621 100.816 240.151 99.4083C240.329 100.768 240.944 103.826 241.769 107.402Z" fill="#5D5D5D"/>
<path d="M236.186 112.257C237.238 115.719 238.209 118.729 238.759 119.991C238.484 118.6 237.675 115.59 236.639 112.111C235.604 108.632 234.6 105.639 234.066 104.376C234.325 105.784 235.134 108.826 236.186 112.257Z" fill="#5D5D5D"/>
<path d="M230.912 117.578C232.174 120.976 233.355 123.872 233.97 125.151C233.614 123.775 232.627 120.814 231.365 117.416C230.103 114.018 228.922 111.138 228.307 109.86C228.663 111.235 229.65 114.18 230.912 117.578Z" fill="#5D5D5D"/>
<path d="M225.993 123.193C227.465 126.51 228.825 129.31 229.52 130.556C229.084 129.197 227.902 126.316 226.43 122.999C224.957 119.682 223.598 116.867 222.902 115.637C223.355 116.996 224.52 119.876 225.993 123.193Z" fill="#5D5D5D"/>
<path d="M221.43 129.101C223.048 132.338 224.666 135.024 225.411 136.221C224.893 134.91 223.534 132.095 221.851 128.875C220.168 125.655 218.614 122.953 217.87 121.755C218.388 123.082 219.747 125.881 221.43 129.101Z" fill="#5D5D5D"/>
<path d="M217.255 135.281C219.115 138.387 220.815 140.993 221.672 142.141C221.057 140.847 219.536 138.145 217.659 135.022C215.782 131.899 214.083 129.31 213.226 128.177C213.84 129.455 215.361 132.174 217.255 135.281Z" fill="#5D5D5D"/>
<path d="M213.453 141.706C215.524 144.683 217.385 147.191 218.307 148.275C217.611 147.029 215.912 144.424 213.857 141.431C211.802 138.437 209.925 135.945 209.003 134.861C209.699 136.107 211.398 138.729 213.453 141.706Z" fill="#5D5D5D"/>
<path d="M210.087 148.371C212.336 151.202 214.342 153.597 215.329 154.616C214.569 153.419 212.708 150.911 210.475 148.063C208.242 145.215 206.203 142.837 205.232 141.817C205.977 142.998 207.838 145.523 210.087 148.371Z" fill="#5D5D5D"/>
<path d="M207.174 155.218C209.601 157.92 211.737 160.169 212.789 161.14C211.947 159.991 209.941 157.596 207.53 154.894C205.119 152.192 202.935 150.04 201.883 148.988C202.692 150.137 204.715 152.516 207.174 155.218Z" fill="#5D5D5D"/>
<path d="M204.617 162.238C207.206 164.779 209.472 166.898 210.604 167.788C209.698 166.704 207.53 164.455 204.957 161.898C202.384 159.342 200.103 157.254 198.954 156.364C199.876 157.449 202.029 159.714 204.617 162.238Z" fill="#5D5D5D"/>
<path d="M202.547 169.423C205.297 171.786 207.708 173.76 208.874 174.585C207.903 173.549 205.637 171.349 202.87 169.051C200.103 166.753 197.692 164.714 196.527 163.889C197.466 164.925 199.812 167.045 202.547 169.423Z" fill="#5D5D5D"/>
<path d="M200.928 176.705C203.824 178.889 206.365 180.701 207.578 181.462C206.543 180.475 204.099 178.517 201.219 176.316C198.339 174.116 195.799 172.32 194.585 171.575C195.621 172.546 198.048 174.504 200.928 176.705Z" fill="#5D5D5D"/>
<path d="M199.779 184.084C202.805 186.091 205.443 187.725 206.705 188.404C205.605 187.498 203.064 185.686 200.054 183.68C197.045 181.673 194.375 180.023 193.129 179.359C194.229 180.217 196.77 182.078 199.779 184.084Z" fill="#5D5D5D"/>
<path d="M199.084 191.542C202.223 193.354 204.958 194.778 206.269 195.425C205.104 194.584 202.45 192.95 199.327 191.121C196.204 189.293 193.421 187.885 192.143 187.254C193.308 188.047 195.961 189.697 199.084 191.542Z" fill="#5D5D5D"/>
<path d="M198.873 198.971C202.11 200.589 204.958 201.884 206.284 202.401C205.087 201.625 202.336 200.168 199.084 198.534C195.831 196.9 193 195.622 191.673 195.12C192.886 195.88 195.637 197.353 198.873 198.971Z" fill="#5D5D5D"/>
<path d="M199.084 206.428C202.433 207.836 205.346 208.953 206.705 209.373C205.459 208.694 202.611 207.399 199.278 205.975C195.945 204.551 193.016 203.451 191.673 203.03C192.951 203.71 195.848 205.021 199.084 206.428Z" fill="#5D5D5D"/>
<path d="M199.828 213.857C203.258 215.054 206.3 215.992 207.627 216.316C206.333 215.717 203.42 214.601 200.006 213.403C196.592 212.206 193.533 211.268 192.223 210.944C193.501 211.543 196.43 212.659 199.828 213.857Z" fill="#5D5D5D"/>
<path d="M201.026 221.218C204.521 222.205 207.498 222.95 208.938 223.192C207.612 222.675 204.634 221.752 201.155 220.765C197.676 219.778 194.683 219.034 193.227 218.791C194.553 219.309 197.547 220.247 201.026 221.218Z" fill="#5D5D5D"/>
<path d="M202.66 228.501C206.204 229.261 209.278 229.812 210.751 229.973C209.408 229.537 206.366 228.792 202.822 228.032C199.278 227.271 196.204 226.721 194.731 226.559C196.091 226.996 199.084 227.757 202.66 228.501Z" fill="#5D5D5D"/>
<path d="M204.763 235.67C208.339 236.187 211.446 236.56 212.854 236.64C211.462 236.268 208.388 235.734 204.763 235.184C201.139 234.634 198.081 234.31 196.673 234.229C198.097 234.585 201.187 235.136 204.763 235.67Z" fill="#5D5D5D"/>
<path d="M207.303 242.691C210.912 242.982 214.035 243.16 215.394 243.128C214.002 242.869 210.895 242.513 207.303 242.205C203.711 241.898 200.556 241.736 199.132 241.752C200.588 242.011 203.695 242.383 207.303 242.691Z" fill="#5D5D5D"/>
<path d="M210.281 249.519C213.906 249.6 217.028 249.519 218.372 249.519C216.964 249.341 213.841 249.179 210.281 249.082C206.721 248.985 203.533 249.082 202.19 249.082C203.533 249.276 206.656 249.454 210.281 249.519Z" fill="#5D5D5D"/>
<path d="M213.647 256.169C217.272 256.007 220.379 255.797 221.738 255.603C220.314 255.505 217.207 255.603 213.647 255.684C210.087 255.764 206.916 256.072 205.557 256.266C206.932 256.347 210.071 256.266 213.647 256.169Z" fill="#5D5D5D"/>
<path d="M217.481 262.594C221.09 262.206 224.18 261.785 225.572 261.51C224.148 261.51 221.025 261.736 217.481 262.108C213.938 262.481 210.798 262.918 209.391 263.193C210.766 263.193 213.889 262.966 217.481 262.594Z" fill="#5D5D5D"/>
<path d="M221.737 268.76C225.313 268.145 228.372 267.53 229.747 267.142C228.339 267.239 225.233 267.659 221.657 268.258C218.081 268.857 215.038 269.488 213.663 269.876C215.038 269.763 218.129 269.358 221.737 268.76Z" fill="#5D5D5D"/>
<path d="M226.284 274.649C229.812 273.808 232.756 273.031 234.18 272.546C232.756 272.74 229.698 273.355 226.171 274.164C222.643 274.973 219.698 275.782 218.274 276.251C219.698 276.073 222.757 275.458 226.284 274.649Z" fill="#5D5D5D"/>
<path d="M231.219 280.232C234.698 279.181 237.691 278.194 238.97 277.643C237.578 277.919 234.552 278.728 231.09 279.763C227.627 280.799 224.617 281.818 223.339 282.352C224.747 282.158 227.772 281.268 231.219 280.232Z" fill="#5D5D5D"/>
<path d="M236.511 285.49C239.909 284.227 242.805 283.062 244.084 282.431C242.708 282.787 239.747 283.791 236.349 285.037C232.951 286.282 230.055 287.496 228.776 288.095C230.152 287.739 233.064 286.752 236.511 285.49Z" fill="#5D5D5D"/>
<path d="M242.125 290.425C245.361 288.936 248.241 287.593 249.487 286.881C248.128 287.334 245.248 288.499 241.931 289.972C238.614 291.444 235.798 292.82 234.568 293.499C235.911 293.062 238.824 291.865 242.125 290.425Z" fill="#5D5D5D"/>
<path d="M248.016 294.99C251.252 293.371 253.954 291.753 255.151 290.993C253.825 291.527 251.025 292.886 247.805 294.553C244.585 296.219 241.883 297.789 240.686 298.533C241.996 298.015 244.828 296.721 248.016 294.99Z" fill="#5D5D5D"/>
<path d="M288.339 313.855C290.718 311.12 292.692 308.693 293.501 307.528C292.465 308.515 290.362 310.764 287.983 313.547C285.604 316.33 283.647 318.709 282.821 319.874C283.857 318.903 285.993 316.589 288.339 313.855Z" fill="#5D5D5D"/>
<path d="M295.636 315.474C297.821 312.593 299.633 310.053 300.377 308.839C299.406 309.875 297.449 312.302 295.248 315.182C293.047 318.063 291.251 320.619 290.507 321.817C291.462 320.781 293.452 318.354 295.636 315.474Z" fill="#5D5D5D"/>
<path d="M302.998 316.638C305.021 313.612 306.655 310.958 307.335 309.696C306.429 310.796 304.616 313.337 302.594 316.363C300.571 319.388 298.953 322.042 298.273 323.272C299.18 322.188 301.024 319.631 302.998 316.638Z" fill="#5D5D5D"/>
<path d="M310.442 317.32C312.254 314.18 313.678 311.43 314.309 310.135C313.484 311.284 311.833 313.938 310.021 317.077C308.209 320.216 306.785 322.967 306.138 324.261C306.963 323.096 308.63 320.442 310.442 317.32Z" fill="#5D5D5D"/>
<path d="M317.901 317.543C319.52 314.307 320.814 311.459 321.316 310.116C320.555 311.33 319.083 314.064 317.465 317.317C315.846 320.569 314.568 323.401 314.034 324.728C314.795 323.53 316.283 320.763 317.901 317.543Z" fill="#5D5D5D"/>
<path d="M325.296 317.285C326.704 313.936 327.821 311.039 328.241 309.68C327.562 310.926 326.267 313.758 324.843 317.091C323.419 320.424 322.335 323.353 321.898 324.712C322.643 323.45 323.953 320.618 325.296 317.285Z" fill="#5D5D5D"/>
<path d="M332.788 316.575C333.986 313.145 334.924 310.184 335.248 308.792C334.649 310.086 333.532 312.983 332.319 316.413C331.105 319.844 330.215 322.886 329.859 324.196C330.458 322.902 331.591 319.989 332.788 316.575Z" fill="#5D5D5D"/>
<path d="M340.15 315.393C341.121 311.898 341.881 308.921 342.124 307.465C341.606 308.791 340.668 311.769 339.681 315.264C338.694 318.759 337.982 321.736 337.723 323.176C338.24 321.85 339.179 318.872 340.15 315.393Z" fill="#5D5D5D"/>
<path d="M393.58 290.135C392.739 286.607 391.962 283.582 391.477 282.239C391.671 283.646 392.286 286.705 393.095 290.232C393.904 293.76 394.713 296.785 395.182 298.128C395.004 296.721 394.389 293.646 393.58 290.135Z" fill="#5D5D5D"/>
<path d="M399.162 285.182C398.11 281.703 397.123 278.71 396.573 277.432C396.848 278.839 397.657 281.849 398.693 285.328C399.729 288.807 400.748 291.8 401.266 293.063C401.007 291.671 400.198 288.629 399.162 285.182Z" fill="#5D5D5D"/>
<path d="M404.438 279.891C403.159 276.493 401.994 273.613 401.363 272.318C401.719 273.71 402.722 276.655 403.968 280.069C405.214 283.483 406.428 286.347 407.027 287.626C406.671 286.25 405.684 283.289 404.438 279.891Z" fill="#5D5D5D"/>
<path d="M409.438 274.292C407.95 270.975 406.606 268.176 405.895 266.93C406.348 268.289 407.513 271.169 408.985 274.486C410.458 277.804 411.833 280.603 412.513 281.849C411.995 280.538 410.814 277.593 409.438 274.292Z" fill="#5D5D5D"/>
<path d="M413.92 268.386C412.301 265.15 410.683 262.448 409.923 261.251C410.457 262.594 411.816 265.393 413.483 268.597C415.149 271.801 416.719 274.535 417.463 275.733C416.929 274.406 415.586 271.574 413.92 268.386Z" fill="#5D5D5D"/>
<path d="M418.111 262.205C416.218 259.098 414.535 256.477 413.661 255.344C414.276 256.638 415.813 259.341 417.674 262.447C419.535 265.554 421.282 268.159 422.108 269.308C421.493 268.03 419.956 265.295 418.111 262.205Z" fill="#5D5D5D"/>
<path d="M421.896 255.767C419.809 252.789 417.964 250.281 417.042 249.197C417.738 250.459 419.437 253.064 421.492 256.042C423.547 259.019 425.44 261.527 426.346 262.611C425.618 261.365 424 258.728 421.896 255.767Z" fill="#5D5D5D"/>
<path d="M425.263 249.116C422.997 246.268 421.007 243.889 420.004 242.87C420.781 244.067 422.641 246.559 424.858 249.342C427.075 252.126 429.146 254.553 430.101 255.588C429.357 254.456 427.496 251.947 425.263 249.116Z" fill="#5D5D5D"/>
<path d="M428.208 242.253C425.781 239.567 423.628 237.399 422.561 236.347C423.418 237.496 425.425 239.874 427.836 242.577C430.247 245.279 432.447 247.431 433.483 248.499C432.641 247.334 430.619 244.939 428.208 242.253Z" fill="#5D5D5D"/>
<path d="M430.732 235.231C428.127 232.691 425.877 230.587 424.729 229.698C425.651 230.782 427.803 233.031 430.376 235.587C432.948 238.144 435.23 240.215 436.379 241.121C435.457 240.086 433.304 237.756 430.732 235.231Z" fill="#5D5D5D"/>
<path d="M432.803 228.064C430.052 225.685 427.641 223.728 426.46 222.919C427.447 223.938 429.696 226.041 432.463 228.436C435.23 230.831 437.657 232.74 438.79 233.582C437.819 232.546 435.521 230.378 432.803 228.064Z" fill="#5D5D5D"/>
<path d="M434.421 220.767C431.525 218.582 428.985 216.77 427.755 216.026C428.807 216.997 431.234 218.955 434.098 221.155C436.962 223.356 439.551 225.152 440.748 225.912C439.713 224.942 437.269 222.967 434.421 220.767Z" fill="#5D5D5D"/>
<path d="M435.57 213.403C432.544 211.396 429.89 209.746 428.628 209.082C429.728 209.989 432.269 211.785 435.278 213.807C438.288 215.83 440.974 217.448 442.204 218.128C441.12 217.222 438.563 215.409 435.57 213.403Z" fill="#5D5D5D"/>
<path d="M436.25 205.959C433.111 204.147 430.376 202.723 429.065 202.092C430.23 202.933 432.868 204.567 435.991 206.396C439.114 208.224 441.897 209.632 443.175 210.263C442.026 209.438 439.373 207.723 436.25 205.959Z" fill="#5D5D5D"/>
<path d="M436.476 198.502C433.24 196.884 430.392 195.59 429.049 195.104C430.262 195.848 433.013 197.321 436.249 198.955C439.486 200.589 442.333 201.835 443.66 202.369C442.447 201.609 439.696 200.12 436.476 198.502Z" fill="#5D5D5D"/>
<path d="M436.217 191.042C432.884 189.651 429.971 188.518 428.596 188.113C429.858 188.793 432.69 190.088 436.023 191.511C439.356 192.935 442.285 194.003 443.644 194.456C442.398 193.761 439.55 192.45 436.217 191.042Z" fill="#5D5D5D"/>
<path d="M435.505 183.613C432.075 182.432 429.114 181.494 427.706 181.17C429.017 181.769 431.913 182.869 435.327 184.083C438.742 185.296 441.8 186.186 443.127 186.542C441.8 185.944 438.903 184.811 435.505 183.613Z" fill="#5D5D5D"/>
<path d="M434.324 176.251C430.829 175.28 427.852 174.536 426.396 174.293C427.722 174.811 430.7 175.733 434.179 176.72C437.658 177.707 440.651 178.419 442.107 178.694C440.78 178.177 437.787 177.238 434.324 176.251Z" fill="#5D5D5D"/>
<path d="M432.689 168.97C429.129 168.21 426.071 167.66 424.599 167.514C425.974 167.935 429 168.679 432.527 169.456C436.055 170.233 439.162 170.734 440.618 170.928C439.242 170.508 436.2 169.731 432.689 168.97Z" fill="#5D5D5D"/>
<path d="M430.587 161.803C426.994 161.285 423.904 160.913 422.496 160.865C423.888 161.205 426.962 161.755 430.587 162.305C434.211 162.855 437.269 163.162 438.677 163.26C437.237 162.904 434.146 162.418 430.587 161.803Z" fill="#5D5D5D"/>
<path d="M428.045 154.779C424.437 154.488 421.314 154.326 419.874 154.358C421.298 154.601 424.389 154.957 427.965 155.281C431.541 155.604 434.696 155.734 436.055 155.734C434.744 155.475 431.638 155.103 428.045 154.779Z" fill="#5D5D5D"/>
<path d="M425.069 147.936C421.444 147.936 418.321 147.936 416.897 147.936C418.321 148.114 421.428 148.259 424.988 148.356C428.548 148.453 431.752 148.356 433.159 148.356C431.8 148.211 428.677 148.033 425.069 147.936Z" fill="#5D5D5D"/>
<path d="M421.654 141.381C418.046 141.543 414.939 141.753 413.563 141.98C414.987 141.98 418.11 141.98 421.654 141.883C425.198 141.786 428.402 141.478 429.745 141.3C428.402 141.138 425.262 141.171 421.654 141.381Z" fill="#5D5D5D"/>
<path d="M417.851 134.91C414.243 135.298 411.152 135.719 409.761 136.01C411.185 136.01 414.291 135.767 417.851 135.411C421.411 135.055 424.55 134.586 425.942 134.327C424.566 134.295 421.443 134.521 417.851 134.91Z" fill="#5D5D5D"/>
<path d="M413.644 128.712C410.068 129.327 407.01 129.942 405.554 130.33C406.978 130.217 410.068 129.796 413.644 129.214C417.22 128.631 420.278 127.968 421.735 127.596C420.311 127.709 417.204 128.13 413.644 128.712Z" fill="#5D5D5D"/>
<path d="M409.065 122.823C405.538 123.664 402.593 124.441 401.169 124.942C402.577 124.748 405.635 124.133 409.162 123.324C412.69 122.515 415.635 121.706 417.059 121.237C415.651 121.415 412.577 121.965 409.065 122.823Z" fill="#5D5D5D"/>
<path d="M404.114 117.238C400.651 118.29 397.642 119.277 396.363 119.843C397.771 119.568 400.781 118.743 404.243 117.723C407.706 116.704 410.716 115.652 411.994 115.134C410.603 115.49 407.561 116.202 404.114 117.238Z" fill="#5D5D5D"/>
<path d="M398.823 111.965C395.425 113.243 392.545 114.424 391.267 115.055C392.642 114.683 395.587 113.68 398.985 112.45C402.383 111.22 405.279 109.974 406.558 109.392C405.182 109.732 402.205 110.735 398.823 111.965Z" fill="#5D5D5D"/>
<path d="M393.256 107.046C390.02 108.535 387.14 109.878 385.91 110.606C387.269 110.153 390.15 108.988 393.467 107.515C396.784 106.043 399.583 104.651 400.829 103.988C399.421 104.408 396.493 105.59 393.256 107.046Z" fill="#5D5D5D"/>
<path d="M387.302 102.547C384.066 104.165 381.38 105.783 380.183 106.56C381.509 106.026 384.309 104.651 387.529 103C390.749 101.35 393.467 99.7639 394.665 99.0196C393.338 99.4565 390.506 100.832 387.302 102.547Z" fill="#5D5D5D"/>
<path d="M381.121 98.3073C378.03 100.184 375.409 101.883 374.276 102.757C375.555 102.126 378.273 100.589 381.38 98.7442C384.487 96.8996 387.092 95.1358 388.241 94.3106C386.946 94.9093 384.228 96.4465 381.121 98.3073Z" fill="#5D5D5D"/>
<path d="M374.696 94.456C371.719 96.5272 369.211 98.3718 368.127 99.3103C369.373 98.5983 371.994 96.8993 374.972 94.8605C377.949 92.8217 380.441 90.8962 381.541 90.0062C380.311 90.7667 377.674 92.4657 374.696 94.456Z" fill="#5D5D5D"/>
<path d="M368.031 91.2194C365.199 93.4848 362.82 95.4912 361.801 96.4944C362.998 95.7177 365.49 93.8569 368.354 91.6401C371.218 89.4233 373.564 87.3521 374.6 86.3813C373.386 87.0447 370.878 88.9055 368.031 91.2194Z" fill="#5D5D5D"/>
<path d="M361.169 88.1953C358.499 90.6225 356.234 92.7745 355.279 93.8425C356.428 92.9849 358.807 90.9784 361.509 88.5675C364.211 86.1565 366.444 83.9559 367.431 82.9365C366.266 83.7617 363.871 85.7843 361.169 88.1953Z" fill="#5D5D5D"/>
<path d="M354.147 85.6694C351.622 88.2746 349.503 90.5237 348.629 91.6888C349.713 90.7664 351.962 88.5982 354.519 86.0416C357.075 83.485 359.147 81.1872 360.053 80.0384C358.952 80.9445 356.687 83.129 354.147 85.6694Z" fill="#5D5D5D"/>
<path d="M346.979 83.6145C344.616 86.3652 342.658 88.7762 341.833 89.9574C342.869 88.9542 344.972 86.7212 347.367 83.9542C349.762 81.1873 351.671 78.7601 352.529 77.6113C351.477 78.5821 349.357 80.896 346.979 83.6145Z" fill="#5D5D5D"/>
<path d="M339.698 81.9979C337.513 84.8944 335.701 87.4348 334.973 88.6645C335.927 87.5966 337.885 85.1694 340.102 82.3054C342.319 79.4413 344.066 76.8524 344.843 75.655C343.856 76.6582 341.882 79.1339 339.698 81.9979Z" fill="#5D5D5D"/>
<path d="M332.318 80.8485C330.328 83.8743 328.677 86.5119 328.014 87.7902C328.92 86.6737 330.716 84.1332 332.739 81.1236C334.761 78.1139 336.363 75.444 337.059 74.1981C336.153 75.2822 334.324 77.855 332.318 80.8485Z" fill="#5D5D5D"/>
<path d="M324.892 80.1533C323.096 83.2924 321.655 86.0432 321.024 87.3539C321.85 86.1727 323.484 83.5352 325.329 80.4122C327.173 77.2893 328.565 74.5061 329.212 73.2278C328.354 74.3767 326.704 77.0465 324.892 80.1533Z" fill="#5D5D5D"/>
<path d="M317.658 303.919C338.46 303.919 358.795 297.75 376.092 286.193C393.388 274.636 406.869 258.21 414.829 238.991C422.79 219.773 424.873 198.625 420.814 178.223C416.756 157.82 406.739 139.08 392.03 124.37C377.321 109.661 358.58 99.644 338.177 95.5858C317.775 91.5275 296.628 93.6103 277.409 101.571C258.19 109.532 241.764 123.012 230.207 140.309C218.65 157.605 212.481 177.94 212.481 198.742C212.481 226.636 223.563 253.389 243.287 273.113C263.012 292.838 289.764 303.919 317.658 303.919ZM417.269 194.907C417.269 194.907 417.884 213.127 412.544 229.583C407.204 246.039 395.991 260.408 395.991 260.408C390.587 266.767 382.561 266.524 378.192 259.858L361.072 233.968L352.448 220.91C347.448 213.321 350.312 204.502 358.823 201.315L373.483 195.813L402.609 184.907C410.004 182.075 416.638 186.59 417.269 194.907ZM344.794 102.82C344.794 102.82 362.302 107.869 376.299 118.031C390.295 128.192 400.57 143.289 400.57 143.289C404.939 150.409 402.188 157.965 394.535 160.085L364.6 168.354L349.503 172.528C340.749 174.956 333.241 169.503 332.836 160.409L332.14 144.762C331.736 135.684 331.105 121.72 330.765 113.743C330.425 105.765 336.623 100.927 344.794 102.82ZM327.966 238.644L337.674 250.893L357.092 275.165C362.059 281.395 359.826 289.113 352.108 292.285C352.108 292.285 334.972 298.498 317.675 298.498C300.377 298.498 283.225 292.301 283.225 292.301C275.507 289.064 273.258 281.411 278.241 275.181C283.225 268.951 291.931 257.997 297.659 250.91L307.367 238.66C313.014 231.541 322.302 231.541 327.966 238.644ZM234.811 143.289C234.811 143.289 245.022 128.208 259.083 118.031C273.144 107.853 290.587 102.804 290.587 102.804C298.678 100.846 305.053 105.765 304.697 113.743C304.341 121.72 303.71 135.684 303.306 144.762L302.61 160.409C302.205 169.486 294.697 174.972 285.927 172.528L270.847 168.354L240.912 160.085C233.145 157.965 230.426 150.393 234.811 143.289ZM232.789 184.875L261.915 195.781L276.575 201.266C285.086 204.502 287.901 213.289 282.95 220.877L274.309 233.936L257.206 259.825C252.805 266.492 244.779 266.751 239.407 260.375C239.407 260.375 228.209 246.007 222.87 229.631C217.53 213.256 218.129 194.955 218.129 194.955C218.679 186.59 225.313 182.059 232.789 184.875Z" fill="#E0E0E0"/>
<path d="M311.688 174.05C311.691 172.87 312.044 171.717 312.702 170.738C313.36 169.758 314.293 168.995 315.385 168.546C316.476 168.096 317.676 167.98 318.833 168.212C319.99 168.445 321.053 169.015 321.886 169.85C322.719 170.686 323.287 171.75 323.516 172.908C323.745 174.065 323.625 175.265 323.173 176.355C322.721 177.445 321.955 178.377 320.974 179.032C319.992 179.688 318.839 180.037 317.658 180.037C316.873 180.037 316.095 179.882 315.37 179.581C314.644 179.28 313.985 178.839 313.431 178.283C312.876 177.727 312.436 177.066 312.137 176.34C311.838 175.614 311.685 174.836 311.688 174.05Z" fill="#4A4A4A"/>
<path d="M314.276 174.05C314.276 173.381 314.475 172.728 314.846 172.171C315.218 171.615 315.746 171.182 316.364 170.926C316.982 170.67 317.662 170.603 318.318 170.733C318.974 170.864 319.577 171.186 320.05 171.659C320.522 172.132 320.845 172.734 320.975 173.39C321.106 174.046 321.039 174.726 320.783 175.344C320.527 175.962 320.093 176.491 319.537 176.862C318.981 177.234 318.327 177.432 317.658 177.432C316.761 177.432 315.901 177.076 315.267 176.442C314.633 175.807 314.276 174.947 314.276 174.05Z" fill="#BABABA"/>
<path d="M315.781 174.05C315.781 173.678 315.891 173.316 316.098 173.007C316.304 172.698 316.597 172.458 316.94 172.316C317.283 172.174 317.66 172.136 318.024 172.209C318.389 172.281 318.723 172.46 318.986 172.722C319.248 172.985 319.427 173.319 319.499 173.684C319.572 174.048 319.534 174.425 319.392 174.768C319.25 175.111 319.01 175.404 318.701 175.61C318.392 175.817 318.029 175.927 317.658 175.927C317.412 175.927 317.168 175.878 316.94 175.784C316.712 175.689 316.505 175.551 316.331 175.377C316.157 175.203 316.018 174.996 315.924 174.768C315.83 174.54 315.781 174.296 315.781 174.05Z" fill="#E0E0E0"/>
<path d="M292.335 196.802C291.212 196.437 290.222 195.747 289.491 194.82C288.76 193.892 288.32 192.769 288.227 191.592C288.135 190.415 288.393 189.236 288.97 188.206C289.547 187.176 290.416 186.34 291.468 185.803C292.521 185.267 293.708 185.055 294.881 185.193C296.053 185.332 297.159 185.815 298.057 186.582C298.955 187.349 299.605 188.365 299.926 189.501C300.247 190.637 300.223 191.844 299.859 192.967C299.617 193.713 299.23 194.403 298.721 195C298.212 195.596 297.59 196.087 296.891 196.443C296.192 196.799 295.43 197.014 294.649 197.075C293.867 197.137 293.081 197.044 292.335 196.802Z" fill="#4A4A4A"/>
<path d="M293.127 194.327C292.49 194.121 291.929 193.731 291.514 193.206C291.099 192.681 290.85 192.044 290.797 191.377C290.744 190.71 290.89 190.042 291.217 189.458C291.544 188.874 292.036 188.4 292.633 188.096C293.229 187.793 293.902 187.673 294.567 187.751C295.231 187.83 295.857 188.105 296.366 188.54C296.875 188.975 297.243 189.551 297.424 190.195C297.605 190.839 297.591 191.523 297.383 192.159C297.101 193.008 296.497 193.711 295.7 194.117C294.904 194.523 293.979 194.599 293.127 194.327Z" fill="#BABABA"/>
<path d="M293.596 192.901C293.243 192.786 292.931 192.569 292.701 192.277C292.471 191.985 292.333 191.631 292.304 191.261C292.276 190.89 292.358 190.52 292.54 190.196C292.722 189.872 292.996 189.609 293.327 189.441C293.659 189.273 294.033 189.207 294.401 189.252C294.77 189.297 295.118 189.45 295.399 189.692C295.681 189.934 295.885 190.255 295.984 190.613C296.084 190.971 296.075 191.35 295.958 191.703C295.799 192.172 295.463 192.56 295.021 192.784C294.58 193.008 294.068 193.05 293.596 192.901Z" fill="#E0E0E0"/>
<path d="M307.966 222.286C307.272 223.236 306.312 223.959 305.206 224.364C304.101 224.769 302.901 224.837 301.757 224.56C300.614 224.283 299.578 223.673 298.78 222.808C297.982 221.943 297.459 220.86 297.276 219.698C297.094 218.535 297.259 217.345 297.753 216.276C298.246 215.208 299.045 214.31 300.049 213.695C301.052 213.08 302.215 212.777 303.391 212.823C304.567 212.868 305.703 213.262 306.656 213.953C307.29 214.413 307.827 214.994 308.237 215.662C308.646 216.331 308.919 217.073 309.041 217.847C309.163 218.622 309.131 219.412 308.946 220.174C308.762 220.936 308.429 221.653 307.966 222.286Z" fill="#4A4A4A"/>
<path d="M305.879 220.667C305.487 221.21 304.943 221.624 304.315 221.857C303.687 222.09 303.004 222.132 302.353 221.976C301.701 221.821 301.11 221.475 300.656 220.984C300.201 220.492 299.902 219.876 299.797 219.215C299.693 218.553 299.787 217.876 300.068 217.268C300.349 216.66 300.804 216.149 301.376 215.8C301.948 215.451 302.61 215.28 303.28 215.308C303.949 215.336 304.595 215.562 305.135 215.958C305.856 216.485 306.339 217.277 306.478 218.159C306.618 219.041 306.402 219.943 305.879 220.667Z" fill="#BABABA"/>
<path d="M304.665 219.828C304.448 220.129 304.146 220.358 303.798 220.487C303.45 220.616 303.071 220.639 302.71 220.553C302.349 220.468 302.021 220.276 301.769 220.004C301.516 219.732 301.35 219.391 301.291 219.025C301.232 218.658 301.284 218.283 301.438 217.945C301.593 217.608 301.844 217.324 302.16 217.129C302.477 216.935 302.843 216.838 303.214 216.852C303.585 216.866 303.944 216.989 304.245 217.207C304.444 217.351 304.614 217.533 304.743 217.743C304.872 217.953 304.959 218.187 304.998 218.43C305.037 218.673 305.028 218.922 304.971 219.162C304.914 219.402 304.81 219.628 304.665 219.828Z" fill="#E0E0E0"/>
<path d="M336.995 215.217C337.689 216.173 338.084 217.313 338.13 218.494C338.176 219.674 337.871 220.842 337.254 221.849C336.636 222.855 335.733 223.656 334.66 224.15C333.587 224.644 332.392 224.809 331.225 224.623C330.059 224.437 328.973 223.91 328.107 223.107C327.24 222.304 326.631 221.262 326.357 220.114C326.082 218.965 326.155 217.76 326.565 216.652C326.975 215.545 327.705 214.584 328.662 213.891C329.296 213.429 330.014 213.097 330.777 212.914C331.539 212.731 332.33 212.7 333.104 212.823C333.878 212.946 334.621 213.221 335.288 213.632C335.956 214.043 336.536 214.582 336.995 215.217Z" fill="#4A4A4A"/>
<path d="M334.892 216.738C335.282 217.276 335.504 217.919 335.53 218.583C335.555 219.248 335.383 219.905 335.035 220.472C334.687 221.04 334.179 221.491 333.575 221.769C332.971 222.048 332.298 222.141 331.641 222.037C330.984 221.933 330.372 221.637 329.884 221.186C329.395 220.734 329.051 220.148 328.895 219.502C328.739 218.855 328.778 218.177 329.007 217.552C329.236 216.928 329.646 216.385 330.183 215.993C330.541 215.732 330.947 215.545 331.377 215.441C331.808 215.337 332.254 215.319 332.692 215.388C333.129 215.457 333.549 215.612 333.926 215.844C334.304 216.075 334.632 216.379 334.892 216.738Z" fill="#BABABA"/>
<path d="M333.678 217.629C333.825 217.825 333.932 218.049 333.991 218.288C334.05 218.526 334.061 218.774 334.024 219.016C333.986 219.259 333.9 219.492 333.772 219.701C333.643 219.91 333.474 220.091 333.274 220.234C332.872 220.527 332.371 220.65 331.879 220.574C331.388 220.498 330.947 220.23 330.652 219.829C330.483 219.633 330.357 219.403 330.281 219.155C330.205 218.907 330.181 218.646 330.211 218.388C330.241 218.131 330.324 217.882 330.455 217.658C330.586 217.434 330.761 217.24 330.971 217.087C331.181 216.934 331.42 216.827 331.674 216.771C331.927 216.716 332.189 216.714 332.444 216.765C332.698 216.815 332.939 216.918 333.151 217.067C333.364 217.216 333.543 217.407 333.678 217.629Z" fill="#E0E0E0"/>
<path d="M339.292 185.444C340.415 185.079 341.621 185.056 342.758 185.377C343.894 185.697 344.91 186.348 345.677 187.246C346.444 188.144 346.927 189.249 347.065 190.422C347.204 191.595 346.992 192.782 346.456 193.834C345.919 194.886 345.083 195.756 344.053 196.333C343.023 196.91 341.844 197.168 340.667 197.075C339.49 196.983 338.367 196.543 337.439 195.812C336.512 195.081 335.822 194.091 335.457 192.968C335.215 192.222 335.122 191.436 335.183 190.654C335.245 189.872 335.46 189.11 335.816 188.412C336.172 187.713 336.663 187.091 337.259 186.582C337.855 186.073 338.546 185.686 339.292 185.444Z" fill="#4A4A4A"/>
<path d="M340.085 187.904C340.721 187.697 341.405 187.682 342.049 187.863C342.693 188.044 343.27 188.412 343.705 188.921C344.14 189.43 344.414 190.056 344.493 190.72C344.572 191.385 344.452 192.058 344.148 192.654C343.844 193.251 343.37 193.744 342.786 194.07C342.202 194.397 341.534 194.543 340.867 194.49C340.2 194.437 339.563 194.188 339.038 193.773C338.513 193.358 338.123 192.797 337.917 192.16C337.646 191.308 337.721 190.383 338.127 189.587C338.533 188.79 339.237 188.186 340.085 187.904Z" fill="#BABABA"/>
<path d="M340.555 189.343C340.793 189.247 341.049 189.201 341.306 189.208C341.563 189.214 341.816 189.274 342.049 189.382C342.282 189.491 342.49 189.646 342.661 189.838C342.831 190.031 342.961 190.256 343.041 190.5C343.121 190.744 343.149 191.003 343.126 191.258C343.102 191.514 343.025 191.763 342.902 191.988C342.778 192.213 342.609 192.411 342.406 192.568C342.203 192.725 341.969 192.839 341.72 192.903C341.244 193.056 340.726 193.014 340.28 192.787C339.835 192.559 339.497 192.165 339.341 191.689C339.194 191.217 339.238 190.706 339.466 190.266C339.693 189.827 340.084 189.495 340.555 189.343Z" fill="#E0E0E0"/>
<path d="M332.173 198.726C332.173 201.606 331.319 204.422 329.718 206.817C328.118 209.212 325.844 211.078 323.183 212.18C320.522 213.283 317.594 213.571 314.769 213.009C311.944 212.447 309.349 211.06 307.312 209.023C305.276 206.987 303.889 204.392 303.327 201.567C302.765 198.742 303.053 195.814 304.155 193.153C305.258 190.492 307.124 188.217 309.519 186.617C311.914 185.017 314.73 184.163 317.61 184.163C321.472 184.163 325.176 185.697 327.907 188.428C330.638 191.159 332.173 194.864 332.173 198.726Z" fill="#5D5D5D"/>
<path d="M357.076 275.183L337.659 250.912L327.95 238.663C322.286 231.559 312.999 231.559 307.335 238.663L297.627 250.912C291.963 258.015 283.242 268.937 278.209 275.183C273.177 281.429 275.475 289.131 283.193 292.303C283.193 292.303 300.313 298.516 317.626 298.516C334.94 298.516 352.06 292.303 352.06 292.303C359.81 289.131 362.043 281.413 357.076 275.183ZM343.678 287.012C335.292 289.883 326.519 291.465 317.659 291.704C308.798 291.465 300.025 289.883 291.64 287.012C285.798 284.617 284.099 278.792 287.869 274.067L302.432 255.718L309.811 246.462C310.691 245.217 311.857 244.2 313.212 243.499C314.566 242.798 316.069 242.432 317.594 242.432C319.119 242.432 320.622 242.798 321.976 243.499C323.331 244.2 324.497 245.217 325.377 246.462L332.756 255.718C337.044 261.09 343.613 269.358 347.319 274.067C351.024 278.776 349.568 284.682 343.678 287.012Z" fill="#C2C2C2"/>
<path d="M402.528 184.876L373.403 195.782L358.791 201.251C350.28 204.487 347.464 213.274 352.416 220.862L361.04 233.921L378.16 259.81C382.561 266.477 390.587 266.736 395.959 260.36C395.959 260.36 407.156 245.992 412.512 229.616C417.868 213.241 417.237 194.94 417.237 194.94C416.638 186.591 410.004 182.06 402.528 184.876ZM409.713 201.251C409.873 210.127 408.689 218.975 406.202 227.497C403.233 235.846 399.015 243.696 393.694 250.781C389.6 255.636 383.548 255.409 380.215 250.377L367.27 230.798L360.797 220.911C359.885 219.686 359.281 218.26 359.035 216.752C358.789 215.245 358.909 213.701 359.385 212.249C359.861 210.798 360.679 209.482 361.769 208.413C362.86 207.344 364.191 206.552 365.652 206.105L376.736 201.947L398.71 193.711C404.211 191.542 409.227 195.005 409.713 201.251Z" fill="#C2C2C2"/>
<path d="M330.684 113.745C331.04 121.722 331.655 135.687 332.076 144.764L332.772 160.411C333.176 169.489 340.684 174.974 349.438 172.531L364.535 168.356L394.47 160.088C402.172 157.952 404.875 150.379 400.506 143.292C400.506 143.292 390.295 128.211 376.234 118.033C362.173 107.855 344.73 102.823 344.73 102.823C336.623 100.93 330.328 105.784 330.684 113.745ZM348.483 111.998C365.728 116.801 380.665 127.658 390.554 142.58C393.871 147.952 391.816 153.664 386.007 155.266L363.354 161.512L351.946 164.667C350.501 165.156 348.959 165.291 347.45 165.061C345.942 164.832 344.51 164.244 343.276 163.347C342.041 162.45 341.04 161.27 340.355 159.906C339.671 158.542 339.323 157.034 339.341 155.508L338.823 143.696C338.5 136.835 338.031 126.285 337.772 120.25C337.513 114.214 342.399 110.509 348.532 111.998H348.483Z" fill="#C2C2C2"/>
<path d="M240.847 160.086L270.782 168.355L285.863 172.529C294.633 174.957 302.141 169.487 302.529 160.41L303.241 144.763C303.646 135.685 304.261 121.721 304.617 113.744C304.973 105.766 298.63 100.799 290.507 102.821C290.507 102.821 273.015 107.87 259.019 118.032C245.022 128.193 234.747 143.29 234.747 143.29C230.427 150.394 233.145 157.966 240.847 160.086ZM244.682 142.578C254.566 127.651 269.504 116.791 286.753 111.996C292.886 110.507 297.675 114.213 297.416 120.248C297.157 126.284 296.672 136.834 296.364 143.695L295.831 155.507C295.852 157.032 295.506 158.54 294.824 159.904C294.141 161.268 293.141 162.449 291.908 163.346C290.674 164.243 289.243 164.832 287.735 165.061C286.227 165.291 284.686 165.155 283.242 164.665L271.899 161.51L249.245 155.264C243.436 153.662 241.365 147.95 244.682 142.578Z" fill="#C2C2C2"/>
<path d="M257.141 259.858C261.559 253.192 269.261 241.525 274.261 233.969L282.885 220.911C287.901 213.322 285.037 204.503 276.526 201.315L261.866 195.814L232.74 184.908C225.264 182.108 218.63 186.623 217.983 194.94C217.983 194.94 217.384 213.16 222.724 229.616C228.064 246.072 239.261 260.441 239.261 260.441C244.714 266.768 252.74 266.525 257.141 259.858ZM241.688 250.797C236.368 243.705 232.151 235.849 229.18 227.496C226.661 218.98 225.456 210.13 225.604 201.251C226.09 194.956 231.106 191.542 236.753 193.662L258.727 201.898L269.811 206.056C271.271 206.503 272.603 207.295 273.694 208.364C274.784 209.433 275.602 210.749 276.078 212.2C276.553 213.652 276.674 215.196 276.428 216.703C276.182 218.211 275.578 219.637 274.665 220.862L268.193 230.749C264.406 236.477 258.581 245.312 255.248 250.328C251.915 255.344 245.766 255.603 241.688 250.797Z" fill="#C2C2C2"/>
<path d="M328.258 198.728C328.258 200.824 327.636 202.873 326.472 204.616C325.307 206.359 323.652 207.717 321.715 208.52C319.778 209.322 317.647 209.532 315.591 209.123C313.536 208.714 311.647 207.704 310.165 206.222C308.683 204.74 307.673 202.851 307.264 200.795C306.855 198.74 307.065 196.609 307.867 194.672C308.669 192.735 310.028 191.08 311.771 189.915C313.514 188.751 315.563 188.129 317.659 188.129C320.469 188.134 323.162 189.252 325.149 191.238C327.135 193.225 328.253 195.918 328.258 198.728Z" fill="#2A2A2A"/>
<path d="M317.368 314.406L184.684 314.082C185.007 309.94 186.981 308.224 189.376 306.121C191.771 304.017 197.256 301.089 197.256 294.794C197.256 294.794 280.799 308.5 317.385 308.839" fill="#5D5D5D"/>
<path d="M317.352 308.809C298.275 308.048 267.337 303.955 241.091 301.317C246.151 304.697 251.732 307.223 257.612 308.793C266.269 311.155 301.009 311.56 317.352 311.754" fill="#4A4A4A"/>
<path d="M233.065 306.624H233.211C232.428 306.24 231.686 305.78 230.994 305.249C231.514 305.923 232.242 306.406 233.065 306.624Z" fill="#5D5D5D"/>
<path d="M272.466 314.211H269.796C263.397 314.331 257.03 313.279 251.01 311.105C248.554 310.171 245.996 309.536 243.389 309.211C239.877 308.966 236.439 308.083 233.243 306.606H233.098C232.279 306.397 231.552 305.925 231.027 305.263C230.169 304.658 229.465 303.86 228.972 302.933C228.137 301.409 226.964 300.096 225.541 299.098L222.952 298.71C223.421 299.195 224.57 300.328 226.593 302.027C227.478 302.811 228.175 303.784 228.632 304.875C228.946 305.731 229.462 306.5 230.135 307.117C230.807 307.733 231.618 308.18 232.499 308.418C234.852 309.062 237.247 309.537 239.667 309.842C242.602 310.159 245.494 310.794 248.292 311.736C250.842 312.855 253.506 313.696 256.237 314.244H272.418L272.466 314.211Z" fill="#767676"/>
<path d="M227.839 300.605C228.927 301.553 229.785 302.737 230.347 304.067C230.536 304.492 230.764 304.898 231.026 305.281C231.718 305.812 232.46 306.273 233.243 306.656C235.449 307.243 237.693 307.681 239.958 307.967C243.074 308.301 246.141 308.991 249.1 310.022C253.453 312.045 261.851 314.051 272.434 313.598V314.213L274.618 314.132V313.177C262.159 313.857 256.398 311.931 251.333 310.249C248.808 309.301 246.179 308.654 243.502 308.323C235.508 307.514 230.881 304.844 229.845 302.563C229.173 301.321 228.266 300.222 227.175 299.326L226.285 299.181L227.839 300.605Z" fill="#3F3F3F"/>
<path d="M249.1 310.021C246.141 308.989 243.073 308.3 239.957 307.966C237.692 307.68 235.449 307.242 233.242 306.655C236.438 308.132 239.876 309.015 243.388 309.26C245.995 309.584 248.553 310.22 251.009 311.153C257.029 313.327 263.396 314.38 269.795 314.26H272.465V313.645C261.85 314.05 253.452 312.043 249.1 310.021Z" fill="#3F3F3F"/>
<path d="M227.838 300.603L226.22 299.211L225.492 299.114C226.915 300.113 228.088 301.425 228.923 302.949C229.416 303.876 230.12 304.674 230.978 305.279C230.715 304.896 230.487 304.49 230.298 304.066C229.75 302.74 228.91 301.556 227.838 300.603Z" fill="#3F3F3F"/>
<path d="M214.118 297.417C214.118 297.417 207.289 297.757 206.739 299.213C206.48 299.909 202.71 304.747 202.71 304.747L208.94 305.281L212.483 301.349L218.276 300.961L220.347 298.129L214.118 297.417Z" fill="#4A4A4A"/>
<path d="M219.004 302.189C217.205 302.404 215.421 302.733 213.664 303.176C213.664 303.419 210.687 306.655 210.687 306.655L205.509 307.529L207.321 309.681L210.687 307.529L213.664 305.28L216.674 303.662L220.347 303.549L219.004 302.189Z" fill="#4A4A4A"/>
<path d="M317.352 314.407L450.554 314.148C450.231 310.006 448.273 308.275 445.878 306.187C443.483 304.1 437.998 301.155 437.998 294.861C437.998 294.861 353.937 308.517 317.368 308.857" fill="#5D5D5D"/>
<path d="M317.368 308.807C336.494 308.16 367.707 304.293 394.131 301.38C389.061 304.749 383.475 307.268 377.594 308.84C368.953 311.218 333.711 311.574 317.368 311.752" fill="#4A4A4A"/>
<path d="M402.109 306.687H401.979C402.757 306.304 403.494 305.843 404.18 305.312C403.663 305.989 402.934 306.474 402.109 306.687Z" fill="#5D5D5D"/>
<path d="M362.756 314.278H365.41C371.802 314.436 378.169 313.422 384.196 311.285C386.652 310.353 389.21 309.718 391.817 309.392C395.331 309.127 398.771 308.245 401.979 306.786H402.108C402.929 306.581 403.658 306.109 404.179 305.443C405.046 304.837 405.756 304.032 406.251 303.097C407.082 301.58 408.25 300.274 409.665 299.278L412.27 298.89C411.785 299.375 410.652 300.508 408.629 302.207C407.734 302.986 407.031 303.96 406.574 305.055C406.262 305.913 405.747 306.683 405.074 307.3C404.401 307.917 403.589 308.362 402.707 308.599C400.359 309.24 397.969 309.716 395.555 310.023C392.613 310.33 389.715 310.965 386.914 311.916C384.365 313.038 381.701 313.879 378.969 314.424H362.788L362.756 314.278Z" fill="#767676"/>
<path d="M407.384 300.651C406.29 301.598 405.426 302.783 404.86 304.114C404.67 304.543 404.443 304.955 404.18 305.344C403.494 305.875 402.757 306.336 401.98 306.719C399.768 307.308 397.519 307.745 395.248 308.03C392.138 308.364 389.076 309.053 386.122 310.085C381.769 312.091 373.371 314.114 362.789 313.645V314.276L360.604 314.179V313.224C373.064 313.92 378.808 311.994 383.889 310.295C386.412 309.357 389.034 308.711 391.705 308.37C399.714 307.577 404.326 304.907 405.361 302.609C406.079 301.366 407.023 300.269 408.144 299.373L408.937 299.26L407.384 300.651Z" fill="#3F3F3F"/>
<path d="M386.121 310.087C389.075 309.055 392.137 308.366 395.247 308.032C397.518 307.748 399.767 307.31 401.979 306.721C398.771 308.18 395.331 309.062 391.817 309.327C389.208 309.673 386.649 310.331 384.196 311.284C378.176 313.46 371.809 314.513 365.41 314.391H362.756V313.76C373.371 314.116 381.769 312.094 386.121 310.087Z" fill="#3F3F3F"/>
<path d="M407.384 300.653L409.002 299.278L409.714 299.181C408.299 300.176 407.131 301.483 406.3 302.999C405.805 303.935 405.095 304.739 404.229 305.346C404.491 304.957 404.719 304.545 404.908 304.116C405.461 302.789 406.307 301.605 407.384 300.653Z" fill="#3F3F3F"/>
<path d="M421.089 297.465C421.089 297.465 427.934 297.804 428.484 299.277C428.743 299.973 432.497 304.811 432.497 304.811L426.267 305.345L422.723 301.397L416.931 301.008L414.859 298.193L421.089 297.465Z" fill="#4A4A4A"/>
<path d="M416.202 302.256C418.002 302.469 419.786 302.798 421.542 303.243C421.542 303.469 424.519 306.722 424.519 306.722L429.697 307.596L427.885 309.667L424.519 307.531L421.542 305.282L418.549 303.664L414.859 303.566L416.202 302.256Z" fill="#4A4A4A"/>
<path d="M294.148 308.631C293.938 308.89 293.469 309.246 293.242 309.553C293.044 309.799 292.89 310.079 292.789 310.378C292.967 310.265 293.194 310.039 293.485 309.796C293.776 309.553 293.808 309.553 293.97 309.408C294.205 309.266 294.408 309.079 294.569 308.857C294.635 308.718 294.669 308.566 294.669 308.412C294.669 308.258 294.635 308.106 294.569 307.967C294.525 307.903 294.502 307.827 294.502 307.749C294.502 307.671 294.525 307.595 294.569 307.531C294.721 307.285 294.9 307.057 295.103 306.851C294.782 306.919 294.493 307.089 294.278 307.336C294.206 307.448 294.146 307.568 294.1 307.692C294.073 307.831 294.073 307.974 294.1 308.113C294.197 308.372 294.213 308.469 294.148 308.631Z" fill="#5D5D5D"/>
<path d="M298.646 309.068C298.43 309.305 298.198 309.527 297.951 309.731C297.848 309.811 297.768 309.915 297.717 310.033C297.666 310.152 297.646 310.282 297.659 310.411C297.791 310.237 297.963 310.098 298.161 310.006C298.503 309.853 298.802 309.62 299.035 309.327C299.212 308.971 299.253 308.562 299.148 308.178C299.148 307.887 299.148 307.693 299.051 307.515C298.901 307.71 298.816 307.948 298.808 308.194C298.801 308.492 298.746 308.787 298.646 309.068Z" fill="#5D5D5D"/>
<path d="M304.375 309.44C304.019 309.893 303.534 310.475 303.631 310.799C304.038 310.458 304.422 310.091 304.78 309.698C304.898 309.445 304.959 309.169 304.959 308.889C304.959 308.61 304.898 308.334 304.78 308.08C304.602 308.291 304.618 308.97 304.375 309.44Z" fill="#5D5D5D"/>
<path d="M309.763 309.488C309.763 309.828 309.65 310.087 309.586 310.313C309.521 310.54 309.472 310.831 309.586 310.944C309.668 310.767 309.777 310.603 309.909 310.459C310.08 310.194 310.196 309.896 310.249 309.585C310.402 309.086 310.355 308.546 310.119 308.08C309.975 308.543 309.856 309.013 309.763 309.488Z" fill="#5D5D5D"/>
<path d="M313.971 309.666C313.874 309.941 313.712 310.265 313.631 310.524C313.579 310.742 313.579 310.969 313.631 311.187C313.763 311.024 313.882 310.851 313.987 310.669C314.19 310.415 314.354 310.131 314.472 309.828C314.622 309.289 314.571 308.714 314.327 308.21C314.165 308.436 314.213 309.084 313.971 309.666Z" fill="#5D5D5D"/>
<path d="M318.825 309.891C318.659 310.075 318.512 310.275 318.388 310.489C318.242 310.716 318.388 311.007 318.485 311.023C318.485 310.732 318.792 310.684 319.229 310.15C319.666 309.616 319.229 309.082 319.407 308.871C319.051 308.839 318.986 309.664 318.825 309.891Z" fill="#5D5D5D"/>
<path d="M323.129 309.666C322.482 310.2 322.045 310.766 321.705 310.701C321.802 310.895 322.191 310.847 322.482 310.701C322.826 310.513 323.146 310.285 323.436 310.022L323.614 309.876L324.084 309.569C324.205 309.444 324.309 309.302 324.391 309.148C324.483 308.941 324.548 308.724 324.585 308.501C324.262 308.711 324.1 309.229 323.404 309.455C323.304 309.513 323.211 309.584 323.129 309.666Z" fill="#5D5D5D"/>
<path d="M329.003 309.293C328.42 309.972 328.388 310.539 328.129 310.765C328.517 310.765 328.938 310.086 329.326 309.649C329.715 309.212 329.941 309.212 330.038 308.856C330.101 308.617 330.101 308.366 330.038 308.128C329.925 308.257 329.893 308.516 329.747 308.71C329.601 308.904 329.343 309.002 329.003 309.293Z" fill="#5D5D5D"/>
<path d="M335.831 308.744C335.679 309.121 335.586 309.52 335.556 309.925C335.559 310.189 335.603 310.451 335.685 310.702C335.782 310.468 335.853 310.224 335.895 309.974C335.976 309.65 336.154 309.343 336.268 308.954C336.476 308.324 336.553 307.658 336.494 306.996C336.203 307.255 336.106 308.048 335.831 308.744Z" fill="#5D5D5D"/>
<path d="M342.093 308.354C341.894 308.911 341.747 309.485 341.656 310.069C342.093 309.62 342.401 309.061 342.546 308.451C342.655 308.148 342.68 307.82 342.617 307.504C342.554 307.187 342.407 306.894 342.19 306.655C342.258 307.223 342.225 307.798 342.093 308.354Z" fill="#5D5D5D"/>
<path d="M252.078 298.531C254.103 296.845 256.268 295.334 258.55 294.017C256.093 295.015 253.818 296.415 251.819 298.159C250.573 299.357 249.149 300.424 248.761 301.848C248.534 302.512 248.437 303.111 248.243 303.596C248.104 304.01 247.871 304.386 247.563 304.696C247.939 304.444 248.237 304.09 248.421 303.677C248.664 303.191 248.826 302.577 249.084 301.962C249.44 300.7 250.864 299.729 252.078 298.531Z" fill="#5D5D5D"/>
<path d="M258.129 301.17C258.921 300.011 259.881 298.975 260.977 298.096C261.899 297.303 262.595 296.672 263.113 296.251C262.579 296.559 261.753 297.093 260.75 297.869C259.566 298.718 258.542 299.77 257.724 300.976C256.834 302.384 256.737 303.937 256.106 304.94C255.611 305.721 254.904 306.344 254.067 306.736C255.014 306.496 255.842 305.921 256.397 305.118C257.158 303.986 257.336 302.448 258.129 301.17Z" fill="#5D5D5D"/>
<path d="M265.281 303.193C266.398 301.805 267.592 300.482 268.857 299.228C267.321 300.211 265.977 301.467 264.893 302.934C264.561 303.41 264.269 303.914 264.019 304.438C263.787 304.877 263.533 305.304 263.259 305.717C262.826 306.274 262.32 306.769 261.754 307.189C262.435 306.909 263.044 306.477 263.534 305.927C263.865 305.53 264.158 305.102 264.408 304.649C264.671 304.147 264.963 303.661 265.281 303.193Z" fill="#5D5D5D"/>
<path d="M270.799 305.587C271.173 304.694 271.611 303.829 272.11 302.998C272.547 302.287 273.016 301.801 273.226 301.38C272.711 301.789 272.239 302.25 271.818 302.756C271.226 303.562 270.731 304.437 270.346 305.361C270.07 306.277 269.626 307.133 269.035 307.885C268.569 308.343 268.131 308.83 267.725 309.341C268.081 309.083 268.615 308.694 269.343 308.128C270.016 307.403 270.514 306.534 270.799 305.587Z" fill="#5D5D5D"/>
<path d="M277.74 306.153C278.258 304.94 279.035 303.953 279.196 303.419C278.391 304.134 277.746 305.01 277.303 305.992C277.164 306.321 277.077 306.671 277.044 307.027V307.917C276.985 308.302 276.79 308.652 276.494 308.904C276.713 308.841 276.91 308.721 277.067 308.556C277.223 308.391 277.333 308.187 277.384 307.966C277.402 307.346 277.522 306.734 277.74 306.153Z" fill="#5D5D5D"/>
<path d="M283.809 306.768C284.264 306.146 284.644 305.473 284.942 304.762C284.337 305.263 283.818 305.858 283.405 306.526C283.16 306.932 282.964 307.367 282.822 307.82C282.747 308.127 282.709 308.442 282.709 308.759C282.968 308.387 283.227 307.626 283.809 306.768Z" fill="#5D5D5D"/>
<path d="M388.063 295.831C387.558 293 386.85 290.21 385.943 287.481C386.121 288.986 386.963 292.141 387.561 295.911C388.16 299.682 388.872 302.966 387.982 304.293C388.623 303.313 388.898 302.139 388.759 300.976C388.678 299.244 388.445 297.522 388.063 295.831Z" fill="#5D5D5D"/>
<path d="M383.047 298.952C382.846 297.398 382.549 295.858 382.157 294.34C381.85 293.03 381.672 291.962 381.478 291.315C381.478 291.978 381.607 293.062 381.817 294.405C382.028 295.748 382.335 297.302 382.562 299.001C382.562 299.858 382.562 300.619 382.562 301.46C382.562 302.302 382.465 302.981 382.416 303.645C382.433 304.67 382.205 305.685 381.753 306.606C382.377 305.753 382.732 304.733 382.772 303.677C382.869 303.013 382.934 302.269 382.999 301.492C383.063 300.716 383.047 299.842 383.047 298.952Z" fill="#5D5D5D"/>
<path d="M377.805 301.074C377.627 297.692 377.465 294.86 377.254 293.533C377.128 296.045 377.128 298.562 377.254 301.074C377.254 301.899 377.384 302.692 377.335 303.468C377.256 304.161 377.132 304.847 376.963 305.523C376.648 306.496 376.648 307.544 376.963 308.517C376.822 307.533 376.94 306.529 377.303 305.604C377.521 304.917 377.683 304.214 377.788 303.501C377.918 302.708 377.821 301.915 377.805 301.074Z" fill="#5D5D5D"/>
<path d="M371.09 303.192C370.977 300.473 371.09 298.192 370.977 297.108C370.652 299.118 370.527 301.156 370.605 303.192C370.864 305.894 369.893 308.046 370.071 309.211C370.2 308.693 370.378 307.884 370.702 306.881C371.056 305.685 371.188 304.435 371.09 303.192Z" fill="#5D5D5D"/>
<path d="M365.119 305.603C365.26 303.982 365.189 302.35 364.909 300.748C364.747 301.574 364.909 303.451 364.634 305.506C364.472 305.991 364.488 306.606 364.229 306.929C363.97 307.253 363.922 307.269 363.76 307.496C363.688 307.61 363.641 307.738 363.621 307.872C363.602 308.006 363.611 308.142 363.647 308.273C363.841 308.855 364.343 308.806 364.537 308.952C364.731 309.098 364.537 309.373 364.456 309.535L364.682 309.276C364.742 309.215 364.775 309.134 364.775 309.049C364.775 308.964 364.742 308.883 364.682 308.823C364.424 308.596 364.035 308.483 364.003 308.24C363.922 307.868 364.229 307.658 364.618 307.221C364.802 306.999 364.92 306.73 364.958 306.444C364.974 306.169 365.038 305.894 365.119 305.603Z" fill="#5D5D5D"/>
<path d="M359.811 306.557C359.982 305.755 360.031 304.931 359.957 304.114C359.929 303.575 359.929 303.035 359.957 302.496C359.743 303.01 359.623 303.558 359.601 304.114C359.567 304.894 359.458 305.669 359.277 306.428C359.115 307.269 358.387 307.609 357.837 308.046C357.62 308.227 357.46 308.467 357.376 308.737C357.293 309.007 357.29 309.295 357.368 309.567C357.378 309.317 357.447 309.073 357.567 308.854C357.688 308.635 357.858 308.447 358.064 308.305C358.598 308.046 359.585 307.577 359.811 306.557Z" fill="#5D5D5D"/>
<path d="M353.21 307.109C353.529 306.544 353.789 305.948 353.986 305.329C354.082 304.909 354.142 304.481 354.164 304.051C353.966 304.425 353.799 304.815 353.663 305.216C353.485 305.701 353.096 306.235 352.805 306.834C352.514 307.433 352.061 307.951 351.737 308.371C351.456 308.683 351.201 309.019 350.977 309.374C351.333 309.138 351.673 308.878 351.996 308.598C352.446 308.14 352.852 307.642 353.21 307.109Z" fill="#5D5D5D"/>
<path d="M348.614 307.498C348.44 306.896 348.326 306.278 348.274 305.653C348.109 305.873 348.019 306.139 348.015 306.414C348.005 306.806 348.048 307.198 348.145 307.579C348.355 308.372 347.578 308.582 347.319 308.841C347.591 308.849 347.861 308.8 348.112 308.695C348.312 308.575 348.468 308.394 348.558 308.178C348.649 307.963 348.668 307.725 348.614 307.498Z" fill="#5D5D5D"/>
</g>
</svg>
