<svg width="32" height="32" viewBox="0 0 32 32" fill="none" xmlns="http://www.w3.org/2000/svg">
<path opacity="0.4" d="M12.6799 5.64006L24.0932 11.3467C29.2132 13.9067 29.2132 18.0934 24.0932 20.6534L12.6799 26.3601C4.99986 30.2001 1.86653 27.0534 5.70653 19.3867L6.86653 17.0801C7.19986 16.4001 7.19986 15.6134 6.86653 14.9334L5.70653 12.6134C1.86653 4.94672 5.0132 1.80006 12.6799 5.64006Z" fill="white"/>
<path d="M19.7864 17H12.5864C12.0398 17 11.5864 16.5467 11.5864 16C11.5864 15.4533 12.0398 15 12.5864 15H19.7864C20.3331 15 20.7864 15.4533 20.7864 16C20.7864 16.5467 20.3331 17 19.7864 17Z" fill="white"/>
</svg>
