<svg width="31" height="31" viewBox="0 0 31 31" fill="none" xmlns="http://www.w3.org/2000/svg">
<path d="M7.15655 25.2134C6.36863 25.2134 5.63238 24.9422 5.1028 24.4384C4.43113 23.8055 4.10821 22.8497 4.22446 21.8163L4.70238 17.6313C4.7928 16.8434 5.27072 15.7972 5.82613 15.2288L16.4307 4.00425C19.0786 1.20133 21.8428 1.12383 24.6457 3.77175C27.4486 6.41967 27.5261 9.18383 24.8782 11.9868L14.2736 23.2113C13.7311 23.7926 12.7236 24.3351 11.9357 24.4643L7.77655 25.1747C7.55697 25.1876 7.36321 25.2134 7.15655 25.2134ZM20.577 3.75883C19.5824 3.75883 18.717 4.37883 17.8386 5.30883L7.23405 16.5463C6.97571 16.8176 6.67863 17.4634 6.62697 17.838L6.14905 22.023C6.09738 22.4493 6.20072 22.798 6.43322 23.0176C6.66572 23.2372 7.01447 23.3147 7.44072 23.2501L11.5999 22.5397C11.9745 22.4751 12.5945 22.1393 12.8528 21.868L23.4574 10.6434C25.059 8.93842 25.6403 7.36258 23.3024 5.16675C22.2691 4.17217 21.3778 3.75883 20.577 3.75883Z" fill="#959595"/>
<path d="M22.3972 14.1438C22.3714 14.1438 22.3327 14.1438 22.3068 14.1438C18.2768 13.7433 15.0347 10.6821 14.4147 6.67793C14.3372 6.14834 14.6989 5.65751 15.2285 5.56709C15.7581 5.48959 16.2489 5.85126 16.3393 6.38084C16.8302 9.50668 19.3618 11.9092 22.5135 12.2192C23.0431 12.2708 23.4306 12.7488 23.3789 13.2783C23.3143 13.7692 22.8881 14.1438 22.3972 14.1438Z" fill="#959595"/>
<path d="M27.125 29.3853H3.875C3.34542 29.3853 2.90625 28.9461 2.90625 28.4165C2.90625 27.8869 3.34542 27.4478 3.875 27.4478H27.125C27.6546 27.4478 28.0938 27.8869 28.0938 28.4165C28.0938 28.9461 27.6546 29.3853 27.125 29.3853Z" fill="#959595"/>
</svg>
