<svg width="41" height="41" viewBox="0 0 41 41" fill="none" xmlns="http://www.w3.org/2000/svg">
<path opacity="0.4" d="M33.9614 35.7725C32.3385 36.9684 30.2031 37.5834 27.6576 37.5834H13.3418C12.9318 37.5834 12.5218 37.5663 12.1289 37.515L23.9164 25.7275L33.9614 35.7725Z" fill="#F4A71D"/>
<path opacity="0.4" d="M37.5824 13.3423V27.6582C37.5824 30.2036 36.9674 32.339 35.7716 33.9619L25.7266 23.9169L37.5141 12.1294C37.5653 12.5223 37.5824 12.9323 37.5824 13.3423Z" fill="#F4A71D"/>
<path opacity="0.4" d="M25.7268 23.9165L35.7719 33.9615C35.2764 34.679 34.6785 35.2769 33.961 35.7723L23.916 25.7273L12.1285 37.5148C11.0352 37.4465 10.0444 37.2244 9.13894 36.8827C5.48311 35.5502 3.41602 32.3044 3.41602 27.6578V13.3419C3.41602 7.12358 7.12309 3.4165 13.3414 3.4165H27.6573C32.3039 3.4165 35.5498 5.48358 36.8823 9.13942C37.2239 10.0448 37.446 11.0357 37.5143 12.129L25.7268 23.9165Z" fill="#F4A71D"/>
<path d="M25.7266 23.9167L35.7716 33.9617C35.2762 34.6792 34.6782 35.2772 33.9608 35.7726L23.9157 25.7276L12.1283 37.5151C11.0349 37.4467 10.0441 37.2246 9.13867 36.883L9.80489 36.2167L36.882 9.13965C37.2237 10.0451 37.4457 11.0359 37.5141 12.1292L25.7266 23.9167Z" fill="#F4A71D"/>
<path d="M20.9105 13.5473C20.2614 10.7285 17.7672 9.46435 15.5805 9.44727C13.3939 9.44727 10.8997 10.7114 10.2505 13.5302C9.53303 16.6564 11.4464 19.2702 13.1718 20.9102C13.8551 21.5593 14.7093 21.8669 15.5805 21.8669C16.4518 21.8669 17.3059 21.5423 17.9893 20.9102C19.7147 19.2702 21.628 16.6564 20.9105 13.5473ZM15.6318 16.2123C14.6922 16.2123 13.9234 15.4435 13.9234 14.5039C13.9234 13.5643 14.6751 12.7956 15.6318 12.7956H15.6489C16.5885 12.7956 17.3572 13.5643 17.3572 14.5039C17.3572 15.4435 16.5714 16.2123 15.6318 16.2123Z" fill="#F4A71D"/>
</svg>
