<svg width="31" height="31" viewBox="0 0 31 31" fill="none" xmlns="http://www.w3.org/2000/svg">
<path d="M20.0202 14.5312H10.9785C10.4489 14.5312 10.0098 14.0921 10.0098 13.5625C10.0098 13.0329 10.4489 12.5938 10.9785 12.5938H20.0202C20.5498 12.5938 20.9889 13.0329 20.9889 13.5625C20.9889 14.0921 20.5498 14.5312 20.0202 14.5312Z" fill="#959595"/>
<path d="M20.6673 28.8297C20.2282 28.8297 19.789 28.7006 19.4144 28.4552L13.9119 24.7868H9.04232C4.59898 24.7868 1.61523 21.803 1.61523 17.3597V9.6097C1.61523 5.16637 4.59898 2.18262 9.04232 2.18262H21.959C26.4023 2.18262 29.3861 5.16637 29.3861 9.6097V17.3597C29.3861 21.4672 26.8286 24.3347 22.9277 24.7351V26.5693C22.9277 27.4089 22.4756 28.1709 21.7394 28.5584C21.4036 28.7393 21.029 28.8297 20.6673 28.8297ZM9.04232 4.10719C5.70982 4.10719 3.55273 6.26427 3.55273 9.59677V17.3468C3.55273 20.6793 5.70982 22.8364 9.04232 22.8364H14.209C14.4027 22.8364 14.5836 22.888 14.7515 23.0043L20.4994 26.8276C20.6415 26.9181 20.7707 26.8793 20.8352 26.8406C20.8998 26.8018 21.0032 26.7243 21.0032 26.5564V23.8051C21.0032 23.2755 21.4423 22.8364 21.9719 22.8364C25.3044 22.8364 27.4615 20.6793 27.4615 17.3468V9.59677C27.4615 6.26427 25.3044 4.10719 21.9719 4.10719H9.04232Z" fill="#959595"/>
</svg>
