<svg width="31" height="31" viewBox="0 0 31 31" fill="none" xmlns="http://www.w3.org/2000/svg">
<path d="M19.3743 29.3856H11.6243C5.9281 29.3856 4.19727 27.6547 4.19727 21.9585V9.04183C4.19727 3.34558 5.9281 1.61475 11.6243 1.61475H19.3743C25.0706 1.61475 26.8014 3.34558 26.8014 9.04183V21.9585C26.8014 27.6547 25.0706 29.3856 19.3743 29.3856ZM11.6243 3.55225C7.00018 3.55225 6.13477 4.43058 6.13477 9.04183V21.9585C6.13477 26.5697 7.00018 27.4481 11.6243 27.4481H19.3743C23.9985 27.4481 24.8639 26.5697 24.8639 21.9585V9.04183C24.8639 4.43058 23.9985 3.55225 19.3743 3.55225H11.6243Z" fill="#959595"/>
<path d="M18.0827 8.07275H12.916C12.3864 8.07275 11.9473 7.63359 11.9473 7.104C11.9473 6.57442 12.3864 6.13525 12.916 6.13525H18.0827C18.6123 6.13525 19.0514 6.57442 19.0514 7.104C19.0514 7.63359 18.6123 8.07275 18.0827 8.07275Z" fill="#959595"/>
<path d="M15.5001 25.6526C13.8597 25.6526 12.5293 24.3222 12.5293 22.6818C12.5293 21.0414 13.8597 19.7109 15.5001 19.7109C17.1405 19.7109 18.471 21.0414 18.471 22.6818C18.471 24.3222 17.1405 25.6526 15.5001 25.6526ZM15.5001 21.6355C14.9318 21.6355 14.4668 22.1005 14.4668 22.6689C14.4668 23.2372 14.9318 23.7022 15.5001 23.7022C16.0685 23.7022 16.5335 23.2372 16.5335 22.6689C16.5335 22.1005 16.0685 21.6355 15.5001 21.6355Z" fill="#959595"/>
</svg>
