<svg width="41" height="41" viewBox="0 0 41 41" fill="none" xmlns="http://www.w3.org/2000/svg">
<path opacity="0.4" d="M27.744 3.4165H13.2573C8.54232 3.4165 6.83398 5.12484 6.83398 9.92525V31.0744C6.83398 35.8748 8.54232 37.5832 13.2573 37.5832H27.7269C32.459 37.5832 34.1673 35.8748 34.1673 31.0744V9.92525C34.1673 5.12484 32.459 3.4165 27.744 3.4165Z" fill="#F4A71D"/>
<path d="M23.9173 10.6772H17.084C16.3836 10.6772 15.8027 10.0964 15.8027 9.396C15.8027 8.69558 16.3836 8.11475 17.084 8.11475H23.9173C24.6177 8.11475 25.1986 8.69558 25.1986 9.396C25.1986 10.0964 24.6177 10.6772 23.9173 10.6772Z" fill="#F4A71D"/>
<path d="M20.4993 32.9709C22.1505 32.9709 23.4889 31.6324 23.4889 29.9813C23.4889 28.3302 22.1505 26.9917 20.4993 26.9917C18.8482 26.9917 17.5098 28.3302 17.5098 29.9813C17.5098 31.6324 18.8482 32.9709 20.4993 32.9709Z" fill="#F4A71D"/>
</svg>
