<svg width="41" height="41" viewBox="0 0 41 41" fill="none" xmlns="http://www.w3.org/2000/svg">
<path opacity="0.4" d="M29.041 35.0207H11.9577C6.83268 35.0207 3.41602 32.4582 3.41602 26.479V14.5207C3.41602 8.5415 6.83268 5.979 11.9577 5.979H29.041C34.166 5.979 37.5827 8.5415 37.5827 14.5207V26.479C37.5827 32.4582 34.166 35.0207 29.041 35.0207Z" fill="#F4A71D"/>
<path d="M20.4994 21.9864C19.0644 21.9864 17.6123 21.5423 16.5019 20.6369L11.1548 16.366C10.6082 15.9219 10.5057 15.1189 10.9498 14.5723C11.394 14.0256 12.1969 13.9231 12.7436 14.3673L18.0907 18.6381C19.389 19.6802 21.5927 19.6802 22.8911 18.6381L28.2382 14.3673C28.7848 13.9231 29.6048 14.0085 30.0319 14.5723C30.4761 15.1189 30.3907 15.9389 29.8269 16.366L24.4798 20.6369C23.3865 21.5423 21.9344 21.9864 20.4994 21.9864Z" fill="#F4A71D"/>
</svg>
