<svg width="31" height="31" viewBox="0 0 31 31" fill="none" xmlns="http://www.w3.org/2000/svg">
<path d="M21.959 27.4481H9.04232C4.32773 27.4481 1.61523 24.7356 1.61523 20.021V10.9793C1.61523 6.26475 4.32773 3.55225 9.04232 3.55225H21.959C26.6736 3.55225 29.3861 6.26475 29.3861 10.9793V20.021C29.3861 24.7356 26.6736 27.4481 21.959 27.4481ZM9.04232 5.48975C5.34815 5.48975 3.55273 7.28516 3.55273 10.9793V20.021C3.55273 23.7152 5.34815 25.5106 9.04232 25.5106H21.959C25.6532 25.5106 27.4486 23.7152 27.4486 20.021V10.9793C27.4486 7.28516 25.6532 5.48975 21.959 5.48975H9.04232Z" fill="#959595"/>
<path d="M15.4989 16.6235C14.4139 16.6235 13.316 16.2876 12.4764 15.6031L8.43352 12.3739C8.02019 12.0381 7.94269 11.431 8.27853 11.0176C8.61436 10.6043 9.22145 10.5268 9.63478 10.8626L13.6777 14.0918C14.6594 14.8797 16.3256 14.8797 17.3073 14.0918L21.3502 10.8626C21.7635 10.5268 22.3835 10.5914 22.7064 11.0176C23.0423 11.431 22.9777 12.051 22.5514 12.3739L18.5085 15.6031C17.6819 16.2876 16.5839 16.6235 15.4989 16.6235Z" fill="#959595"/>
</svg>
