<svg width="31" height="31" viewBox="0 0 31 31" fill="none" xmlns="http://www.w3.org/2000/svg">
<path d="M15.4993 16.4689C11.4048 16.4689 8.07227 13.1364 8.07227 9.04183C8.07227 4.94725 11.4048 1.61475 15.4993 1.61475C19.5939 1.61475 22.9264 4.94725 22.9264 9.04183C22.9264 13.1364 19.5939 16.4689 15.4993 16.4689ZM15.4993 3.55225C12.4768 3.55225 10.0098 6.01933 10.0098 9.04183C10.0098 12.0643 12.4768 14.5314 15.4993 14.5314C18.5218 14.5314 20.9889 12.0643 20.9889 9.04183C20.9889 6.01933 18.5218 3.55225 15.4993 3.55225Z" fill="#959595"/>
<path d="M26.5951 29.3854C26.0655 29.3854 25.6264 28.9463 25.6264 28.4167C25.6264 23.9604 21.0797 20.3438 15.4997 20.3438C9.91971 20.3438 5.37305 23.9604 5.37305 28.4167C5.37305 28.9463 4.93388 29.3854 4.4043 29.3854C3.87471 29.3854 3.43555 28.9463 3.43555 28.4167C3.43555 22.9013 8.84763 18.4062 15.4997 18.4062C22.1518 18.4062 27.5639 22.9013 27.5639 28.4167C27.5639 28.9463 27.1247 29.3854 26.5951 29.3854Z" fill="#959595"/>
</svg>
