<svg width="19" height="18" viewBox="0 0 19 18" fill="none" xmlns="http://www.w3.org/2000/svg">
<path d="M18.0986 8.74902C18.0986 13.5654 14.1611 17.4678 9.37988 17.4678C4.56348 17.4678 0.661133 13.5654 0.661133 8.74902C0.661133 3.96777 4.56348 0.0302734 9.37988 0.0302734C14.1611 0.0302734 18.0986 3.96777 18.0986 8.74902ZM8.36035 13.3896L14.8291 6.9209C15.04 6.70996 15.04 6.32324 14.8291 6.1123L14.0205 5.33887C13.8096 5.09277 13.458 5.09277 13.2471 5.33887L7.97363 10.6123L5.47754 8.15137C5.2666 7.90527 4.91504 7.90527 4.7041 8.15137L3.89551 8.9248C3.68457 9.13574 3.68457 9.52246 3.89551 9.7334L7.55176 13.3896C7.7627 13.6006 8.14941 13.6006 8.36035 13.3896Z" fill="white"/>
</svg>
