<svg width="23" height="25" viewBox="0 0 23 25" fill="none" xmlns="http://www.w3.org/2000/svg">
<path d="M14.6933 17.0229V19.9101C14.6933 20.5213 14.4943 20.8269 14.0965 20.8269C13.8618 20.8269 13.6323 20.7266 13.4079 20.5259V16.4071C13.6323 16.2064 13.8618 16.106 14.0965 16.106C14.4943 16.106 14.6933 16.4117 14.6933 17.0229ZM19.8654 17.0365V17.666H18.4882V17.0365C18.4882 16.4162 18.7177 16.106 19.1768 16.106C19.6358 16.106 19.8654 16.4162 19.8654 17.0365ZM5.08352 14.0535H6.72085V12.7672H1.94658V14.0535H3.55331V21.8395H5.08352V14.0535ZM9.49053 21.8395H10.8524V15.0798H9.49053V20.2522C9.18449 20.6353 8.89375 20.8269 8.61831 20.8269C8.43469 20.8269 8.32757 20.7311 8.29697 20.5395C8.28677 20.5122 8.28166 20.3525 8.28166 20.0606V15.0798H6.91977V20.4301C6.91977 20.8771 6.96058 21.21 7.04219 21.429C7.16461 21.7665 7.46045 21.9353 7.92972 21.9353C8.41938 21.9353 8.93966 21.657 9.49053 21.1006V21.8395ZM16.0551 19.8143V17.1186C16.0551 16.4527 16.0092 16.0011 15.9174 15.764C15.744 15.2531 15.3819 14.9977 14.831 14.9977C14.3209 14.9977 13.8465 15.244 13.4079 15.7366V12.7672H12.046V21.8395H13.4079V21.1827C13.8669 21.6844 14.3413 21.9353 14.831 21.9353C15.3819 21.9353 15.744 21.6844 15.9174 21.1827C16.0092 20.9364 16.0551 20.4803 16.0551 19.8143ZM21.2273 19.6775V19.4996H19.8348C19.8348 19.9648 19.8246 20.2431 19.8042 20.3343C19.7328 20.6627 19.5287 20.8269 19.1921 20.8269C18.7228 20.8269 18.4882 20.5122 18.4882 19.8827V18.6923H21.2273V17.2828C21.2273 16.5622 21.0895 16.0331 20.8141 15.6955C20.4163 15.2303 19.8756 14.9977 19.1921 14.9977C18.4984 14.9977 17.9526 15.2303 17.5548 15.6955C17.2691 16.0331 17.1263 16.5622 17.1263 17.2828V19.6501C17.1263 20.3708 17.2742 20.8999 17.5701 21.2374C17.9679 21.7027 18.5188 21.9353 19.2227 21.9353C19.9572 21.9353 20.5081 21.6935 20.8753 21.21C21.0589 20.9637 21.1661 20.7174 21.1967 20.4711C21.2171 20.389 21.2273 20.1245 21.2273 19.6775ZM11.9236 7.18432V4.31076C11.9236 3.68131 11.7042 3.36659 11.2656 3.36659C10.8269 3.36659 10.6076 3.68131 10.6076 4.31076V7.18432C10.6076 7.82289 10.8269 8.14217 11.2656 8.14217C11.7042 8.14217 11.9236 7.82289 11.9236 7.18432ZM22.9258 17.4607C22.9258 19.5954 22.7932 21.1918 22.5279 22.25C22.3851 22.7882 22.0893 23.2398 21.6404 23.6047C21.1916 23.9696 20.6713 24.1794 20.0796 24.2341C18.2025 24.4257 15.3716 24.5215 11.5869 24.5215C7.8022 24.5215 4.9713 24.4257 3.09424 24.2341C2.50256 24.1794 1.97974 23.9696 1.52577 23.6047C1.07181 23.2398 0.778521 22.7882 0.645902 22.25C0.380665 21.2283 0.248047 19.6319 0.248047 17.4607C0.248047 15.3261 0.380665 13.7297 0.645902 12.6715C0.788722 12.1332 1.08456 11.6817 1.53343 11.3168C1.98229 10.9519 2.50766 10.7375 3.10954 10.6736C4.9764 10.4912 7.8022 10.4 11.5869 10.4C15.3716 10.4 18.2025 10.4912 20.0796 10.6736C20.6713 10.7375 21.1941 10.9519 21.6481 11.3168C22.102 11.6817 22.3953 12.1332 22.5279 12.6715C22.7932 13.6932 22.9258 15.2896 22.9258 17.4607ZM7.65428 0.000411987H9.21509L7.36354 5.46018V9.16845H5.83332V5.46018C5.6905 4.78512 5.37936 3.81815 4.89989 2.55925C4.52244 1.61964 4.1909 0.766695 3.90526 0.000411987H5.52728L6.61373 3.59921L7.65428 0.000411987ZM13.3161 4.55706V6.9517C13.3161 7.69061 13.1732 8.22884 12.8876 8.56637C12.5102 9.03161 11.9695 9.26423 11.2656 9.26423C10.5821 9.26423 10.0465 9.03161 9.65886 8.56637C9.37322 8.21972 9.2304 7.68149 9.2304 6.9517V4.55706C9.2304 3.82727 9.37322 3.29361 9.65886 2.95608C10.0465 2.49083 10.5821 2.25821 11.2656 2.25821C11.9695 2.25821 12.5102 2.49083 12.8876 2.95608C13.1732 3.29361 13.3161 3.82727 13.3161 4.55706ZM18.4423 2.34031V9.16845H17.0498V8.41585C16.5091 8.98144 15.9837 9.26423 15.4737 9.26423C15.0044 9.26423 14.7035 9.09547 14.5708 8.75794C14.4892 8.539 14.4484 8.19691 14.4484 7.73166V2.34031H15.8409V7.36221C15.8409 7.66325 15.846 7.82289 15.8562 7.84114C15.8868 8.04183 15.9939 8.14217 16.1776 8.14217C16.453 8.14217 16.7437 7.94604 17.0498 7.55378V2.34031H18.4423Z" fill="white"/>
</svg>
