<svg width="53" height="53" viewBox="0 0 53 53" fill="none" xmlns="http://www.w3.org/2000/svg">
<g clip-path="url(#clip0_539_581)">
<path d="M26.4978 40.0701C41.1324 40.0701 53 33.995 53 26.5021C53 19.0048 41.1324 12.9297 26.4978 12.9297C11.8676 12.9297 0 19.0048 0 26.5021C0 33.995 11.8676 40.0701 26.4978 40.0701ZM31.4886 33.412C31.047 34.4366 30.2851 36.6229 28.5383 37.4974C28.0083 37.7602 27.3524 37.8816 26.7716 37.9059H26.5C21.6108 37.9059 17.0572 37.2213 13.2456 36.0642L13.0998 36.009C12.7465 35.8919 12.5698 35.7285 12.5698 35.5276C12.5698 35.3531 12.6648 35.2184 12.7885 35.0969L13.0292 34.8827C13.9125 34.1496 16.5581 32.2327 21.5489 30.3181C23.3001 29.6534 25.493 28.8186 27.7875 28.3306C29.1301 28.0524 34.1232 27.2861 31.4886 33.412ZM44.8733 19.7336C44.9683 19.5701 45.0942 19.431 45.3216 19.42C45.4453 19.4067 45.6131 19.4354 45.8693 19.5966C48.9808 21.5113 50.827 23.9073 50.827 26.4977C50.827 31.1749 44.8115 35.1985 36.2078 36.9541C35.6602 37.0646 35.2892 37.0601 35.1677 36.921C35.0794 36.8371 35.0573 36.6869 35.1677 36.5014C35.2323 36.3866 35.3093 36.2792 35.3974 36.1812C40.079 30.6604 43.6477 22.5139 44.6613 20.1642C44.7386 20.0008 44.8115 19.8396 44.8733 19.7336ZM21.5909 19.5591C22.0325 18.5366 22.7944 16.3482 24.539 15.4825C25.069 15.2175 25.7249 15.0894 26.3057 15.074C26.4404 15.0696 26.5353 15.074 26.5707 15.074C31.4665 15.074 36.0135 15.7497 39.8295 16.9135C39.8582 16.9268 39.9465 16.9577 39.9752 16.9687C40.3286 17.088 40.5052 17.2492 40.5052 17.4501C40.5052 17.6246 40.4125 17.7527 40.2888 17.8764C40.2106 17.9501 40.1296 18.0208 40.0459 18.0884C39.1692 18.8281 36.517 20.7406 31.5262 22.6552C29.7705 23.3265 27.5821 24.1546 25.2943 24.6405C23.9472 24.9276 18.9563 25.685 21.5909 19.5591ZM16.7833 16.0412C17.3354 15.9352 17.6998 15.9352 17.8345 16.0744C17.9118 16.1627 17.9339 16.3084 17.8301 16.4939C17.7641 16.6058 17.6871 16.7108 17.6004 16.8075C12.9187 22.335 9.34787 30.4749 8.32983 32.8312C8.26595 32.978 8.19521 33.1217 8.11783 33.2618C8.0295 33.423 7.89921 33.5621 7.67617 33.5754C7.5525 33.5864 7.37804 33.5511 7.12187 33.3965C4.01254 31.4819 2.16417 29.0881 2.16417 26.4977C2.16417 21.8204 8.17967 17.7969 16.7833 16.0412Z" fill="black"/>
</g>
<defs>
<clipPath id="clip0_539_581">
<rect width="53" height="53" fill="white"/>
</clipPath>
</defs>
</svg>
