<svg width="14" height="14" viewBox="0 0 14 14" fill="none" xmlns="http://www.w3.org/2000/svg">
<g clip-path="url(#clip0_1_3842)">
<path d="M12.0286 4.92933C11.4161 2.23433 9.0653 1.021 7.0003 1.021C7.0003 1.021 7.0003 1.021 6.99447 1.021C4.9353 1.021 2.57863 2.2285 1.96613 4.9235C1.28363 7.9335 3.12697 10.4827 4.7953 12.0868C5.41363 12.6818 6.20697 12.9793 7.0003 12.9793C7.79363 12.9793 8.58697 12.6818 9.19947 12.0868C10.8678 10.4827 12.7111 7.93933 12.0286 4.92933ZM7.0003 7.85183C5.9853 7.85183 5.1628 7.02933 5.1628 6.01433C5.1628 4.99933 5.9853 4.17683 7.0003 4.17683C8.0153 4.17683 8.8378 4.99933 8.8378 6.01433C8.8378 7.02933 8.0153 7.85183 7.0003 7.85183Z" fill="#F4A71D"/>
</g>
<defs>
<clipPath id="clip0_1_3842">
<rect width="14" height="14" fill="white"/>
</clipPath>
</defs>
</svg>
