<svg width="46" height="40" viewBox="0 0 46 40" fill="none" xmlns="http://www.w3.org/2000/svg">
<path d="M26.8071 21.2484C26.7706 21.2576 26.6245 21.2576 26.5607 21.2576H21.8511V22.3674H26.6428C26.6793 22.3674 26.9622 22.3674 27.017 22.3582C27.9936 22.2657 28.4408 21.4426 28.4408 20.7212C28.4408 19.9814 27.9753 19.186 27.09 19.1028C26.9166 19.0843 26.7706 19.0843 26.7067 19.0843H23.5761C23.4392 19.0843 23.2841 19.075 23.2293 19.0565C22.9829 18.9918 22.8916 18.7698 22.8916 18.5849C22.8916 18.4184 22.9829 18.1964 23.2384 18.1225C23.3114 18.104 23.3936 18.0947 23.567 18.0947H28.0849V17.0034H23.494C23.3023 17.0034 23.1563 17.0127 23.0376 17.0312C22.2527 17.1421 21.7051 17.7803 21.7051 18.5941C21.7051 19.26 22.1158 20.0369 23.0194 20.1663C23.1837 20.1848 23.4118 20.1848 23.5122 20.1848H26.5607C26.6154 20.1848 26.7523 20.1848 26.7797 20.1941C27.1265 20.2403 27.2452 20.4993 27.2452 20.7305C27.2452 20.9524 27.1083 21.1929 26.8071 21.2484Z" fill="black"/>
<path d="M17.8803 21.2484C17.8438 21.2576 17.6978 21.2576 17.643 21.2576H12.9244V22.3674H17.716C17.7525 22.3674 18.0355 22.3674 18.0902 22.3582C19.0668 22.2657 19.5141 21.4426 19.5141 20.7212C19.5141 19.9814 19.0486 19.186 18.1633 19.1028C17.9898 19.0843 17.8438 19.0843 17.7799 19.0843H14.6494C14.5125 19.0843 14.3573 19.075 14.3025 19.0565C14.0561 18.9918 13.9648 18.7698 13.9648 18.5849C13.9648 18.4184 14.0561 18.1964 14.3117 18.1225C14.3847 18.104 14.4668 18.0947 14.6402 18.0947H19.1581V17.0034H14.5672C14.3755 17.0034 14.2295 17.0127 14.1109 17.0312C13.3259 17.1421 12.7783 17.7803 12.7783 18.5941C12.7783 19.26 13.189 20.0369 14.0926 20.1663C14.2569 20.1848 14.4851 20.1848 14.5855 20.1848H17.6339C17.6887 20.1848 17.8256 20.1848 17.8529 20.1941C18.1998 20.2403 18.3184 20.4993 18.3184 20.7305C18.3184 20.9524 18.1906 21.1929 17.8803 21.2484Z" fill="black"/>
<path d="M10.4697 16.9663H9.2832V22.395H10.4697V16.9663Z" fill="black"/>
<path d="M6.6637 22.395V16.9663H5.47719V21.0171L1.52519 16.9663H0.000976562V22.395H1.18749V18.3258L5.16687 22.395H6.6637Z" fill="black"/>
<path d="M44.8239 16.9663V21.0171L40.8719 16.9663H39.3477V22.395H40.5342V18.3258L44.5044 22.395H46.0013V16.9663H44.8239Z" fill="black"/>
<path d="M33.1686 16.9663L29.8281 22.395H31.2702L31.8635 21.424H35.7607L36.3539 22.395H37.7869L34.4464 16.9663H33.1686ZM35.1492 20.3974H32.475L33.8166 18.2148L35.1492 20.3974Z" fill="black"/>
<path d="M6.5996 13.8866C8.99088 6.81171 15.5806 2.05809 23.01 2.05809C30.4394 2.05809 37.0382 6.81171 39.4204 13.8866L39.4386 13.9421H44.6684V13.304L42.4962 13.045C41.1545 12.8878 40.8716 12.2867 40.5065 11.5283L40.4152 11.3434C37.2755 4.57362 30.4394 0.189941 23.01 0.189941C15.5715 0.189941 8.74445 4.57362 5.60475 11.3619L5.51348 11.5468C5.1484 12.3052 4.86546 12.9063 3.52379 13.0635L1.35156 13.3225V13.9606H6.57222L6.5996 13.8866Z" fill="black"/>
<path d="M39.4383 25.4287L39.42 25.4842C37.0287 32.5591 30.439 37.3035 23.0096 37.3035C15.5802 37.3035 8.98141 32.5499 6.59926 25.4749L6.58101 25.4194H1.36035V26.0576L3.53258 26.3165C4.87425 26.4737 5.15719 27.0749 5.52227 27.8332L5.61354 28.0182C8.75324 34.8064 15.5894 39.1901 23.0188 39.1901C30.4482 39.1901 37.2843 34.8064 40.424 28.0274L40.5153 27.8425C40.8803 27.0841 41.1633 26.483 42.505 26.3258L44.6772 26.0668V25.4287H39.4383Z" fill="black"/>
</svg>
