<svg width="59" height="60" viewBox="0 0 59 60" fill="none" xmlns="http://www.w3.org/2000/svg">
<path d="M46.8796 48.9138C46.4125 48.9138 45.9454 48.7417 45.5767 48.3729C44.8638 47.66 44.8638 46.48 45.5767 45.7671C54.4513 36.8925 54.4513 22.4622 45.5767 13.6122C44.8638 12.8993 44.8638 11.7193 45.5767 11.0064C46.2896 10.2935 47.4696 10.2935 48.1825 11.0064C58.4829 21.3068 58.4829 38.0725 48.1825 48.3729C47.8138 48.7417 47.3467 48.9138 46.8796 48.9138Z" fill="white"/>
<path d="M12.119 48.9138C11.652 48.9138 11.1849 48.7417 10.8161 48.3729C0.515716 38.0725 0.515716 21.3068 10.8161 11.0064C11.529 10.2935 12.709 10.2935 13.422 11.0064C14.1349 11.7193 14.1349 12.8993 13.422 13.6122C4.54738 22.4868 4.54738 36.9171 13.422 45.7671C14.1349 46.48 14.1349 47.66 13.422 48.3729C13.0532 48.7417 12.5861 48.9138 12.119 48.9138Z" fill="white"/>
<path d="M29.499 56.0185C26.4261 55.994 23.5007 55.5022 20.7719 54.5434C19.8132 54.1993 19.2969 53.1423 19.641 52.1835C19.9852 51.2248 21.0178 50.7085 22.0011 51.0527C24.3611 51.8639 26.8686 52.3064 29.5236 52.3064C32.154 52.3064 34.6861 51.8639 37.0215 51.0527C37.9802 50.7331 39.0373 51.2248 39.3815 52.1835C39.7256 53.1423 39.2094 54.1993 38.2506 54.5434C35.4973 55.5022 32.5719 56.0185 29.499 56.0185Z" fill="white"/>
<path d="M37.6126 8.40103C37.4159 8.40103 37.1946 8.37635 36.998 8.3026C34.638 7.49135 32.1059 7.04883 29.4755 7.04883C26.8451 7.04883 24.3376 7.49135 21.9776 8.3026C21.0188 8.62219 19.9618 8.13061 19.6176 7.17186C19.2734 6.21311 19.7897 5.15598 20.7484 4.81181C23.4772 3.85306 26.4271 3.36133 29.4755 3.36133C32.5238 3.36133 35.4739 3.85306 38.2026 4.81181C39.1614 5.15598 39.6776 6.21311 39.3334 7.17186C39.0876 7.93395 38.3746 8.40103 37.6126 8.40103Z" fill="white"/>
<path d="M25.9605 41.3918C24.8788 41.3918 23.8463 41.1214 22.9367 40.6051C20.8226 39.3759 19.6426 36.9668 19.6426 33.8201V25.5847C19.6426 22.4381 20.798 20.0289 22.9367 18.7997C25.0509 17.5705 27.7306 17.7671 30.4593 19.3405L37.5885 23.446C40.3172 25.0193 41.8168 27.2318 41.8168 29.6901C41.8168 32.1484 40.3172 34.3609 37.5885 35.9342L30.4593 40.0397C28.9106 40.9493 27.3618 41.3918 25.9605 41.3918ZM25.9605 21.6759C25.518 21.6759 25.1001 21.7742 24.7805 21.9709C23.8709 22.5117 23.3301 23.8147 23.3301 25.5601V33.7955C23.3301 35.5409 23.8463 36.8685 24.7805 37.3847C25.6901 37.9009 27.0914 37.7042 28.6156 36.8438L35.7447 32.7384C37.2689 31.8534 38.1293 30.7472 38.1293 29.6901C38.1293 28.633 37.2689 27.5268 35.7447 26.6418L28.6156 22.5364C27.6322 21.971 26.7226 21.6759 25.9605 21.6759Z" fill="white"/>
</svg>
