<svg width="240" height="49" viewBox="0 0 240 49" fill="none" xmlns="http://www.w3.org/2000/svg">
<path d="M19.4509 11.9727L21.9443 16.9594C22.2843 17.6536 23.1909 18.3194 23.9559 18.4469L28.4751 19.1977C31.3651 19.6794 32.0451 21.7761 29.9626 23.8444L26.4493 27.3577C25.8543 27.9527 25.5284 29.1002 25.7126 29.9219L26.7184 34.2711C27.5118 37.7136 25.6843 39.0452 22.6384 37.2461L18.4026 34.7386C17.6376 34.2852 16.3768 34.2852 15.5976 34.7386L11.3618 37.2461C8.33012 39.0452 6.48845 37.6994 7.28178 34.2711L8.28762 29.9219C8.47178 29.1002 8.14595 27.9527 7.55095 27.3577L4.03762 23.8444C1.96928 21.7761 2.63512 19.6794 5.52512 19.1977L10.0443 18.4469C10.7951 18.3194 11.7018 17.6536 12.0418 16.9594L14.5351 11.9727C15.8951 9.2669 18.1051 9.2669 19.4509 11.9727Z" fill="#F4A71D"/>
<path d="M69.3115 9.70379L72.1715 15.4238C72.5615 16.22 73.6015 16.9838 74.479 17.13L79.6627 17.9913C82.9777 18.5438 83.7577 20.9488 81.369 23.3213L77.339 27.3513C76.6565 28.0338 76.2827 29.35 76.494 30.2925L77.6477 35.2813C78.5577 39.23 76.4615 40.7575 72.9677 38.6938L68.109 35.8175C67.2315 35.2975 65.7852 35.2975 64.8915 35.8175L60.0327 38.6938C56.5552 40.7575 54.4427 39.2138 55.3527 35.2813L56.5065 30.2925C56.7177 29.35 56.344 28.0338 55.6615 27.3513L51.6315 23.3213C49.259 20.9488 50.0227 18.5438 53.3377 17.9913L58.5215 17.13C59.3827 16.9838 60.4227 16.22 60.8127 15.4238L63.6727 9.70379C65.2327 6.60004 67.7677 6.60004 69.3115 9.70379Z" fill="#F4A71D"/>
<path d="M125.46 7.1659L128.98 14.3526C129.46 15.353 130.74 16.3126 131.82 16.4963L138.2 17.5784C142.28 18.2726 143.24 21.2942 140.3 24.2751L135.34 29.3384C134.5 30.1959 134.04 31.8496 134.3 33.0338L135.72 39.3017C136.84 44.263 134.26 46.1822 129.96 43.5892L123.98 39.9755C122.9 39.3222 121.12 39.3222 120.02 39.9755L114.04 43.5892C109.76 46.1822 107.16 44.2426 108.28 39.3017L109.7 33.0338C109.96 31.8496 109.5 30.1959 108.66 29.3384L103.7 24.2751C100.78 21.2942 101.72 18.2726 105.8 17.5784L112.18 16.4963C113.24 16.3126 114.52 15.353 115 14.3526L118.52 7.1659C120.44 3.26632 123.56 3.26632 125.46 7.1659Z" fill="#F4A71D"/>
<path d="M176.311 10.8504L179.171 16.7171C179.561 17.5337 180.601 18.3171 181.479 18.4671L186.663 19.3504C189.978 19.9171 190.758 22.3837 188.369 24.8171L184.339 28.9504C183.656 29.6504 183.283 31.0004 183.494 31.9671L184.648 37.0837C185.558 41.1337 183.461 42.7004 179.968 40.5837L175.109 37.6337C174.231 37.1004 172.785 37.1004 171.891 37.6337L167.033 40.5837C163.555 42.7004 161.443 41.1171 162.353 37.0837L163.506 31.9671C163.718 31.0004 163.344 29.6504 162.661 28.9504L158.631 24.8171C156.259 22.3837 157.023 19.9171 160.338 19.3504L165.521 18.4671C166.383 18.3171 167.423 17.5337 167.813 16.7171L170.673 10.8504C172.233 7.66706 174.768 7.66706 176.311 10.8504Z" fill="#F4A71D"/>
<path d="M225.451 14.1184L227.944 19.2517C228.284 19.9663 229.191 20.6517 229.956 20.7829L234.475 21.5559C237.365 22.0517 238.045 24.21 235.963 26.3392L232.449 29.9559C231.854 30.5684 231.528 31.7496 231.713 32.5954L232.718 37.0725C233.512 40.6163 231.684 41.9871 228.638 40.135L224.403 37.5538C223.638 37.0871 222.377 37.0871 221.598 37.5538L217.362 40.135C214.33 41.9871 212.488 40.6017 213.282 37.0725L214.288 32.5954C214.472 31.7496 214.146 30.5684 213.551 29.9559L210.038 26.3392C207.969 24.21 208.635 22.0517 211.525 21.5559L216.044 20.7829C216.795 20.6517 217.702 19.9663 218.042 19.2517L220.535 14.1184C221.895 11.3329 224.105 11.3329 225.451 14.1184Z" fill="#F4A71D"/>
</svg>
