<svg width="23" height="19" viewBox="0 0 23 19" fill="none" xmlns="http://www.w3.org/2000/svg">
<path opacity="0.5" d="M18.75 15.75V16.375C18.75 17.4297 17.8906 18.25 16.875 18.25H1.875C0.820312 18.25 0 17.4297 0 16.375V6.375C0 5.35938 0.820312 4.5 1.875 4.5H2.5V6.375H2.10938C1.95312 6.375 1.875 6.49219 1.875 6.60938V16.1406C1.875 16.2969 1.95312 16.375 2.10938 16.375H16.6406C16.7578 16.375 16.875 16.2969 16.875 16.1406V15.75H18.75ZM20.3906 2.625H5.85938C5.70312 2.625 5.625 2.74219 5.625 2.85938V12.3906C5.625 12.5469 5.70312 12.625 5.85938 12.625H20.3906C20.5078 12.625 20.625 12.5469 20.625 12.3906V2.85938C20.625 2.74219 20.5078 2.625 20.3906 2.625ZM20.625 0.75C21.6406 0.75 22.5 1.60938 22.5 2.625V12.625C22.5 13.6797 21.6406 14.5 20.625 14.5H5.625C4.57031 14.5 3.75 13.6797 3.75 12.625V2.625C3.75 1.60938 4.57031 0.75 5.625 0.75H20.625ZM10.3125 5.125C10.3125 6.02344 9.60938 6.6875 8.75 6.6875C7.85156 6.6875 7.1875 6.02344 7.1875 5.125C7.1875 4.26562 7.85156 3.5625 8.75 3.5625C9.60938 3.5625 10.3125 4.26562 10.3125 5.125ZM7.5 8.875L9.02344 7.35156C9.21875 7.15625 9.49219 7.15625 9.6875 7.35156L11.25 8.875L15.2734 4.85156C15.4688 4.65625 15.7422 4.65625 15.9375 4.85156L18.75 7.625V10.75H7.5V8.875Z" fill="#F4A71D"/>
</svg>
