<svg width="50" height="50" viewBox="0 0 50 50" fill="none" xmlns="http://www.w3.org/2000/svg">
<path d="M12.5 0C10.7812 0 9.375 1.40625 9.375 3.125V46.875C9.375 48.5938 10.7812 50 12.5 50H43.75C45.4688 50 46.875 48.5938 46.875 46.875V12.5L34.375 0H12.5Z" fill="#E2E5E7"/>
<path d="M37.5 12.5H46.875L34.375 0V9.375C34.375 11.0938 35.7812 12.5 37.5 12.5Z" fill="#B0B7BD"/>
<path d="M46.875 21.875L37.5 12.5H46.875V21.875Z" fill="#CAD1D8"/>
<path d="M40.625 40.625C40.625 41.4844 39.9219 42.1875 39.0625 42.1875H4.6875C3.82812 42.1875 3.125 41.4844 3.125 40.625V25C3.125 24.1406 3.82812 23.4375 4.6875 23.4375H39.0625C39.9219 23.4375 40.625 24.1406 40.625 25V40.625Z" fill="#F15642"/>
<path d="M9.9375 29.6047C9.9375 29.1922 10.2625 28.7422 10.7859 28.7422H13.6719C15.2969 28.7422 16.7594 29.8297 16.7594 31.9141C16.7594 33.8891 15.2969 34.9891 13.6719 34.9891H11.5859V36.6391C11.5859 37.1891 11.2359 37.5 10.7859 37.5C10.3734 37.5 9.9375 37.1891 9.9375 36.6391V29.6047ZM11.5859 30.3156V33.4281H13.6719C14.5094 33.4281 15.1719 32.6891 15.1719 31.9141C15.1719 31.0406 14.5094 30.3156 13.6719 30.3156H11.5859Z" fill="white"/>
<path d="M19.2063 37.4998C18.7938 37.4998 18.3438 37.2748 18.3438 36.7264V29.6295C18.3438 29.1811 18.7938 28.8545 19.2063 28.8545H22.0672C27.7766 28.8545 27.6516 37.4998 22.1797 37.4998H19.2063ZM19.9937 30.3795V35.9764H22.0672C25.4406 35.9764 25.5906 30.3795 22.0672 30.3795H19.9937Z" fill="white"/>
<path d="M29.6773 30.4796V32.4655H32.8633C33.3133 32.4655 33.7633 32.9155 33.7633 33.3515C33.7633 33.764 33.3133 34.1015 32.8633 34.1015H29.6773V36.7249C29.6773 37.1624 29.3664 37.4983 28.9289 37.4983C28.3789 37.4983 28.043 37.1624 28.043 36.7249V29.628C28.043 29.1796 28.3805 28.853 28.9289 28.853H33.3148C33.8648 28.853 34.1898 29.1796 34.1898 29.628C34.1898 30.028 33.8648 30.478 33.3148 30.478H29.6773V30.4796Z" fill="white"/>
<path d="M39.0625 42.1875H9.375V43.75H39.0625C39.9219 43.75 40.625 43.0469 40.625 42.1875V40.625C40.625 41.4844 39.9219 42.1875 39.0625 42.1875Z" fill="#CAD1D8"/>
</svg>
