<svg width="21" height="19" viewBox="0 0 21 19" fill="none" xmlns="http://www.w3.org/2000/svg">
<path d="M18.9375 6.29688C19.8516 6.4375 20.2031 7.5625 19.5352 8.23047L15.8438 11.8516L16.7227 16.9492C16.8633 17.8633 15.8789 18.5664 15.0703 18.1445L10.5 15.7188L5.89453 18.1445C5.08594 18.5664 4.10156 17.8633 4.24219 16.9492L5.12109 11.8516L1.42969 8.23047C0.761719 7.5625 1.11328 6.4375 2.02734 6.29688L7.19531 5.55859L9.48047 0.882812C9.90234 0.0390625 11.0977 0.0742188 11.4844 0.882812L13.8047 5.55859L18.9375 6.29688ZM14.0156 11.2539L17.5664 7.80859L12.6797 7.10547L10.5 2.67578L8.28516 7.10547L3.39844 7.80859L6.94922 11.2539L6.10547 16.1055L10.5 13.8203L14.8594 16.1055L14.0156 11.2539Z" fill="#A7A8A8"/>
</svg>
