<svg width="50" height="50" viewBox="0 0 50 50" fill="none" xmlns="http://www.w3.org/2000/svg">
<path d="M12.5 0C10.7812 0 9.375 1.40625 9.375 3.125V46.875C9.375 48.5938 10.7812 50 12.5 50H43.75C45.4688 50 46.875 48.5938 46.875 46.875V12.5L34.375 0H12.5Z" fill="#E2E5E7"/>
<path d="M37.5 12.5H46.875L34.375 0V9.375C34.375 11.0938 35.7812 12.5 37.5 12.5Z" fill="#B0B7BD"/>
<path d="M46.875 21.875L37.5 12.5H46.875V21.875Z" fill="#CAD1D8"/>
<path d="M40.625 40.625C40.625 41.4844 39.9219 42.1875 39.0625 42.1875H4.6875C3.82812 42.1875 3.125 41.4844 3.125 40.625V25C3.125 24.1406 3.82812 23.4375 4.6875 23.4375H39.0625C39.9219 23.4375 40.625 24.1406 40.625 25V40.625Z" fill="#84BD5A"/>
<path d="M12.9549 37.5C12.1674 37.5 11.8549 36.7391 12.3049 36.2016L16.7534 30.2922H13.0659C11.9799 30.2922 12.0674 28.7578 13.0659 28.7578H18.1018C19.0502 28.7578 19.3252 29.6547 18.6518 30.3812L14.3909 35.9141H18.4518C19.4518 35.9141 19.5768 37.5016 18.3534 37.5016H12.9549V37.5Z" fill="white"/>
<path d="M20.7109 29.6047C20.7109 28.5797 22.3609 28.5422 22.3609 29.6047V36.7375C22.3609 37.7734 20.7109 37.8 20.7109 36.7375V29.6047Z" fill="white"/>
<path d="M24.5742 29.6047C24.5742 29.1922 24.8992 28.7422 25.4242 28.7422H28.3102C29.9352 28.7422 31.3977 29.8297 31.3977 31.9141C31.3977 33.8891 29.9352 34.9891 28.3102 34.9891H26.2242V36.6391C26.2242 37.1891 25.8742 37.5 25.4242 37.5C25.0117 37.5 24.5742 37.1891 24.5742 36.6391V29.6047ZM26.2227 30.3156V33.4281H28.3086C29.1461 33.4281 29.8086 32.6891 29.8086 31.9141C29.8086 31.0406 29.1461 30.3156 28.3086 30.3156H26.2227Z" fill="white"/>
<path d="M39.0625 42.1875H9.375V43.75H39.0625C39.9219 43.75 40.625 43.0469 40.625 42.1875V40.625C40.625 41.4844 39.9219 42.1875 39.0625 42.1875Z" fill="#CAD1D8"/>
</svg>
