<svg width="14" height="14" viewBox="0 0 14 14" fill="none" xmlns="http://www.w3.org/2000/svg">
<g clip-path="url(#clip0_1_4058)">
<path d="M13.3027 6.78451L6.60702 0.0888795C6.54984 0.0318143 6.47232 -0.000142187 6.39154 4.7562e-07H0.913287C0.853014 -0.000104689 0.794066 0.0176885 0.743918 0.0511245C0.693769 0.0845605 0.654676 0.132134 0.631597 0.187813C0.608517 0.243492 0.602489 0.304771 0.614276 0.36388C0.626064 0.42299 0.655137 0.477269 0.697809 0.519836L7.17859 7.00001L0.697809 13.4802C0.5788 13.5989 0.578571 13.7916 0.697267 13.9106C0.725602 13.939 0.759275 13.9615 0.796348 13.9769C0.833422 13.9922 0.873163 14.0001 0.913287 14H6.39154C6.43154 14.0001 6.47116 13.9923 6.50813 13.977C6.54511 13.9618 6.57871 13.9394 6.60702 13.9111L13.3027 7.21546C13.4217 7.09677 13.4219 6.90406 13.3032 6.78505C13.303 6.78488 13.3028 6.7847 13.3027 6.78451Z" fill="white"/>
</g>
<defs>
<clipPath id="clip0_1_4058">
<rect width="14" height="14" fill="white"/>
</clipPath>
</defs>
</svg>
