<svg width="22" height="25" viewBox="0 0 22 25" fill="none" xmlns="http://www.w3.org/2000/svg">
<path d="M16.6812 14.5457C16.6812 14.0895 16.59 13.6722 16.4076 13.2936C16.2253 12.915 15.9985 12.6026 15.7273 12.3563C15.4561 12.11 15.1148 11.8865 14.7034 11.6858C14.2919 11.4851 13.9062 11.33 13.5461 11.2205C13.1861 11.1111 12.777 11.0062 12.3188 10.9058L10.86 10.5774C10.5794 10.5136 10.3737 10.4657 10.2428 10.4337C10.1119 10.4018 9.94822 10.3494 9.75184 10.2764C9.55546 10.2034 9.41519 10.1304 9.33103 10.0574C9.24687 9.98446 9.16972 9.88867 9.09959 9.77008C9.02945 9.65149 8.99438 9.51465 8.99438 9.35957C8.99438 8.65714 9.66768 8.30593 11.0143 8.30593C11.4164 8.30593 11.7764 8.36067 12.0943 8.47013C12.4123 8.5796 12.6648 8.7096 12.8518 8.86012C13.0388 9.01064 13.2165 9.16344 13.3848 9.31852C13.5531 9.4736 13.7402 9.60588 13.9459 9.71535C14.1516 9.82481 14.3761 9.87955 14.6192 9.87955C15.0587 9.87955 15.4117 9.73359 15.6782 9.44167C15.9447 9.14976 16.078 8.79854 16.078 8.38803C16.078 7.8863 15.8162 7.43246 15.2925 7.02651C14.7688 6.62056 14.1049 6.31268 13.3007 6.10287C12.4964 5.89305 11.6455 5.78814 10.7478 5.78814C10.1119 5.78814 9.49468 5.85884 8.89619 6.00024C8.29771 6.14164 7.73897 6.35601 7.21997 6.64337C6.70098 6.93073 6.28484 7.32755 5.97158 7.83385C5.65831 8.34014 5.50167 8.92626 5.50167 9.59219C5.50167 10.1487 5.59051 10.6344 5.76818 11.0495C5.94586 11.4646 6.2077 11.8089 6.55369 12.0826C6.89969 12.3563 7.27374 12.5775 7.67585 12.7463C8.07796 12.915 8.55955 13.0633 9.12063 13.191L11.1686 13.6836C12.0102 13.8843 12.5339 14.0485 12.7396 14.1762C13.0388 14.3587 13.1884 14.6323 13.1884 14.9972C13.1884 15.353 13.0014 15.6472 12.6274 15.8798C12.2533 16.1124 11.7624 16.2288 11.1545 16.2288C10.6776 16.2288 10.2498 16.1558 9.87107 16.0098C9.49234 15.8639 9.18842 15.6883 8.95932 15.483C8.73021 15.2777 8.51747 15.0725 8.32109 14.8672C8.12471 14.662 7.90963 14.4864 7.67585 14.3404C7.44207 14.1945 7.18958 14.1215 6.91839 14.1215C6.45083 14.1215 6.09782 14.2583 5.85936 14.532C5.6209 14.8057 5.50167 15.1477 5.50167 15.5583C5.50167 16.3975 6.0721 17.1159 7.21296 17.7134C8.35382 18.3109 9.71443 18.6097 11.2948 18.6097C11.9774 18.6097 12.632 18.5253 13.2586 18.3566C13.8851 18.1878 14.4579 17.9438 14.9769 17.6245C15.4959 17.3052 15.9097 16.8787 16.2183 16.3451C16.5269 15.8114 16.6812 15.2116 16.6812 14.5457ZM21.7729 17.515C21.7729 18.9655 21.2469 20.2039 20.1949 21.2301C19.1429 22.2564 17.8734 22.7695 16.3866 22.7695C15.1709 22.7695 14.0768 22.4046 13.1043 21.6748C12.3842 21.8208 11.6829 21.8938 11.0002 21.8938C9.663 21.8938 8.38421 21.6406 7.16387 21.1343C5.94352 20.628 4.8915 19.9439 4.0078 19.0818C3.1241 18.2197 2.42276 17.1935 1.90376 16.003C1.38476 14.8125 1.12526 13.565 1.12526 12.2605C1.12526 11.5946 1.20007 10.9104 1.3497 10.208C0.601591 9.25922 0.227539 8.1919 0.227539 7.00599C0.227539 5.55552 0.75355 4.31715 1.80557 3.29088C2.85759 2.26461 4.12703 1.75147 5.61389 1.75147C6.82956 1.75147 7.92366 2.11637 8.89619 2.84616C9.61625 2.7002 10.3176 2.62722 11.0002 2.62722C12.3375 2.62722 13.6163 2.88037 14.8366 3.38667C16.057 3.89296 17.109 4.57714 17.9927 5.43921C18.8764 6.30128 19.5777 7.32755 20.0967 8.51803C20.6157 9.7085 20.8752 10.956 20.8752 12.2605C20.8752 12.9264 20.8004 13.6106 20.6508 14.313C21.3989 15.2618 21.7729 16.3291 21.7729 17.515Z" fill="white"/>
</svg>
