<svg width="24" height="25" viewBox="0 0 24 25" fill="none" xmlns="http://www.w3.org/2000/svg">
<path d="M22.5178 5.58244C21.8863 6.47644 21.1229 7.23816 20.2276 7.86761C20.237 7.99532 20.2418 8.18689 20.2418 8.44232C20.2418 9.62823 20.0627 10.8119 19.7046 11.9932C19.3464 13.1746 18.8022 14.308 18.0718 15.3936C17.3414 16.4792 16.472 17.4393 15.4635 18.274C14.4551 19.1087 13.2394 19.7746 11.8163 20.2718C10.3932 20.769 8.87111 21.0176 7.2501 21.0176C4.69606 21.0176 2.35879 20.3562 0.238281 19.0335C0.568138 19.0699 0.935694 19.0882 1.34095 19.0882C3.46146 19.0882 5.35107 18.4587 7.00978 17.1998C6.02021 17.1816 5.1343 16.8874 4.35207 16.3172C3.56984 15.7471 3.03264 15.0196 2.74048 14.1347C3.05149 14.1803 3.33894 14.2031 3.60282 14.2031C4.00808 14.2031 4.40862 14.153 4.80445 14.0526C3.7489 13.8428 2.87478 13.3342 2.18208 12.5269C1.48938 11.7195 1.14303 10.7822 1.14303 9.7149V9.66016C1.7839 10.0068 2.47189 10.1938 3.207 10.2212C2.58498 9.8198 2.09019 9.29526 1.72264 8.64757C1.35508 7.99988 1.17131 7.29745 1.17131 6.54029C1.17131 5.73752 1.37864 4.99404 1.79332 4.30986C2.93369 5.6691 4.32144 6.75695 5.95659 7.57341C7.59174 8.38986 9.34234 8.8437 11.2084 8.93493C11.133 8.58828 11.0953 8.25075 11.0953 7.92234C11.0953 6.69993 11.5406 5.6577 12.4312 4.79563C13.3218 3.93356 14.3986 3.50253 15.6615 3.50253C16.9809 3.50253 18.093 3.96777 18.9977 4.89826C20.025 4.70669 20.991 4.35091 21.8958 3.83093C21.5471 4.88001 20.8779 5.69191 19.8883 6.26662C20.7648 6.1754 21.6413 5.94734 22.5178 5.58244Z" fill="white"/>
</svg>
