<svg width="21" height="25" viewBox="0 0 21 25" fill="none" xmlns="http://www.w3.org/2000/svg">
<path d="M18.4531 19.5128V10.6458H16.6455C16.8241 11.2205 16.9133 11.8181 16.9133 12.4384C16.9133 13.5878 16.6277 14.6483 16.0564 15.6198C15.4851 16.5914 14.7086 17.3599 13.7267 17.9255C12.7448 18.4911 11.6736 18.7739 10.5132 18.7739C8.75475 18.7739 7.25068 18.1559 6.001 16.9198C4.75133 15.6837 4.12649 14.1899 4.12649 12.4384C4.12649 11.8181 4.21575 11.2205 4.39428 10.6458H2.50638V19.5128C2.50638 19.75 2.58448 19.9484 2.74069 20.1081C2.8969 20.2677 3.09105 20.3475 3.32313 20.3475H17.6364C17.8595 20.3475 18.0514 20.2677 18.2121 20.1081C18.3728 19.9484 18.4531 19.75 18.4531 19.5128ZM13.4388 15.1135C13.4388 15.1135 13.6407 14.914 14.0447 14.5149C14.4486 14.1158 14.6505 13.3506 14.6505 12.2194C14.6505 11.0883 14.2466 10.1236 13.4388 9.32536C12.631 8.52715 11.6558 8.12804 10.5132 8.12804C9.37958 8.12804 8.40886 8.52715 7.60103 9.32536C6.79321 10.1236 6.38929 11.0883 6.38929 12.2194C6.38929 13.3506 6.79321 14.3153 7.60103 15.1135C8.40886 15.9118 9.37958 16.3109 10.5132 16.3109C11.6558 16.3109 12.631 15.9118 13.4388 15.1135ZM18.4531 7.29334V5.03554C18.4531 4.78012 18.3638 4.5589 18.1853 4.37189C18.0068 4.18488 17.7881 4.09137 17.5292 4.09137H15.1995C14.9406 4.09137 14.7219 4.18488 14.5434 4.37189C14.3649 4.5589 14.2756 4.78012 14.2756 5.03554V7.29334C14.2756 7.55789 14.3649 7.78139 14.5434 7.96384C14.7219 8.14629 14.9406 8.23751 15.1995 8.23751H17.5292C17.7881 8.23751 18.0068 8.14629 18.1853 7.96384C18.3638 7.78139 18.4531 7.55789 18.4531 7.29334ZM20.7829 4.44715V20.0739C20.7829 20.8128 20.524 21.4468 20.0063 21.9759C19.4886 22.505 18.8682 22.7695 18.1452 22.7695H2.8545C2.13148 22.7695 1.5111 22.505 0.99338 21.9759C0.475658 21.4468 0.216797 20.8128 0.216797 20.0739V4.44715C0.216797 3.70823 0.475658 3.07422 0.99338 2.54512C1.5111 2.01602 2.13148 1.75147 2.8545 1.75147H18.1452C18.8682 1.75147 19.4886 2.01602 20.0063 2.54512C20.524 3.07422 20.7829 3.70823 20.7829 4.44715Z" fill="white"/>
</svg>
