<svg width="21" height="25" viewBox="0 0 21 25" fill="none" xmlns="http://www.w3.org/2000/svg">
<path d="M19.4038 6.98546C19.4038 6.98546 19.6336 7.38799 20.0933 8.19304C20.553 8.99809 20.7829 10.3539 20.7829 12.2605C20.7829 14.1671 20.3232 15.9254 19.4038 17.5355C18.4844 19.1456 17.2369 20.4205 15.6614 21.3601C14.0859 22.2997 12.3654 22.7695 10.4998 22.7695C9.50902 22.7695 8.53605 22.6236 7.58095 22.3317C8.10759 21.4833 8.45572 20.7352 8.62532 20.0875C8.70565 19.7774 8.94666 18.815 9.34834 17.2003C9.52687 17.5561 9.85268 17.8639 10.3258 18.1239C10.7989 18.3839 11.3077 18.5139 11.8522 18.5139C12.9322 18.5139 13.8963 18.2015 14.7443 17.5766C15.5922 16.9517 16.2483 16.0919 16.7125 14.9972C17.1767 13.9025 17.4087 12.671 17.4087 11.3026C17.4087 10.2627 17.1432 9.28659 16.6121 8.37435C16.081 7.46211 15.3111 6.71863 14.3024 6.14392C13.2937 5.5692 12.1556 5.28185 10.8881 5.28185C9.95086 5.28185 9.07609 5.41412 8.2638 5.67867C7.45152 5.94322 6.76196 6.29444 6.19515 6.73231C5.62833 7.17019 5.14185 7.6742 4.73571 8.24436C4.32956 8.81451 4.03053 9.40518 3.83862 10.0164C3.64671 10.6276 3.55075 11.2388 3.55075 11.85C3.55075 12.7987 3.72927 13.6334 4.08632 14.3541C4.44337 15.0748 4.96556 15.5811 5.65288 15.873C5.92067 15.9824 6.09026 15.8912 6.16167 15.5993C6.17953 15.5355 6.21523 15.3941 6.26879 15.1751C6.32235 14.9562 6.35805 14.8193 6.3759 14.7646C6.42946 14.5548 6.38037 14.3587 6.22862 14.1762C5.77338 13.6197 5.54576 12.931 5.54576 12.11C5.54576 10.7325 6.01216 9.54886 6.94495 8.55908C7.87774 7.5693 9.09841 7.0744 10.6069 7.0744C11.9548 7.0744 13.0059 7.44842 13.7601 8.19646C14.5144 8.9445 14.8915 9.91604 14.8915 11.1111C14.8915 12.6619 14.5858 13.9801 13.9744 15.0656C13.3629 16.1512 12.5796 16.694 11.6245 16.694C11.08 16.694 10.6426 16.4956 10.3124 16.0988C9.98211 15.7019 9.87945 15.2253 10.0044 14.6688C10.0758 14.3495 10.1941 13.9231 10.3592 13.3894C10.5244 12.8557 10.6583 12.3859 10.7609 11.98C10.8636 11.574 10.9149 11.2297 10.9149 10.9469C10.9149 10.4908 10.7944 10.1122 10.5534 9.81113C10.3124 9.51009 9.96872 9.35957 9.5224 9.35957C8.96898 9.35957 8.50035 9.61956 8.11652 10.1395C7.73269 10.6595 7.54078 11.3072 7.54078 12.0826C7.54078 12.7486 7.65236 13.305 7.87551 13.752L6.54997 19.4718C6.39822 20.1103 6.3402 20.9177 6.3759 21.8938C4.5371 21.0636 3.05088 19.7819 1.91725 18.0487C0.783613 16.3154 0.216797 14.386 0.216797 12.2605C0.216797 10.3539 0.676498 8.59557 1.5959 6.98546C2.5153 5.37535 3.76275 4.10049 5.33823 3.16088C6.91371 2.22128 8.63424 1.75147 10.4998 1.75147C12.3654 1.75147 14.0859 2.22128 15.6614 3.16088C17.2369 4.10049 18.4844 5.37535 19.4038 6.98546Z" fill="white"/>
</svg>
