<svg xmlns="http://www.w3.org/2000/svg" width="156" height="156" viewBox="0 0 156 156">
  <g id="Group_55931" data-name="Group 55931" transform="translate(-1508 -2587)">
    <rect id="Rectangle_14110" data-name="Rectangle 14110" width="156" height="156" rx="16" transform="translate(1508 2587)" fill="#1cc2ed" opacity="0.16"/>
    <g id="Group_10763" data-name="Group 10763" transform="translate(31 1398.62)">
      <rect id="Rectangle_14005" data-name="Rectangle 14005" width="94" height="94" rx="10" transform="translate(1508 1219.38)" fill="none"/>
      <g id="svgexport-6_3_" data-name="svgexport-6 (3)" transform="translate(1508 1223.886)">
        <path id="Path_11753" data-name="Path 11753" d="M94.169,7.594A7.6,7.6,0,0,0,86.575,0H7.594A7.6,7.6,0,0,0,0,7.594V77.462a7.6,7.6,0,0,0,7.594,7.594H86.575a7.55,7.55,0,0,0,5.858-2.822,1.484,1.484,0,0,0,.217-.26,7.522,7.522,0,0,0,1.519-4.513ZM7.594,3.038H86.575a4.557,4.557,0,0,1,4.557,4.557V77.462c0,.079-.02.152-.023.231L71.182,43.288a1.519,1.519,0,0,0-1.307-.759h-.007a1.518,1.518,0,0,0-1.306.742L55.227,65.712,31.691,25.061a1.52,1.52,0,0,0-1.305-.759h-.009a1.519,1.519,0,0,0-1.3.742L3.038,68.824V7.594A4.557,4.557,0,0,1,7.594,3.038ZM3.038,77.462v-2.7L30.359,28.822l30.8,53.2H7.594A4.557,4.557,0,0,1,3.038,77.462Zm61.63,4.557-7.7-13.294L69.851,47.05l19.63,33.893a4.516,4.516,0,0,1-2.906,1.075Zm0,0" fill="#1cc2ed"/>
        <path id="Path_11754" data-name="Path 11754" d="M322.632,101.264A10.632,10.632,0,1,0,312,90.632,10.632,10.632,0,0,0,322.632,101.264Zm0-18.226a7.594,7.594,0,1,1-7.594,7.594A7.595,7.595,0,0,1,322.632,83.038Zm0,0" transform="translate(-252.764 -64.811)" fill="#1cc2ed"/>
      </g>
    </g>
  </g>
</svg>
