<svg xmlns="http://www.w3.org/2000/svg" width="156" height="156" viewBox="0 0 156 156">
  <g id="Group_55933" data-name="Group 55933" transform="translate(-674 -2587)">
    <rect id="Rectangle_14112" data-name="Rectangle 14112" width="156" height="156" rx="16" transform="translate(674 2587)" fill="#0ad871" opacity="0.16"/>
    <g id="Group_10765" data-name="Group 10765" transform="translate(31 1399)">
      <rect id="Rectangle_14007" data-name="Rectangle 14007" width="94" height="94" rx="10" transform="translate(674 1219)" fill="none"/>
      <g id="svgexport-6_6_" data-name="svgexport-6 (6)" transform="translate(674.603 1220.205)">
        <g id="Group_10762" data-name="Group 10762" transform="translate(0 0)">
          <path id="Path_11759" data-name="Path 11759" d="M180.377,121.406,159.56,88.693a1.487,1.487,0,0,0-2.509,0l-20.818,32.713a1.487,1.487,0,0,0-.156,1.268l8.269,24.808h-2.4a1.487,1.487,0,0,0-1.487,1.487v5.948a1.487,1.487,0,0,0,1.487,1.487h1.487v7.435a1.487,1.487,0,0,0,1.487,1.487h26.766a1.487,1.487,0,0,0,1.487-1.487V156.4h1.487a1.487,1.487,0,0,0,1.487-1.487v-5.948a1.487,1.487,0,0,0-1.487-1.487h-2.4l8.269-24.808A1.487,1.487,0,0,0,180.377,121.406ZM158.3,125.177a2.974,2.974,0,1,1-2.974,2.974A2.974,2.974,0,0,1,158.3,125.177Zm11.9,37.174H146.409V156.4H170.2Zm2.974-11.9v2.974H143.435v-2.974Zm-4.046-2.974H147.482L139.121,122.4l17.7-27.808v27.8a5.948,5.948,0,1,0,2.974,0V94.6l17.7,27.808Z" transform="translate(-112.209 -73.133)" fill="#0ad871"/>
          <path id="Path_11760" data-name="Path 11760" d="M98.705,8H89.783A1.487,1.487,0,0,0,88.3,9.487v2.974H60.044V9.487A1.487,1.487,0,0,0,58.557,8H49.635a1.487,1.487,0,0,0-1.487,1.487v2.974H19.9V9.487A1.487,1.487,0,0,0,18.409,8H9.487A1.487,1.487,0,0,0,8,9.487v8.922A1.487,1.487,0,0,0,9.487,19.9h8.922A1.487,1.487,0,0,0,19.9,18.409V15.435H37.86a37.655,37.655,0,0,0-11.433,6.881C20.3,27.773,16.922,34.834,16.922,42.2H15.435a1.487,1.487,0,0,0-1.487,1.487v5.948a1.487,1.487,0,0,0,1.487,1.487h5.948a1.487,1.487,0,0,0,1.487-1.487V43.687A1.487,1.487,0,0,0,21.383,42.2H19.9c0-13.028,12.033-24.137,28.252-26.36v2.569A1.487,1.487,0,0,0,49.635,19.9h8.922a1.487,1.487,0,0,0,1.487-1.487V15.84C76.263,18.063,88.3,29.173,88.3,42.2H86.81a1.487,1.487,0,0,0-1.487,1.487v5.948a1.487,1.487,0,0,0,1.487,1.487h5.948a1.487,1.487,0,0,0,1.487-1.487V43.687A1.487,1.487,0,0,0,92.757,42.2H91.27c0-7.366-3.375-14.427-9.505-19.885a37.655,37.655,0,0,0-11.433-6.881H88.3v2.974A1.487,1.487,0,0,0,89.783,19.9h8.922a1.487,1.487,0,0,0,1.487-1.487V9.487A1.487,1.487,0,0,0,98.705,8ZM16.922,16.922H10.974V10.974h5.948ZM19.9,48.148H16.922V45.174H19.9ZM57.07,16.922H51.122V10.974H57.07Zm34.2,31.226H88.3V45.174H91.27Zm5.948-31.226H91.27V10.974h5.948Z" transform="translate(-8 -8)" fill="#0ad871"/>
        </g>
      </g>
    </g>
  </g>
</svg>
