<svg xmlns="http://www.w3.org/2000/svg" width="156" height="156" viewBox="0 0 156 156">
  <g id="Group_55932" data-name="Group 55932" transform="translate(-1091 -2587)">
    <rect id="Rectangle_14111" data-name="Rectangle 14111" width="156" height="156" rx="16" transform="translate(1091 2587)" fill="#ed851c" opacity="0.16"/>
    <g id="Group_10764" data-name="Group 10764" transform="translate(32 1399)">
      <rect id="Rectangle_14006" data-name="Rectangle 14006" width="94" height="94" rx="10" transform="translate(1090.603 1219)" fill="none"/>
      <g id="svgexport-6_4_" data-name="svgexport-6 (4)" transform="translate(1090 1229.846)">
        <g id="Group_10761" data-name="Group 10761" transform="translate(0 0)">
          <path id="Path_11755" data-name="Path 11755" d="M96.743,64H13.309A5.315,5.315,0,0,0,8,69.309v62.2a5.315,5.315,0,0,0,5.309,5.309H96.743a5.315,5.315,0,0,0,5.309-5.309v-62.2A5.315,5.315,0,0,0,96.743,64Zm2.275,67.506a2.277,2.277,0,0,1-2.275,2.275H13.309a2.277,2.277,0,0,1-2.275-2.275v-62.2a2.277,2.277,0,0,1,2.275-2.275H96.743a2.277,2.277,0,0,1,2.275,2.275Z" transform="translate(-8 -64)" fill="#ed851c"/>
          <path id="Path_11756" data-name="Path 11756" d="M216.77,189.043a1.517,1.517,0,0,0,1.528-.019l15.17-9.1a1.517,1.517,0,0,0,0-2.6l-15.17-9.1a1.517,1.517,0,0,0-2.3,1.3v18.2a1.517,1.517,0,0,0,.77,1.32Zm2.264-16.845,10.7,6.423-10.7,6.423Z" transform="translate(-176.558 -148.281)" fill="#ed851c"/>
          <path id="Path_11757" data-name="Path 11757" d="M171.721,159.442A19.721,19.721,0,1,0,152,139.721a19.721,19.721,0,0,0,19.721,19.721Zm0-36.408a16.687,16.687,0,1,1-16.687,16.687,16.687,16.687,0,0,1,16.687-16.687Z" transform="translate(-124.694 -109.381)" fill="#ed851c"/>
          <path id="Path_11758" data-name="Path 11758" d="M176.543,363.034a1.517,1.517,0,0,1-1.517,1.517H137.1a1.517,1.517,0,0,1-3.034,0h-4.551a1.517,1.517,0,0,1,0-3.034h4.551a1.517,1.517,0,0,1,3.034,0h37.925A1.517,1.517,0,0,1,176.543,363.034Z" transform="translate(-105.245 -303.872)" fill="#ed851c"/>
        </g>
      </g>
    </g>
  </g>
</svg>
